<svg xmlns="http://www.w3.org/2000/svg" viewBox="0 0 30.7 41.72"><defs><style>.cls-1{fill:#455a64;}</style></defs><g id="Capa_2" data-name="Capa 2"><g id="Objects"><g id="ART"><path class="cls-1" d="M30.68,22.34a5.35,5.35,0,0,1-.1.75,4.92,4.92,0,0,0-2.06.25c-1.29.49-2.84-.41-4.25-.12-.66.12-1.48.73-2.14.58-.46-.07-.44-.41-.78-.6a1.69,1.69,0,0,0-.92-.1,17.78,17.78,0,0,1-2.31,0,16.69,16.69,0,0,1-2.21-.61,17.09,17.09,0,0,0-2.69-.39c-.78,0-1.51-.31-1.92.46a4.63,4.63,0,0,0-.37.78c-.1.41.22.83.17,1.14s-.44.64-.53,1c-.15.56.19.9-.37,1.29a2.48,2.48,0,0,1-1.43.31.88.88,0,0,1-.32-.19A6.83,6.83,0,0,1,7.82,26a10,10,0,0,1-1.38-2.56,8.9,8.9,0,0,0-.61-1.33,25.58,25.58,0,0,0-1.12-2.46,3.39,3.39,0,0,0-1.58-1.16C1.55,17.71,1,16.25,0,14.86c1.12-.38,2.5,0,3.69-.24.66-1.85-.34-3.18-.94-4.76a8.45,8.45,0,0,1-.13-3.94,2.05,2.05,0,0,1,.15-.53c1,.1.36-.88.61-1.46A2.26,2.26,0,0,1,5.51,2.86c1.32-.12,2.68,0,4,0,0-.36.84-.65,1.21-.68a7.65,7.65,0,0,1,1.68.2,11.91,11.91,0,0,0,2.81.17,7.17,7.17,0,0,0,1.39,0c.31-.1.36-.32.58-.51a1.63,1.63,0,0,1,1.07-.29,10.29,10.29,0,0,0,3.18-.1A7.05,7.05,0,0,1,23,1.24c.6-.05,1.16-.66,1.75-.64a.11.11,0,0,1,.07,0c-.1.41.58.36.87.29.44-.1.61-.51,1-.71C27.5-.27,28,.12,28.13.89c.1.51.61.81.12,1.29S27,2.72,26.63,3.25c-.22.32-.29.71.05.93s.58,0,.92.41.31.53.82.31c.2-.09.61-.46.95-.29.54.3.31,1.51.56,2.07a16.58,16.58,0,0,0-1,1.7,5.94,5.94,0,0,0-.1,1.79c-.06,1.22-.94,2.16-1.31,3.29A4.73,4.73,0,0,0,27.6,17c.19.29.55.44.66.77a3.23,3.23,0,0,1,0,.82c0,.88-.2,1.54.76,1.84a7.37,7.37,0,0,1,1.17.26C30.74,21,30.72,21.77,30.68,22.34Zm-5.76,2.8c-.08,0-.19,0-.4,0a1.81,1.81,0,0,0,0,.77.47.47,0,0,0,.32.24c.2.06.28-.11.32-.27a.8.8,0,0,0-.13-.51C25,25.29,25,25.18,24.92,25.14Zm0,2.45c.08.07.26.06.36.06.31,0,.46-.13.46-.45s-.38-.22-.49-.4a.66.66,0,0,1-.09-.27c0-.06-.17-.27-.22-.22s0,.15.05.22v.26c0,.16-.14.27-.15.43S24.79,27.51,24.89,27.59Zm.52.9c-.08-.16-.18-.49-.29-.52s0,.54-.19.71-.35.19-.49.32a.64.64,0,0,0-.15.69.84.84,0,0,0,.42.26,1,1,0,0,0,.35.06,1.29,1.29,0,0,1,.57.19c.17.07.36.07.42-.12a3.66,3.66,0,0,0,0-.66.56.56,0,0,0-.17-.53C25.75,28.74,25.51,28.71,25.41,28.49ZM16.28,25c-.33,0-.23.36-.16.64s.19.67.62.56C17.41,26.05,16.56,24.9,16.28,25Zm1.95,1.08c-.16-.07-.29.1-.27.27s.06.11.18.13.17.05.26.18.08.11.2.12.25,0,.21-.21a.66.66,0,0,0-.17-.24C18.53,26.25,18.3,26.22,18.23,26.1ZM18,28.79c-.22,0-.18.52-.18.66s.11.56.32.61.46-.15.58-.33,0-.45-.12-.68A.61.61,0,0,0,18,28.79Zm9.13,6.53c-.07.08,0,.25,0,.34a.58.58,0,0,0,.47.45.46.46,0,0,0,.3-.11.47.47,0,0,0,.14-.14s.12-.19.1-.2a2.58,2.58,0,0,0-.53-.32C27.43,35.27,27.22,35.17,27.1,35.32Zm-3.84,5.53v.35c-.47.54.57.77.86.14S23.56,40.39,23.26,40.85ZM25,39.49s.05,0,.06-.05,0,0,0,0Zm.06-.05c-.34.29.21.79.53.55S25.26,39.17,25,39.44Z"/></g></g></g></svg>