<svg xmlns="http://www.w3.org/2000/svg" viewBox="0 0 75.43 104.4"><defs><style>.cls-1{fill:#455a64;}</style></defs><g id="Capa_2" data-name="Capa 2"><g id="Objects"><g id="CA"><path class="cls-1" d="M75.43,32.86a2,2,0,0,1-1.51,1.57,2.78,2.78,0,0,0-1.56.92,4,4,0,0,1-.6.92c-.2.17-.44.28-.62.43s-.54.52-.83.72a1.13,1.13,0,0,1-.78.3.78.78,0,0,0-.58,0c-.47.15-.87.4-1.34.51s-.86-.08-1.27,0-.52.54-.62.91a2.62,2.62,0,0,0-.07,1.21,2.07,2.07,0,0,0,.48,1.16,7.58,7.58,0,0,0,.91.79c.4.29.79.57,1.18.88a7.75,7.75,0,0,1,1.19.95c.29.32.5.73.81,1a3.79,3.79,0,0,1,.37.31c.14.16.22.44.35.6a1.4,1.4,0,0,1,0,.58c-.15.25-.65.39-.9.5s-.47.18-.55.36a1.29,1.29,0,0,0,0,.48c0,.3.2.63.1.94s-.35.44-.7.36a1.89,1.89,0,0,0-1,0,3.87,3.87,0,0,1-1,.42c-.27,0-.55,0-.82,0s-.38,0-.5-.39c-.21-.7-1-.9-1.27-1.54a9.58,9.58,0,0,0-.35-1.11c-.16-.26-.68-.27-.94-.14s-.2.18-.28.32c-.16.33-.24.57-.61.74s-.73.4-.81.78a4.32,4.32,0,0,0,.7,2.58,1,1,0,0,1,.09.77c-.12.22-.66.34-.89.44-.52.21-.57,1-1.16,1.24-1.47.65,1.3,2-.34,2.27a4,4,0,0,1-1.94-.28c-.51-.21-1.11-.74-1.67-.72A5.27,5.27,0,0,1,55.35,57a7.19,7.19,0,0,0-.42,1c0,.23.09.56,0,.79-.29.76-.72.13-1.15-.17a2.07,2.07,0,0,0-1.5-.26A3.23,3.23,0,0,0,49.71,60c-.31.77-.11.74-1,.95a2.85,2.85,0,0,0-1.43.94,4.31,4.31,0,0,1-3,1.41l0,.14-.52-.26a9.66,9.66,0,0,0-2.13-.88c-.74-.14-1.47-.17-2.21-.27a1,1,0,0,1-.9-.82c-.15-.59.16-.64.61-.59s.77,0,1.17,0,.76.37,1.16.31c.64-.08.29-.67.14-1.08a1.47,1.47,0,0,0-.76-.94c-.4-.16-.79,0-1.12-.4-.53-.59-1.31-1.68-2.2-1.09a5,5,0,0,1-2.84,1c-.58,0-1.17-.25-1.62.12-.17.14-.06.23-.31.34a1.4,1.4,0,0,1-.5,0c-.68,0-1.11-.17-1.45.51-.23.5-.18.65-.8.61a20.39,20.39,0,0,1-3,0,2.8,2.8,0,0,1,0-.41,9.32,9.32,0,0,0,0-1.4c-.11-.73-.53-1.32-.42-2,.08-.55.49-1.09.38-1.65-.16-.85-1.57-1.14-2.28-1.41-.48-.2-1.34-.58-1.59.08-.18.46-.14,1.11-.28,1.61s-.31,1-.95,1.15-1.11,0-1.66.13S19,56,18.91,55.45c-.11-.71.61-1.5.82-2.13a1.37,1.37,0,0,0-.55-1.69c-.48-.39-.86-.52-.54-1.14.46-.93,1.45-1.63,1.53-2.69s-.39-2.4.1-3.36,1.41-1.82,1.89-2.88a4.75,4.75,0,0,0,.44-1.66c0-.48.21-1.13.82-.9a1.7,1.7,0,0,0,1.35.23c.41-.16.66-.69.91-1a4.19,4.19,0,0,0,1.21-2.58,2.74,2.74,0,0,0-.9-2.5c-.69-.5-1.45-.92-2.1-1.47a11.42,11.42,0,0,1-.8-.9c-.3-.31-.72-.47-.85-.86a2.76,2.76,0,0,1,.26-1.44,3.88,3.88,0,0,0,.15-1.28,10.52,10.52,0,0,1,.5-2.37,7.57,7.57,0,0,1,1-2.46c.29-.45.72-.62,1.09-1a3.36,3.36,0,0,0,.59-1c.22-.46,1.09-1.52.81-2,.35-.38.19-1,.32-1.47s.7-.69,1.1-1a2,2,0,0,0,.66-1.17,3.61,3.61,0,0,0,.21-.83,3.18,3.18,0,0,0-.14-.53.37.37,0,0,1,.08-.35c.4-.52.92.2,1.4,0s.24-1,.88-.49c.33.24.44.55.85.68s.65.13,1,.23a4.3,4.3,0,0,0,1.41.31c.51,0,.89-.43,1.37-.46C36.59,13.18,37,14.31,37,15s-.08,2.26,1,2.17c.29,0,.37-.32.6-.08.06.06,0,.46.1.57.33.67.51.15.67-.23a4.18,4.18,0,0,0,.41-1.22c0-.41.17-.74.22-1.13.12-.88-.92-1-.71-1.79.46.11,1,0,1.5.11a2.21,2.21,0,0,1,1,1.08c.65,1.09,1.48,1.05,2.55,1.5a26.16,26.16,0,0,0,3,.94A7.31,7.31,0,0,1,50,18.39c.57.49,1,1.9,1.8,2,.59.47,1.69.34,2.39.63s1-.05,1.73-.18.64.33,1,.81c.15.18.31.31.56.2.44-.18.29-.5.93-.4.12.47,0,1,.13,1.47.19.64.3-.12.77-.05.68.11.89,1.63,1.4,2.05a9,9,0,0,0,1.88,1.46,5.62,5.62,0,0,0,1.35.37,12.34,12.34,0,0,1,1.36,0,5.81,5.81,0,0,1,1.34.82,1.37,1.37,0,0,0,.83.17,9,9,0,0,0,1.87.09c.38-.09.78-.5,1.14-.36s.37.44.41.65c.08.41,0,1.16.32,1.42s.68-.07.94-.09c.62-.06.31.14.46.48s.32.27.68.28c.69,0,1,.51,1.43.89-.14.3.14.54.3.79S75.48,32.4,75.43,32.86Zm-39,29.62c-.37,0-2,1.38-1,1.71.46.17.45-.31.59-.54S36.76,62.51,36.39,62.48Zm.2,2.41a1.23,1.23,0,0,0-.27.93c.06.34.21,1,.41,1s-.3-.84,0-1.19c.1-.14.23-.14.25-.35S36.74,64.81,36.59,64.89Zm.63-1.67c-.15.18-.26.5.13.45.21,0,.27-.51,0-.51ZM61,22.81c.31.08.86-1,.86-1.58s.87-.44.89-1c0-.33-.31-.42-.59-.35a.81.81,0,0,0-.48.48,1,1,0,0,1-.45.5,1.56,1.56,0,0,0-.5.42C60.44,21.75,60.7,22.73,61,22.81Zm.69-3.63c.19-.06.14-.36.24-.52s.32-.19.29-.45-.24-.15-.43-.06a.62.62,0,0,0-.2.72A2.76,2.76,0,0,0,61.7,19.18ZM64,10.37c.2-.06.75.18.74-.19,0-.19-.59-.55-.72-.7s-.33-.49-.54-.69a13.48,13.48,0,0,1-1.55-1.74,4.1,4.1,0,0,0-.43-.7,3,3,0,0,0-1-.33c-.35-.12-.46-.23-.47-.58,0-.53.14-.37.49-.51,0-.36-.41-.64-.7-.77s-.63-.09-.89-.29c-.45-.34-.61-.81-1.36-.74A3.56,3.56,0,0,0,56,3.65c-.29.19-.62.35-.92.53s-.57.53-.93.72a3.45,3.45,0,0,1-2.06-.05,2.44,2.44,0,0,0-1.34.37,3.32,3.32,0,0,1-1.18.07,2.82,2.82,0,0,1-1.87-.41,6.28,6.28,0,0,0-1.12-.72,1.27,1.27,0,0,0-.55,0c-.14,0-.18.17-.31.21-.42.13-.71-.27-1-.46s-.66-.13-1.08-.05a.65.65,0,0,1-.74-.32c-.18-.24-.27-.51-.49-.17a4,4,0,0,0-.28,1c-.08.42-.16.34-.58.36s-.35.18-.42.57A4.05,4.05,0,0,0,41,6c0,.26.1.7.36.76a1.55,1.55,0,0,0,.78-.24,1,1,0,0,0,.6-.52c.08-.2,0-.7.19-.86.41-.38,1.32.25,1.2.74s-1.08,1-.32,1.48c.5.31,1.39.16,2,.24s.68.63,1.17.6c.66,0,1.42-.24,1.84.45a7.47,7.47,0,0,0,.52,1c.24.27.61.21,1,.21h1.68a2.14,2.14,0,0,0,1-.2.86.86,0,0,0,.29-.21.85.85,0,0,1,1-.28,2.56,2.56,0,0,0,.58.22,1.38,1.38,0,0,0,.45,0A1.34,1.34,0,0,0,55.75,9c.1-.11.2-.29.38-.26s.44.4.78.39.69-.08.69.32,0,.53-.3.56-.77-.18-1.08,0-.13.53-.22.8-.54.64-.42.92.37.12.51.09a.75.75,0,0,0,.39-.33c.15-.18.23-.56.48-.6s.32.21.55.18.3-.34.57-.36a5,5,0,0,1,1,.18,1.49,1.49,0,0,0,.87-.24,1.33,1.33,0,0,1,.74-.14.83.83,0,0,0,.75-.28c.2-.27.48-.65.86-.7a.54.54,0,0,1,.55.44,2.23,2.23,0,0,0,.09.68c.05.1.22.35.35.34C63.54,11,63.74,10.44,64,10.37ZM44.08,2.58a.6.6,0,0,0,0-.77,7.69,7.69,0,0,1-.8-.61C42.77.72,42.44,0,41.69,0a.79.79,0,0,0-.43.07A1.08,1.08,0,0,1,41,.2a1.94,1.94,0,0,1-.24,0c-.14,0-.16.12-.14.26s.17.15.3.25,0,.27.1.38.32,0,.42,0,.32-.1.37.08a1.82,1.82,0,0,1,0,.33c0,.21.11.21.3.23a.76.76,0,0,1,.6.29,1.6,1.6,0,0,0,.8.48,1,1,0,0,0,.3.09A.62.62,0,0,0,44.08,2.58ZM39.63,4.1c-.08-.07-.21,0-.31,0s-.33.31-.59.34-.35.12-.57.07a1.94,1.94,0,0,1-.3-.13.9.9,0,0,0-.43,0c-.15.11,0,.49,0,.66s-.06.24,0,.33.22.13.34.15a5.82,5.82,0,0,0,.62-.08c.19,0,.52.22.7,0s0-.24,0-.36a.45.45,0,0,1,.23-.22c.19-.12.48-.16.55-.4C39.72,4.32,39.73,4.17,39.63,4.1ZM35.9,6.76c0-.46-.89-.51-1.22-.42s-.81.53-1.15.33-.29-.84-.69-1c-.17-.08-.25,0-.37.14a.42.42,0,0,1-.34.1c-.31,0-.55,0-.69.3a.66.66,0,0,1-.32.34c-.08,0-.14,0-.17.13s.07.27.15.34c.38.33.95.19,1.41.21a.79.79,0,0,1,.44.23,2,2,0,0,0,.51.28.73.73,0,0,0,.7-.08,2.71,2.71,0,0,1,.76-.25,1.74,1.74,0,0,0,.54-.15A1,1,0,0,0,35.9,6.76Zm-5.62-.57a.83.83,0,0,0,0-.54c0-.14-.23-.19-.36-.25a1,1,0,0,0-.52-.18,2.36,2.36,0,0,0-.46.1c-.14,0-.73-.06-.56.26.07.13.3.15.42.2a2,2,0,0,1,.3.21A1.5,1.5,0,0,0,30.28,6.19Zm5.1-.49c.14-.06.27-.16.41-.21a3.1,3.1,0,0,1,.42-.08c.3-.07.28-.53,0-.52s-.59.17-.92.08c-.13,0-.23-.1-.36,0s-.38.46-.18.51C34.73,5.86,35.18,5.78,35.38,5.7Zm5,.12c.21,0,.15-.17.21-.31s.12-.14.09-.25a.13.13,0,0,0-.13-.13c-.3,0-.36.33-.44.53S40.24,5.86,40.4,5.82Zm1.39-2.16c.16,0,.14-.19.09-.33a1.18,1.18,0,0,1-.07-.2,1,1,0,0,1,0-.17c0-.25-.2-.22-.37-.06s-.18.47,0,.48C41.53,3.59,41.61,3.7,41.79,3.66ZM26.14,104.29c.32,0,.39-.1.48-.41s0-.12.11-.23a1.65,1.65,0,0,0,.22-.24,1.15,1.15,0,0,0-.09-1.27c-.31-.27-1.24-.11-1.65-.11a2.83,2.83,0,0,1-1.05,0,2,2,0,0,1-.6-.51c-.16-.18-.19-.34-.44-.46a2.13,2.13,0,0,0-.71-.09c-.51-.05-1.17-.42-1.66,0-.32.28.08.8.38.95s.46,0,.67.11.31.4.52.56a3.43,3.43,0,0,0,.92.3,1.42,1.42,0,0,1,.65.48c.17.22.3.54.56.66s.66.18.95.3S25.91,104.5,26.14,104.29Zm-6-3.27a.39.39,0,0,0,.36-.48c-.07-.2-.41-.25-.48-.49.26-.21.68-.06,1-.07a.83.83,0,0,0-.14-.67c-.13-.17-.34-.23-.51-.36a6.53,6.53,0,0,1-1.08-.87A14.61,14.61,0,0,0,18,96.7c-.35-.33-.7-.69-1.07-1-.64-.58-1.2-1.37-2.09-1.57a2.15,2.15,0,0,0-1.26.11c-.31.15-.73.24-.86.62-.19.55.42.72.79,1,.2.14,1.39,1,1.42.28,0-.21-.23-.29-.35-.45a.73.73,0,0,1-.13-.55c.2-.59.88.23,1.1.4.45.36,1,.58,1.45,1s.54.92.91,1.32c.12.12,1.07,1,.54,1-.24,0-.58-.29-.72-.46-.26-.34-.41-.75-.68-1.09s-.91-1.15-1.27-.5c-.19.35.19.6.42.83a3.07,3.07,0,0,1,.43.59c.32.54.63,1.11,1,1.62s1.15.61,1.69.93a2.23,2.23,0,0,1,.24.19C19.82,101.09,19.82,101.05,20.13,101ZM8.55,91.36c.63.15.38-.74.18-1s-.52-.47-.74-.74c-.51-.6-.93-1.37-1.47-1.91a2.17,2.17,0,0,0-2.14-.15.82.82,0,0,0,.25,1.54c.72.18,2.42-.24,2.25,1-.33,0-.66,0-1,0a1.49,1.49,0,0,0,1,1.19A9.3,9.3,0,0,0,8.55,91.36ZM2.2,89c.5,0,1.06,0,1-.69-.07-.41-.72-.62-1.08-.79a2.11,2.11,0,0,0-1.79,0c-.83.44.37.64.66.75C1.52,88.53,1.69,89.16,2.2,89Zm15.13.24c-.62.26.19,1,.69.9a.56.56,0,0,0-.27-1.08A1.33,1.33,0,0,0,17.33,89.24Zm1-1.15c-.15.12-.2.53.11.45s.21-.48-.07-.43"/></g></g></g></svg>