<svg xmlns="http://www.w3.org/2000/svg" viewBox="0 0 50.74 45"><defs><style>.cls-1{fill:#455a64;}</style></defs><g id="Capa_2" data-name="Capa 2"><g id="Objects"><g id="CF"><path class="cls-1" d="M50.74,38.59a3,3,0,0,0-1.31.17c-.65.33-1,1.48-1.61,2-1.27,1-3.07,1.85-2.26,3.93a.87.87,0,0,0,.2.31,10.69,10.69,0,0,0-1.57-.42,15.41,15.41,0,0,1-3.49-.75,7.59,7.59,0,0,1-1.52-1,11.24,11.24,0,0,0-2.56-.88c-1.51-.66-2.14-2.5-3.48-3.38-.54-.35-1.41-.31-1.89-.7-.69-.56-.91-1.94-1.31-2.71-.24-.45-.78-.9-1-1.26s-.09-.82-.27-1.12a2.54,2.54,0,0,0-2-.85c.18-1.48,2.33-.26,2.4-1.56-.76-.22.2-1.41-.27-2.08a3.65,3.65,0,0,0-2.24-.89c0-.38.15-1.17,0-1.5-.28-.53-1.12-.5-1.51-.9s-.2-.95-1-.88c-.11,0-.41.38-.57.42s-.58-.06-.84,0c-1.78.49.27,1.3.92,1.94s.81,1.65,1.42,2.39.93.93,1,2-.28,1.54-1.44,1a5,5,0,0,0-2.89-.77c-.41,0-1.42.21-2.15.21-.39,0-.71-.07-.82-.23-.41-.55.16-2.36,0-3-.31-1.2-1.56-1.39-2.69-1.16-.93.19-1.69,1.28-2.63.83-.6-.29-.26-.5-1-.57s-.43.17-1,.4c-1.23.54-1.2-.36-2.21-.83-.78-.36-1.57-.1-2.35-.54A6.47,6.47,0,0,1,5.19,24.5a3.49,3.49,0,0,0-2-1.16c-1.33-.41-.74-1.07-1-2.33C2,20,1.7,19.81.78,19.46c-.47-.18-.81.06-.72-.72,0-.36.49-.59.65-.94a1.3,1.3,0,0,0-.48-1.86C1,15,2.7,14.18.73,13.69c-1-.25-.83-.15-.34-.83a4.27,4.27,0,0,0,.84-1.79c.15-1-.08-1.76.58-2.57A10.56,10.56,0,0,1,4.65,6.66c.3-.18.84-.78,1.17-.88.82-.26,1.16.41,1.76.7a3.83,3.83,0,0,0,1.62.18A4.89,4.89,0,0,1,10.67,7a18,18,0,0,0,4,.34,16.94,16.94,0,0,0,3.56,0C20.49,7,21.67,4,22.5,2.25L22.6,2l.13,0a1.57,1.57,0,0,0,2.41.1c.46-.61.17-2.19,1.34-2.13l.21,0h0a.72.72,0,0,1,.2.09c.58.29,1,1,1.54,1.22S30.37,1,30.25,2a5.5,5.5,0,0,0-.13,2.39c.77-.06,1.17-.68,1.89-.74s1.62.42,2-.51c.19-.48,0-1.57.39-1.92a3.59,3.59,0,0,1,2.13-.08c.36.13,1,.7,1,1.09s-.9.67-1.13,1c1.28.53.36,1.07.52,2s1.25.91,1.19,1.8c-.05.64-.85,1.28-.25,2,.18.2.47.17.67.34a1,1,0,0,1,.36.95c-.06.78-.77.61-1,1.25s.4,1.13.8,1.44.73.31,1,.52.3.52.53.8A1.87,1.87,0,0,0,42,15c.72-.07,1.26-.2,1.57.48s.82,2.21.53,2.89a1.67,1.67,0,0,0,.71,1.23,3.5,3.5,0,0,1,1,.75A1.6,1.6,0,0,1,46,21.59c-.15.43-.6.44-.8.77-.42.69.32,1.76.39,2.5a3,3,0,0,1,0,1.08c-.14.5-.55.68-.53,1.24,0,.88.92,1.6,1.09,2.49.13.72-.1,1.34.46,1.88s1.44.72,1.21,1.88c-.14.7-.47,2,0,2.59s1.5.23,1.84,1.18a2.93,2.93,0,0,0,.41,1.06A1.44,1.44,0,0,0,50.74,38.59Z"/></g></g></g></svg>