<svg xmlns="http://www.w3.org/2000/svg" viewBox="0 0 74.4 40.69"><defs><style>.cls-1{fill:#455a64;}</style></defs><g id="Capa_2" data-name="Capa 2"><g id="Objects"><g id="GT"><path class="cls-1" d="M74.39,19.22A3.22,3.22,0,0,1,74,20.6a1.23,1.23,0,0,1-.54.59c-.57.35-1.37.41-1.86.89a4.64,4.64,0,0,1-.85.47c-.25.14-.47.33-.73.48a2.11,2.11,0,0,0-1.12,1.52,8,8,0,0,1-.32,1.78,3.62,3.62,0,0,1-1.26,1.29,2.55,2.55,0,0,1-1.53.68c-.5,0-.81-.47-1.18-.75a1.41,1.41,0,0,0-.73-.34c-.32,0-.57.14-.87.14s-.47-.24-.73-.29a4.77,4.77,0,0,0-1,0h-.93a1.84,1.84,0,0,0-1.07.34,3.85,3.85,0,0,1-2.19.9h-.52c-.27,0-.51-.2-.76-.25a3.1,3.1,0,0,0-.68,0,3.48,3.48,0,0,0-1.32.5,3.72,3.72,0,0,1-1.42.15,3.93,3.93,0,0,0-1.62.31,2.15,2.15,0,0,1-1.64.32A4.92,4.92,0,0,0,47.75,29a1.6,1.6,0,0,0-.79.09,5.51,5.51,0,0,1-.76.31,2.92,2.92,0,0,1-1.31.11c-.27-.06-.53-.18-.79-.24a3.37,3.37,0,0,0-1,0,7.24,7.24,0,0,0-1.4.17c0,.19-.59.3-.77.36-.43.15-.55,0-.92-.12a.94.94,0,0,0-.81.13c-.26.16-.33.37-.65.44a3.77,3.77,0,0,1-1,.05,2.77,2.77,0,0,0-1,.31,6.84,6.84,0,0,0-1.26.57c-.27.21-.52.47-.79.7a2.23,2.23,0,0,0-.89,1,4.16,4.16,0,0,1-.33.92c-.26-.13-1,.25-1.23.32s-.49.17-.73.22a6.22,6.22,0,0,1-1.83-.05c-.23,0-.63-.1-.8.05s-.15.43-.15.61c0,.53.23,1-.1,1.46-.15.2-.32.4-.47.59s-.18.39-.41.47c-.42.17-1,.12-1.29.52-.16.2-.16.31-.42.4s-.5,0-.75.11a2,2,0,0,1-.54.12.49.49,0,0,1-.34-.06c-.14-.11-.11-.35-.23-.45a.79.79,0,0,0-.52-.08c-.1.06-.12.24-.15.34a.7.7,0,0,1-.45.54,7.29,7.29,0,0,0-.7.28,1.81,1.81,0,0,1-.54.18c-.61.06-1.15.41-1.76.44a6.28,6.28,0,0,1-1,0,4.93,4.93,0,0,1-.95,0c-.8-.36-.16-1.47.36-1.67.24-.09.51-.07.72-.3s.16-.55.44-.73.8,0,1.11-.2.32-.68.28-1c-.54-.07-1.58.51-1.71-.41-.07-.51.25-.33.48-.62s.07-.59.29-.8c.49-.49,1.22-.15,1.57-.9.05-.11,0-.28.13-.39s.26-.08.4-.2c.31-.28.23-.47-.07-.69s-.59-.21-.72-.71a4,4,0,0,1,0-1.33c-.5-.2-1.35.81-1.28,1.27s-.34.7-.4,1,.17.53.11.89c-.52,0-.65-.21-1.06-.47s-.8-.41-1.09,0a.41.41,0,0,0-.31.13c0,.12-.14.33-.14.45a1,1,0,0,0,.62.88c.58.19.48-.21.69-.52.2.28,0,.75.1,1.09s.33.46-.1.72-.65.16-.72.69.15.7.08,1.06a1.76,1.76,0,0,0-1.42.68c-.29.36-.39,1.17-1,.26-.1.36,0,.78-.32,1a2.41,2.41,0,0,1-.83.13,18.08,18.08,0,0,0-1.81.42c-1.12.31-2.29.81-3.49,1a13.87,13.87,0,0,1-2.42.18,2.47,2.47,0,0,1-.43-.11.56.56,0,0,0,0-.12,14.39,14.39,0,0,0-3.18-5.09C1.63,34.08-.2,32.94,0,30.77c.06,0,0-.46,0-.54s0-.43.07-.51.27,0,.33,0c.25.07.49.29.74.15s.29-.45.36-.7.16-.62.45-.68l.48-.06A5.32,5.32,0,0,0,3,28.25c.47-.11.73-1.38.66-1.89a1,1,0,0,0-.48-.62c-.23-.1-.73.09-.9-.09s0-.76,0-1a1.77,1.77,0,0,0-.27-.8,4.08,4.08,0,0,1-.47-.7c-.11-.28-.1-.7-.32-.9s-.3-.13-.38-.42,0-.46-.12-.69,0-.32-.1-.47-.26-.32-.3-.53a1.47,1.47,0,0,1,.44-1.3A1.25,1.25,0,0,0,1,17.56c-.21-.84.55-1.82.08-2.6-.23-.37-.66-.65-.76-1.1-.14-.67.5-.59,1-.77A3.28,3.28,0,0,0,3,11.28c.11-.3-.07-1.19.2-1.35s1.12.32,1.54.12A2.71,2.71,0,0,1,5,9.17c.1-.25.18-.4.38-.43a.33.33,0,0,0,.29,0h0c.29,0,.39-.05.53-.37a9.16,9.16,0,0,1,.39-1,.58.58,0,0,1,.92,0c.22.24.2.59.54.66s.53.13.71.53a2.78,2.78,0,0,0,.42.73.93.93,0,0,0,.14.14,1.11,1.11,0,0,0,.54.27.92.92,0,0,0,.71-.07,1.71,1.71,0,0,0,.59-.42c.08-.11.1-.35.28-.29s.22.65.36.81a1.14,1.14,0,0,0,.77.2,1.1,1.1,0,0,0,.76-.51.7.7,0,0,0,.11-.81,1.59,1.59,0,0,1-.09-1.09,3.68,3.68,0,0,1,.7-.84,3,3,0,0,1,.75-.7,2.58,2.58,0,0,1,1-.44c.43,0,.69.42,1.1.53a.69.69,0,0,0,.51,0c.15.08.52-.42.65-.52A10.49,10.49,0,0,1,19,5c.31-.18.67-.44,1-.22a2.58,2.58,0,0,1,.71.76,5,5,0,0,0,1.08.86c.3.2.57.45.85.67a3.07,3.07,0,0,0,1.82.72c.36,0,.61,0,.84.28s.29.48.6.6,1.29.45,1.68.08c.6-.54-.08-1.61-.57-2s-.67-.34-.75-.84.18-.52.62-.45.78-.46,1.22-.4.82.59,1.1.88a9.4,9.4,0,0,0,.74.66c.19.16.32.38.51.54a3.64,3.64,0,0,0,1,.6,3,3,0,0,0,.68,0,3.39,3.39,0,0,1,1.46.77c.39.24,1.15.7,1.63.46.25-.13.34-.51.42-.75a1.75,1.75,0,0,1,.42-.78,3.13,3.13,0,0,1,.82-.4,7.81,7.81,0,0,0,1-.48c.31-.2.51-.34.54-.7S38.1,5.5,38,5.18a3.21,3.21,0,0,1,.4-2.29c.19-.42.42-.81.64-1.21s.32-.53.72-.58.66.07.94-.12a1.43,1.43,0,0,0,.37-.44l.1-.19A.81.81,0,0,1,41.42,0c.23-.1.38.18.52.32a.61.61,0,0,0,.44.2c.33,0,.71-.19,1-.08s.34.59.38.94a.63.63,0,0,0,.26.44c.32.2.19-.15.4-.26a5.16,5.16,0,0,1,1.27.57c.33.13.55.16.61.53s0,.64.21.8.66-.1,1,0c.57.16.78.9,1.19,1.28.19.17.31.24.36.5s0,.62.09.93.09.26.29.41.11.19.15.38c.1.44.67.32,1.06.3.11,0,.34-.09.43,0s.16.32.18.44a1.9,1.9,0,0,1-.05.92c-.1.54.71.73,1,1.06a3.88,3.88,0,0,0,.3.48,1.17,1.17,0,0,0,.38.21,2.8,2.8,0,0,1,.83.85c.2.27.3.49.67.52a2.36,2.36,0,0,0,.46,0,3.1,3.1,0,0,0,.52-.15,1.75,1.75,0,0,1,1.39.25,5.5,5.5,0,0,1,.9,1.08,1.09,1.09,0,0,0,.44.29l0,0c.1.17.43.19.61.27a1.3,1.3,0,0,1,.59.44,2.29,2.29,0,0,1,.23.77c.05.16.13.52.39.39,0-.29.13-.34.31-.45s.18-.26.44-.29a4.52,4.52,0,0,1,1.47.15,9.23,9.23,0,0,0,1.58,0,2,2,0,0,0,1.07-.2c.18-.14.19-.2.42-.25s.31-.11.24-.41.94-.38,1.17-.38A11.35,11.35,0,0,0,68.16,13a1.41,1.41,0,0,1,1.43.5,4.11,4.11,0,0,0,.49.63,5.53,5.53,0,0,0,.74.53c.52.33,1.07.62,1.63.91a2.17,2.17,0,0,1,1.07,1,2.81,2.81,0,0,1,0,.65,1.74,1.74,0,0,0,.26.72A2.3,2.3,0,0,1,74.39,19.22Z"/></g></g></g></svg>