<svg xmlns="http://www.w3.org/2000/svg" viewBox="0 0 109.71 115.33"><defs><style>.cls-1{fill:#455a64;}</style></defs><g id="Capa_2" data-name="Capa 2"><g id="Objects"><g id="GY"><path class="cls-1" d="M109.71,58.91c-1.31.22-2.6,1.74-3.73,2.15a6.76,6.76,0,0,1-1,.18c-.39.11-.67.5-1,.59-.74.18-1.42-1.49-2.16-1-.52.37,0,1.91-.32,2.47-.41.83-1.3,1.13-1.65,1.88a2.74,2.74,0,0,0-.14,1.11c0,.5-.14.69.47.71s2.65-.4,2.82.59c.07.42-.26.77-.53,1a1.22,1.22,0,0,0-.51.93c0,.41,0,1.13-.4,1.36s-1.23-.25-1.71-.34a5.51,5.51,0,0,0,.31,1.38,10.14,10.14,0,0,1,.18,1.83,4.93,4.93,0,0,1-.25,1.71,1.66,1.66,0,0,1-.49.92,6.66,6.66,0,0,0-.66.53,9.52,9.52,0,0,0-.85,1.76c-.17.33-.25.68-.61.87a7.53,7.53,0,0,1-1.21.34,3.91,3.91,0,0,0-1.24.53c-.38.28-.49.72-.93.94a2.06,2.06,0,0,0-1,.66,3.52,3.52,0,0,0-.44,1.57c-.21,1.12-.53,2.56-1.91,2.61-.78,0-1-.42-1.2-1-.08-.18-.23-.46-.46-.42s-.18.32-.22.49-.07.39-.11.57c-.08.34-.21.89-.62,1a.76.76,0,0,1-.75-.38,1.61,1.61,0,0,1,.08-1c0-.31,0-.6-.24-.77l-1.38,0a1.19,1.19,0,0,1-.78-.28c-.45-.34-.08-1.06-.36-1.5a2.65,2.65,0,0,0-.52-.48,1.6,1.6,0,0,1-.44-.78c-.08-.24-.18-.63-.49-.49s-.27.39-.29.61,0,.52-.22.56-.54-.11-.78,0c0,.29-.24.53-.24.84a6,6,0,0,0,.12.61,4.8,4.8,0,0,1-.07.85,6,6,0,0,1-.24.93c-.06.18-.21.62-.44.6-.4.18-.94-.1-1.32-.25a2.2,2.2,0,0,0-.83-.2c-.25,0-.38,0-.35.25s0,.85-.38,1a4.83,4.83,0,0,1-1.08.12,1.67,1.67,0,0,0-.79.22,1.53,1.53,0,0,0-.54,1.07,1,1,0,0,1-.56.91,1.43,1.43,0,0,1-.87.27,1.7,1.7,0,0,1-.39,0c-.18,0-.26-.21-.4-.31-.35-.27-.48-.73-.8-1-.17-.18-1-.8-1.15-.34a1.33,1.33,0,0,0,.13,1,1.31,1.31,0,0,1,.2.47.7.7,0,0,1-.1.32c0,.09-.08.19-.11.28a1.89,1.89,0,0,0-.17.66,7,7,0,0,0,0,.92,1.72,1.72,0,0,1,0,.75c-.22.65-1.37.59-1.89.65a13.31,13.31,0,0,1-1.55.13c-.46,0-.9.16-1.35.17a7.72,7.72,0,0,0-.83.06,3.75,3.75,0,0,0-.48,0,.55.55,0,0,0-.3.45c0,.47-.72.71-1,1a8.85,8.85,0,0,0-1,1.66,5.25,5.25,0,0,0-.83,1.78c-.1.72,0,1.46-.16,2.18-.06.41-.09.83-.15,1.23a5.55,5.55,0,0,0-.13.71c-.88.09-1.68-.39-2.6-.29a2.28,2.28,0,0,0-1.39.54c-.47.45-.63,1.19-1.11,1.64s-.8.29-1.35-.07a1.84,1.84,0,0,0-1.89-.25c-.73.18-3.21.83-3.36-.12-.07-.43.34-1.24-.65-.92-.24.08-.41.49-.74.35s-.29-.63-.41-.83A6.12,6.12,0,0,0,47.09,101c-.6-.42-1.5-.23-2.06-.58A7.39,7.39,0,0,1,44.12,99c-.31-.48-.2-1.06-.68-1.48a6.07,6.07,0,0,0-1-.54,8.28,8.28,0,0,1-.83-.74c-.26-.21-.49-.51-.89-.4s-.14.4-.5.58c-.69.35-.86-1.07-1.18-1.43-.49-.56-.78-.58-.83-1.38a1.4,1.4,0,0,0-.8-1.38c-.36-.16-.8-.06-1.16-.24a4.91,4.91,0,0,1-1.17-1c-.87-.16-.85-1.47-1.79-1.67s-1.64.08-2.41-.07-.5-1.52-.94-2.19c-.21-.35-.66-.51-1-.79s-.32-.47-.82-.57-.73,0-1.09-.42-.52-.83-1.06-1a.63.63,0,0,1-.31.73c-.54-.54-.48-1.84-.48-2.59,1-.63-.14-3.31-.47-4.09-.57-1.31-1.65-2.86-1.5-4.31a8.61,8.61,0,0,0-.07-2.15c.63-.21,1.2.69,1.86.21s0-1.26-.42-1.61-1-.42-1.4-.74c-.67-.53-.21-1.17-.65-1.66.08-1.87-.9-3.6-1.66-5.28a16.89,16.89,0,0,1-1.28-2.21,11.21,11.21,0,0,0-.76-2.45c-.47-.86-1.43-1.71-1.72-2.66,0,0,0-.09,0-.14a4.31,4.31,0,0,0,3-1.41A2.88,2.88,0,0,1,21.55,53c.86-.21.67-.18,1-1a3.23,3.23,0,0,1,2.59-1.69,2.09,2.09,0,0,1,1.5.26c.42.3.85.93,1.14.17.08-.23-.05-.56,0-.79a8.64,8.64,0,0,1,.41-1,5.27,5.27,0,0,0,.74-2.33c.56,0,1.17.51,1.67.72a4,4,0,0,0,1.94.28c1.64-.3-1.12-1.62.35-2.27.58-.26.63-1,1.16-1.24.23-.1.76-.22.88-.44s0-.59-.08-.77a4.19,4.19,0,0,1-.7-2.58c.07-.38.5-.63.81-.78s.44-.41.61-.74a.58.58,0,0,1,.27-.32.84.84,0,0,1,.95.14c.19.31.18.77.34,1.11.31.64,1.06.84,1.28,1.54.11.39.09.39.49.39s.55,0,.82,0a3.93,3.93,0,0,0,1-.42,1.85,1.85,0,0,1,1,0c.36.08.59,0,.7-.36s-.09-.64-.1-.94a1.28,1.28,0,0,1,0-.48c.07-.18.38-.28.55-.36s.75-.25.89-.5a1.25,1.25,0,0,0,0-.58c-.13-.16-.21-.44-.36-.6s-.25-.2-.36-.31c-.32-.31-.53-.72-.81-1a7.83,7.83,0,0,0-1.2-.95c-.39-.31-.78-.59-1.18-.88a8.44,8.44,0,0,1-.91-.79,2.22,2.22,0,0,1-.48-1.16,2.62,2.62,0,0,1,.08-1.21c.09-.37.16-.83.61-.91s.86.08,1.28,0,.87-.36,1.33-.51a.78.78,0,0,1,.58,0,1.11,1.11,0,0,0,.78-.3c.3-.2.54-.49.83-.72s.43-.26.62-.43a4.46,4.46,0,0,0,.61-.92,2.75,2.75,0,0,1,1.55-.92,2,2,0,0,0,1.51-1.57c0-.46-.21-.65-.44-1s-.43-.49-.3-.79c0,0,0,0,0,0,.14-.26.63-.24.9-.19.51.08.6.32.8.74a2.71,2.71,0,0,0,.37.79,3.54,3.54,0,0,1,.5.63c.07.13.09.33.2.43s.36.1.5.23A3.05,3.05,0,0,1,51.42,27a5,5,0,0,0,.86,2,10,10,0,0,0,2,1.28,3.84,3.84,0,0,1,.44.32c0,.15.41.37.53.49a2.52,2.52,0,0,1,.33.39,8.75,8.75,0,0,0,.9,1.13c.31.31.8.52,1,.91A5.05,5.05,0,0,0,58,34.79c.18.22.59.65.92.53.11,0,.21-.21.29-.3a2.55,2.55,0,0,0,.31-.24,2.09,2.09,0,0,0,.08-1.31,6,6,0,0,0-.23-1.12,2.32,2.32,0,0,1,.2-1.94,4.26,4.26,0,0,0,.34-.83c.17-.48.46-.48.89-.26s.58.35.89.47.75,0,.88.2c.32.53-1.69.76-1.91.81-.54.11-.69.53-.63,1.06a2,2,0,0,0,.42,1.31c.34.29.77.45.91.91a1.55,1.55,0,0,0,1,1.06c.24.13.51.43.79.41.11-.23,0-.37.28-.55a1,1,0,0,1,.54-.22c.26,0,.28.42.36.62s.34.26.67.32a9.9,9.9,0,0,1,.13,1.54,4.74,4.74,0,0,0,.46,1.6c.22.42.93.43,1.35.49a1.85,1.85,0,0,1,1.29.51,4.2,4.2,0,0,0,.88-.22,1.16,1.16,0,0,1,.92.31,2.1,2.1,0,0,0,.86.42,2.25,2.25,0,0,0,1.14-.21A2.48,2.48,0,0,1,73.17,40a5.41,5.41,0,0,0,1.08.18,7.8,7.8,0,0,1,1.87.07c.38.08.3.48.53.77s1.81,1.27,1.68.34c-.06-.55.44-.85,1-.9s.93-.07.88.57c.44,0,.8-.27,1.23-.24,0-.15-.17-.42,0-.53s.54.29.65.41a7.88,7.88,0,0,0,1,.82,5.52,5.52,0,0,1,.4.55,1.53,1.53,0,0,1,.23.6c-.07.35-.61,0-.7-.16s-.1-.33-.25-.47-.47-.28-.65,0-.1.56-.06.78c.06.5,0,1,.11,1.51a2.36,2.36,0,0,0,.27.64,7,7,0,0,1,.27.77,3.56,3.56,0,0,0,.7,1.51.94.94,0,0,0,.71.29,3.14,3.14,0,0,1,1,.23,7,7,0,0,0,.82.15,7.57,7.57,0,0,1,1,.37c.51.17,1.4.84,1.79.17s-.22-1.69-.74-2.08a8.46,8.46,0,0,0-1.66-.87,2.26,2.26,0,0,1-.93-.53,1.82,1.82,0,0,1-.23-.89c-.05-.38-.12-.76-.18-1.14a3.16,3.16,0,0,0-.41-1.27,1.91,1.91,0,0,0-1.07-.72,2.22,2.22,0,0,1-1-.47c-.15-.18-.11-.47-.14-.68a1.26,1.26,0,0,0-.39-.9c-.32-.27-.46,0-.79.09s-.43.12-.63,0-.15-.19-.31-.18-.31.17-.44.27c-.31.25-.6.46-.85,0s-.28-.61-.68-.8-.7-.17-1-.42-.21-.57-.42-.81a2.2,2.2,0,0,0-.79-.44c-.09-.17-.46-.24-.61-.37a1.24,1.24,0,0,1-.43-.55,7.33,7.33,0,0,0-.39-1.28c-.27-.43-.5-.14-.87-.12-.18,0-.46,0-.53-.19s.16-.39.26-.54a2.94,2.94,0,0,0,.28-.69c.1-.29.12-.29.44-.29s.28,0,.43-.23a2,2,0,0,1,.4-.48A1.58,1.58,0,0,1,76.9,32c.4.32,1,.56,1.26,1a10.15,10.15,0,0,1,.61,1.76,15,15,0,0,0,1,1.64c.22,0,.66.45.85.58a9.72,9.72,0,0,0,1.14.63,18.54,18.54,0,0,1,2.26,1c.76.48,1.48,1,2.25,1.48a1.75,1.75,0,0,0,1,.36,2.74,2.74,0,0,1,1.11.2,5.93,5.93,0,0,1,1.13.7,4.27,4.27,0,0,1,.94.74c.2,0,.42.55.58.69s.66.34.94.54.8.5,1.22.74a2.86,2.86,0,0,1,.9.61c.16.22.14.49.37.7a2.53,2.53,0,0,0,.85.47c.75.34,1.45.77,2.2,1.08a1.87,1.87,0,0,0,.84.22c.28,0,.33-.17.52-.35s.54-.46.75-.26-.11.79-.21,1c-.54,1.26,1.85,2.15.91,3.46a5,5,0,0,1-.76.69,5.1,5.1,0,0,0-.64,1,1.8,1.8,0,0,1-.28.4c-.2.18-.3.08-.53-.05s-.54-.56-.84-.84-.72-.59-1-.91a3.66,3.66,0,0,0-1.41-.66,16.33,16.33,0,0,1-1.6-.43c-.37-.16-.6-.45-1-.48s-.56.15-.84.48a.84.84,0,0,1-1.07,0,6.41,6.41,0,0,0-1-.68A2.8,2.8,0,0,0,88,49.31c-.42,0-1,.36-.74.81a2,2,0,0,0,.76.7c.46.24,1,.4,1.44.64a1.18,1.18,0,0,1,.41.29c.14.15.21.38.38.48.37.21.69.34,1,.08a1.69,1.69,0,0,1,1.38-.39c.35.08.41.48.49.78A4.28,4.28,0,0,1,93.29,54a1.61,1.61,0,0,1,0,.44c-.07.18-.31.26-.47.33-.4.18-.84.44-.69.94a5.17,5.17,0,0,1,.23.59,2.37,2.37,0,0,0,.15.69c.18.38.31,1,.76,1.08a2.67,2.67,0,0,0,2.11-.41c.14.32-.06.71,0,1s.51,0,.72-.09.37-.35.53-.42.3,0,.47-.1.24-.48.46-.64.29-.07.48-.08a.84.84,0,0,0,.67-.7,8.79,8.79,0,0,1,.28-1.6,7.88,7.88,0,0,0,.78-1.76,3.22,3.22,0,0,1,.51-1.15,6.79,6.79,0,0,0,.69-1.2c.07-.19.14-.5.32-.62a2.79,2.79,0,0,1,.58-.18c.71-.26,1.36.52,1.94,1A7.2,7.2,0,0,1,105.11,53a9.55,9.55,0,0,0,1.42,1.63,17.52,17.52,0,0,1,2,2.24,6,6,0,0,1,1,1.42A5.2,5.2,0,0,1,109.71,58.91Zm-37-24.2a6,6,0,0,1,0-.85,1,1,0,0,0-.22-.77c-.06-.05,0-.06-.09-.09a.59.59,0,0,0-.23,0,2,2,0,0,0-.35.09c-.18.07-1.18.26-.78.61.14.12.47.06.64.17a2.21,2.21,0,0,1,.52.39c.09.17,0,.45,0,.64s.26.69.53.33C72.91,35.31,72.76,34.85,72.75,34.71Zm.91-3.79c-.09-.06-.41-.27-.53-.14s.07.37.08.45A.71.71,0,0,1,73,32a.28.28,0,0,0-.1.37c0,.11.16.36.3.36s.36-.27.44-.39a2.85,2.85,0,0,0,.4-.58A1.2,1.2,0,0,0,73.66,30.92Zm-8.33,2.26a.61.61,0,0,0,.06.4,2.17,2.17,0,0,0,.69.45c.2.11.65.31.69,0a.52.52,0,0,0-.28-.61c-.13-.06-.14-.14-.24-.24s-.32-.24-.46-.19C65.43,33,65.35,33,65.33,33.18ZM71.58,31a.83.83,0,0,0,.6-.13.49.49,0,0,0,0-.43c-.08-.23-.32-.3-.52-.39a1.52,1.52,0,0,1-.51-.25c-.16-.15,0-.41,0-.58a2.32,2.32,0,0,1,.34-.59,7.56,7.56,0,0,0,.6-1c.11-.21.25-.41.34-.63s.29-.48.26-.69a.75.75,0,0,0,0-.7c-.17-.26-.4-.5-.59-.77s-.35-.44-.51-.67-.15-.3-.23-.44-.46-.59-.77-.49c-.13,0-.22.22-.29.33a2.78,2.78,0,0,0-.22.42c0,.12-.09.28-.22.33a.53.53,0,0,1-.35,0c-.11-.07-.16-.26-.23-.37a.75.75,0,0,0-.53-.24,2.21,2.21,0,0,0-.37,0,1.36,1.36,0,0,1-.74-.18.91.91,0,0,1-.37-.3.63.63,0,0,0-.22-.29.8.8,0,0,0-.53,0,1.3,1.3,0,0,0-.41.2,7.36,7.36,0,0,1-.84.43.93.93,0,0,1-.44,0c-.32,0-.52-.3-.71-.53a6,6,0,0,1-.54-1,1.6,1.6,0,0,0-.29-.44c-.12-.14-.19-.25-.38-.16s-.24.26-.39.34a3.46,3.46,0,0,1-1.8.28.86.86,0,0,0-.76.39,3.16,3.16,0,0,0-.12.64.51.51,0,0,1-.41.42,1.38,1.38,0,0,1-.67,0,3.45,3.45,0,0,1-.91-.48c-.25-.18-.56-.34-.8-.55a5.33,5.33,0,0,0-1-.67,3.83,3.83,0,0,0-.61-.3c-.19-.06-.43.12-.55.26s-.1.33-.1.51a5.83,5.83,0,0,0,.06.73.57.57,0,0,0,0,.13s.07.08.09.15a2.09,2.09,0,0,1,0,.36,5.8,5.8,0,0,0,.2.92.82.82,0,0,0,.1.26c.09.11.27.19.34.31a4.74,4.74,0,0,1,1.56,1c.27.25.45.59.73.84a1.13,1.13,0,0,0,.74.41.88.88,0,0,0,.72-.5c.09-.16.12-.57.32-.64.37-.13.43.54.53.72s.22.13.36,0a.46.46,0,0,0,.22-.44.89.89,0,0,0-.07-.36c-.09-.17-.29-.33-.24-.55.11-.42.66-.12.92-.05a2.62,2.62,0,0,1,.56.18.88.88,0,0,1,.37.58.74.74,0,0,1,0,.53c-.09.19-.28.28-.41.43a1,1,0,0,0-.26,1.11.57.57,0,0,0,.2.26,6.18,6.18,0,0,0,.82.55l.31.14,0,.05.09,0,.48.08a7.31,7.31,0,0,1,1.11.39,1.75,1.75,0,0,0,1-.05,1.25,1.25,0,0,1,1.33.75c.12.23.15.48.25.71s.15.55.26.81a.72.72,0,0,0,.56.48.94.94,0,0,0,.62,0c.23-.11.19-.35.12-.55a4,4,0,0,1-.26-.76c-.06-.4.09-1.09.58-1.14.22,0,.54,0,.65.22a.61.61,0,0,1-.1.52c-.11.19-.28.25-.28.49s.12.41.39.35.33-.27.45-.42a1.85,1.85,0,0,1,.28-.28c.07-.05.15-.09.21-.14s.09-.13.16-.12S71.37,31,71.58,31ZM60.25,18c-.54,0-1.07.1-1.24-.53a.63.63,0,0,0-.34-.49c-.28-.13-.77.05-1-.25a.79.79,0,0,1,0-.62c.1-.23.22-.23.45-.16a5,5,0,0,0,.49.2A1.36,1.36,0,0,0,59.3,16c.43-.13.4-1,.11-1.28s-.29,0-.41.24-.21.41-.51.39c-.48,0-.61-.59-.86-.92s-.73.11-1.11.25c-.19.07-.29.08-.26.33s.21.33.42.47.35.32.1.47-.58-.05-.71-.21a2.66,2.66,0,0,1-.39-.67c-.06-.17-.07-.5-.2-.65s-.38-.09-.51-.37c-.06-.12-.06-.38-.18-.45-.35-.21-.87.21-1.14.36s-.78.46-1,0a2.48,2.48,0,0,1-.1-1.12c0-.34-.07-.73.25-.94s.45,0,.65-.14.09,0,.12-.16a1.18,1.18,0,0,0,0-.26c-.08-.38-.31-.71-.42-1.07-.06-.18-.1-.37-.28-.47a2.05,2.05,0,0,0-.65-.15,5.3,5.3,0,0,0-1.11-.21c0,.26.26.66.4.85s.59.53.55,1a4.8,4.8,0,0,1-.09.75c-.06.23-.09.5-.16.73a2.69,2.69,0,0,0-.23,1c-.11.34.13.74-.12,1s-.75.1-1,.55c-.14.28-.11.69-.41.85s-.7,0-.57.45.8.48,1.15.66a1.87,1.87,0,0,1,1.11,1.16,1,1,0,0,0,.93.71,1.37,1.37,0,0,1,.57,0c.19.09.15.19.17.37s.06.39.23.46.28-.05.4,0,.17.37.22.52c.14.36.26.39.67.36.31-.24,0-.63-.07-.89s.08-.34.08-.51a.54.54,0,0,1,.19-.45c.47-.34,1.25.05,1.58.39.16.17.45.31.56.52s0,.27,0,.42.17.16.31.31-.24,1.45.57,1c.22-.12.41-.48.65-.36a2.15,2.15,0,0,1,.51.53c.24-.28.65-.25.95-.45a1.45,1.45,0,0,0,.48-.78,2.94,2.94,0,0,1,.32-1,1.72,1.72,0,0,0,.31-1,.71.71,0,0,0-.5-.77A2,2,0,0,0,60.25,18Zm-.38-7.27a1.33,1.33,0,0,0,.19.62c.12.19.33.31.43.51.21.39-.15.92.23,1.24.14.12.34.19.44.34s.06.38.12.56c.14.37.6.49.74.85s-.06,1,.32,1.26a1.4,1.4,0,0,0,.67.15c.22,0,.28.13.37.32.19.4.25.81.65,1s.79.25,1,0c.47-.79-.59-1.07-1-1.54-.52-.63-1-1.3-1.43-2-.31-.45-.56-.94-.85-1.4a4.74,4.74,0,0,1-.42-1,11.12,11.12,0,0,1-.46-1.07c-.07-.22-.09-.47-.18-.68a1.12,1.12,0,0,0-.36-.42,1.28,1.28,0,0,0-.9-.19h-.75c-.15,0-.35,0-.41.16s.4.41.6.4a4.9,4.9,0,0,1,.54,0,3.55,3.55,0,0,0,.47.09C59.92,10.25,59.86,10.49,59.87,10.68ZM56.67,8a5.18,5.18,0,0,0-.41-.4,6.54,6.54,0,0,1-.63-.86c-.11-.18-.3-.41-.54-.38a.4.4,0,0,0-.35.55,2.74,2.74,0,0,0,.66.82,3.72,3.72,0,0,1,.53.52c.19.28.32.59.49.89s.5.67.86.41c.17-.12,0-.46,0-.61a2.06,2.06,0,0,1-.17-.33c-.05-.15-.23-.33-.24-.48C56.76,8.2,56.75,8.1,56.67,8Zm-7,5.17a.77.77,0,0,0,.3.51c.18.18.15.33.26.57s.26.4.49.35c.19-.38.46-.66.3-1.11-.09-.25-.53-.8-.83-.75C49.68,12.71,49.61,12.9,49.64,13.18ZM51,11.31a5.11,5.11,0,0,1-.74-.37.56.56,0,0,0-.66-.13c-.28.11-.44.17-.66-.09s-.36-.5-.59-.74c-.39-.42-.24-.88-.27-1.4a3.78,3.78,0,0,0-.23-.86c-.14-.47-.21-1-.39-1.43-.11-.28-.28-.54-.38-.82a3.15,3.15,0,0,0-.33-.78A1.83,1.83,0,0,0,46,4.17a1.47,1.47,0,0,1-.49-.23c-.07-.06-.12-.14-.19-.19a4.87,4.87,0,0,0-.84-.55c-.2-.09-.41-.06-.6-.18-.45-.29-.94-.91-1.56-.62-.2.09-.32.54-.49.57s-.53-.53-.77-.62a1.08,1.08,0,0,0-.88,0c-.21.15-.14.34-.28.51A.82.82,0,0,1,38.86,3c-.21-.1-.28,0-.5,0a1.8,1.8,0,0,1-.63-.21c-.24-.12-.27-.17-.55-.08a4.32,4.32,0,0,0-.68.13c-.27.16-.36.56-.69.68s-.44,0-.62.11c-.51.39.24.5.44.69s.24.33.52.24.33-.21.51-.26a1.87,1.87,0,0,1,1.19,0c.23.12.29.42.49.59A2,2,0,0,0,38.8,5c.38.18.86.74.65,1.17s-.85.06-1.13.45a1.73,1.73,0,0,1,.41,1.07c0,.17,0,.44.16.51s.39,0,.5-.07.7-.23.79-.4-.1-.77-.07-1.07a.71.71,0,0,1,.44-.51c.43-.19.73.21,1,.51a3.41,3.41,0,0,1,.82,1.47.47.47,0,0,1-.06.37c-.11.11-.43.08-.5.24-.2.49,1.31,1.12,1.66,1.23a3.79,3.79,0,0,0,1.89-.06,2.15,2.15,0,0,1,1.57.46,3,3,0,0,1,.72.56,3.48,3.48,0,0,1,.58.57c.16.23.23.47.54.51a6,6,0,0,0,.85-.07c.35,0,.57.28.89.36s.41.09.57-.07.22-.3.1-.38C51.07,11.56,51.18,11.42,51,11.31ZM42.18.17c-.19.06-.34,0-.46.19a1.14,1.14,0,0,1-.12.22c-.06.07-.14.09-.2.15a.54.54,0,0,0-.1.43.63.63,0,0,0,.3.49c.15.07.34,0,.48-.1.35-.15.79-.13.84-.6,0-.18.17-.3.16-.46S43,0,42.86,0A1,1,0,0,0,42.18.17Zm7.9,9.88a1.89,1.89,0,0,1-.47-.28,2.26,2.26,0,0,1-.56-1.11c0-.15-.06-.25-.26-.14s0,.34.09.49,0,.54.08.75a1.19,1.19,0,0,0,.45.35,1.45,1.45,0,0,0,.75.24C50.19,10.19,50.2,10.13,50.08,10.05ZM64.41,21.17c.31.13.41.73.77.6s.34-.78.13-1-.68-.08-1-.23c-.21-.08-.22-.22-.45-.22s-.5.32-.63.56C63.34,21.14,64.18,21.07,64.41,21.17Zm-2.76-1.39c-.21-.05-.09.5-.17.68a3.62,3.62,0,0,1-.44.64c-.06.09-.16.19-.1.29s.2.12.26.09,0-.14.14-.2.17-.05.25-.1.21-.4.22-.63S61.85,19.83,61.65,19.78ZM74.46,38.69c.2.31,1.31.42,1.33,0s-.38-.38-.6-.57-.12-.44-.27-.52a.8.8,0,0,0-.46,0A1.39,1.39,0,0,0,74.46,38.69ZM63.31,18.85c-.25.22.08.71.41.47s0-.64-.34-.6C63.35,18.76,63.35,18.82,63.31,18.85ZM33.44,114.14c.32.28.71,1.06,1.08,1.17s.62-.27.59-.65a8.36,8.36,0,0,0-.45-1.3c-.09-.38-.07-1-.34-1.26-.63-.69-1.14.27-1.8.05-.39-.12-.43-.66-.51-1-.12-.59-.36-.64-.79-1a1.33,1.33,0,0,1-.44-1c0-.56.27-.52.71-.75,1.3-.67-.73-.88-.62-1.7.06-.4.72-.55.24-.92a.62.62,0,0,0-.95.11,2.06,2.06,0,0,0-.1,1.08c.06.46.3.59.46,1s-.18.78-.23,1.23.19.7.37,1.1-.09.86.26,1.3c.19.24.83.54.68.86a5.36,5.36,0,0,1-1.38-1.39c-.09-.14-.07-.38-.19-.49s-.43-.13-.61-.23c-.35-.19-.54-.52-1-.59-.74-.13-1.17.42-1.88,0a2.83,2.83,0,0,0-.84-.45,7.9,7.9,0,0,0-1.09-.46,10,10,0,0,0-1.43.09c-.34,0-1-.07-1.19.3.43.29.95.07,1.42.15a6.48,6.48,0,0,0,1,.23h.81a1.54,1.54,0,0,1,1,.38,10.14,10.14,0,0,0,1.35.44,2.63,2.63,0,0,1,.75.49c.47.36,1,.33,1.52.6.72.41.85,1.36,1.33,2A2.42,2.42,0,0,0,33.44,114.14Zm-6.62-10c.38.05.28-.23.48-.4a.92.92,0,0,1,.55-.08c.31,0,1.09.09,1.24-.3s-.78-.43-1-.58-.31-.3-.55-.35-.45.07-.66,0c-.59-.19-.77-.56-1,.2a1.8,1.8,0,0,1-1.07,1,1.87,1.87,0,0,1-.67.08,5.62,5.62,0,0,0-.79.18c-.3.08-.7.15-.3.5a1.68,1.68,0,0,0,.93.26,2.78,2.78,0,0,0,1.39-.25C25.83,104.2,26.58,103.92,26.82,104.1Zm-.95-2.47a1.67,1.67,0,0,0,0-1c-.14-.25-.48-.44-.68-.67s-.23-.38-.4-.34-.09.27-.06.39c.11.35.43.47.43.86a.87.87,0,0,0,.05.43A.94.94,0,0,0,25.87,101.63Zm3.83,4c0-.34-.38-.75-.59-1a.33.33,0,0,0-.35-.16c-.26,0-.5,0-.76,0-.52,0-.2.41.14.45.17,0,.28,0,.44.07s.21.18.32.24a2.88,2.88,0,0,1,.5.24C29.62,105.6,29.65,105.68,29.7,105.58Zm-10.1,1.15c-.26,0-.69-.1-.64.29s.27.35.45.5a4.37,4.37,0,0,1,.49.69c.42,0,.57-.23.72-.57s.36-.82.05-1.07A3.79,3.79,0,0,1,19.6,106.73Zm-2-.08c-.24,0-.67-.26-.73.07s.2.5.43.64a.48.48,0,0,0,.46.07,2.78,2.78,0,0,1,.5-.11.51.51,0,0,0,.37-.23.42.42,0,0,0-.06-.43A7.87,7.87,0,0,0,17.59,106.65Zm-2.21.18a1.91,1.91,0,0,1-.48,0c-.23.35.46.77.75.67a.59.59,0,0,0,.4-.45c0-.12,0-.52-.15-.53A2.51,2.51,0,0,1,15.38,106.83Zm1.73-6.71a2,2,0,0,0-.41-.13c-.28,0-.39.1-.36.38a.75.75,0,0,0,.13.35.82.82,0,0,1,.07.28,1.69,1.69,0,0,0,.24.66,2.45,2.45,0,0,0,.39.66.61.61,0,0,0,.57,0,1.79,1.79,0,0,0,.26-.71,5.31,5.31,0,0,1,.3-.64,1,1,0,0,0-.1-.8c-.07-.15-.09-.24-.28-.21a.54.54,0,0,0-.35.26A4.53,4.53,0,0,0,17.11,100.12Zm.13-4.42c-.23.12,0,.57.12.7s.34.19.42.36a2.25,2.25,0,0,1,.07.58c0,.23.27.69.51.4a1.31,1.31,0,0,0,.26-.62c.06-.33.09-.67.12-1a1.26,1.26,0,0,0,0-.61c-.1-.19-.32-.42-.56-.33s0,.53-.25.6S17.39,95.62,17.24,95.7ZM11.18,104c.59-.24.31-1.1-.06-1.4a5.48,5.48,0,0,0-1-.53c-.32-.16-.6-.38-.91-.57a2.91,2.91,0,0,0-1-.43.84.84,0,0,1-.55-.31,1.85,1.85,0,0,0-.49-.44,4.3,4.3,0,0,1-.75-.36,6.86,6.86,0,0,1-1-1.39A2.42,2.42,0,0,0,4.57,98c-.34-.16-.66,0-1,0A12.68,12.68,0,0,1,2.17,98c-.34,0-.44-.13-.22-.42a1.38,1.38,0,0,0,.41-.72c0-.86-1.11-.54-1.53-.26a1.12,1.12,0,0,0-.37.54,1.45,1.45,0,0,1-.35.63c-.29.35,0,.73.38.89s1,.51,1.48.71a3.75,3.75,0,0,0,1.38.09,1.2,1.2,0,0,1,.59.12,1,1,0,0,0,.61.15c.24,0,.3-.14.49-.24s.38,0,.58.12a4.48,4.48,0,0,0,1.11.57,1.15,1.15,0,0,1,.81.76c.09.4,0,.85.29,1.18s.76.38,1.06.61a2.44,2.44,0,0,1,.49.47c.26.34.8.46,1,.77A3.8,3.8,0,0,0,11.18,104Zm2.38,0c0-.28-.47-.23-.65-.12a.8.8,0,0,0-.32.31.39.39,0,0,1-.19.19,4.11,4.11,0,0,1-.6.17c-.12,0-.19,0-.24.16a1.22,1.22,0,0,0-.13.67.71.71,0,0,0,.13.31c.08.11.15.25.22.37a.76.76,0,0,0,.31.35.84.84,0,0,0,.54.1c.28,0,.46-.2.35-.48a1.44,1.44,0,0,0-.23-.32.84.84,0,0,1-.07-.52c0-.34.31-.46.58-.59a.53.53,0,0,0,.3-.27C13.63,104.14,13.59,103.94,13.56,104Zm25.06-7.48A4.73,4.73,0,0,0,38.17,98a12.25,12.25,0,0,1-.53,1.75c1.14.17,1-.3,1.12-1.15s.33-1.13,0-1.9m-3,3.84c-.16,0-.29.31-.38.44a.91.91,0,0,1-.94.43c-.14,0-.32-.13-.46,0s-.16.52,0,.6.4-.07.49-.07a2.42,2.42,0,0,0,.47,0,1.85,1.85,0,0,0,.82-.4c.22-.16.63-.53.65-.74S36,100.45,35.78,100.5ZM34.58,103a1.52,1.52,0,0,0-.42.51c-.08.2,0,.4.21.42s.09-.21.23-.35.34,0,.39-.27S34.68,102.92,34.58,103Zm-1.68,1a.22.22,0,0,0,.05-.38h-.17a.59.59,0,0,0-.27,0c-.25.06-.21.51-.12.53A1.52,1.52,0,0,0,32.9,104Zm12.57.31a3.79,3.79,0,0,0-1,2.39c.11,1.09.77,2.73,1.07,2.65s-.34-3.43.15-4.68C45.7,104.55,45.74,104.27,45.47,104.31Z"/></g></g></g></svg>