<svg xmlns="http://www.w3.org/2000/svg" viewBox="0 0 110.06 48.38"><defs><style>.cls-1{fill:#455a64;}</style></defs><g id="Capa_2" data-name="Capa 2"><g id="Objects"><g id="HL"><path class="cls-1" d="M110.06,38.64c0,.08-.08.15-.11.19a1.38,1.38,0,0,1-.36.43c-.28.2-.61.11-1,.13s-.53.24-.72.58-.45.79-.63,1.21a3.2,3.2,0,0,0-.41,2.29c.11.31.42.37.39.75s-.24.51-.54.71a8.74,8.74,0,0,1-1,.48,3.13,3.13,0,0,0-.82.4,2,2,0,0,0-.42.78c-.08.24-.17.62-.42.75-.48.24-1.24-.22-1.63-.46a3.33,3.33,0,0,0-1.46-.77,3,3,0,0,1-.68,0,3.45,3.45,0,0,1-1-.6c-.19-.16-.33-.38-.52-.54s-.52-.42-.74-.66-.68-.82-1.1-.88-.73.47-1.21.4-.71-.1-.62.45.39.58.75.84,1.16,1.43.57,2c-.4.37-1.26.09-1.69-.08s-.41-.37-.59-.6-.48-.28-.85-.28a3,3,0,0,1-1.81-.73c-.29-.21-.56-.46-.85-.66a5,5,0,0,1-1.08-.86,2.75,2.75,0,0,0-.72-.76c-.35-.22-.71,0-1,.22a10.33,10.33,0,0,0-.87.6c-.14.1-.51.6-.66.52a.69.69,0,0,1-.51,0c-.4-.11-.66-.58-1.1-.53a2.5,2.5,0,0,0-1,.44,3,3,0,0,0-.75.7,4.28,4.28,0,0,0-.7.84A1.65,1.65,0,0,0,82.35,47a.68.68,0,0,1-.11.81,1.06,1.06,0,0,1-.76.51,1.14,1.14,0,0,1-.77-.2c-.14-.16-.14-.75-.35-.81s-.21.18-.28.29a1.92,1.92,0,0,1-.59.42,1,1,0,0,1-.72.07,1.18,1.18,0,0,1-.67-.41,3,3,0,0,1-.43-.73c-.18-.4-.3-.44-.71-.53s-.32-.42-.54-.66a.57.57,0,0,0-.91,0,7.41,7.41,0,0,0-.39,1c-.15.32-.25.38-.54.37h0a.35.35,0,0,1-.3,0c-.34-.18-.57-1-.78-1.19a4.3,4.3,0,0,1-.64-1c-.26-.48-1-.7-1.12-1.12s.31-.82.58-1.16a2.92,2.92,0,0,0,.76-2.13c-.06-1-.94-.84-1.77-.71s-2.07.7-3,.3c-.53-.22-.55-.79-1.21-.63a7,7,0,0,0-1.33.75c-1,.51-.88,1.32-1.53,2.12-.88,1.08-1.56-.38-2.44-.5-1.14-.15-.35,1.08-.31,1.64s-.43,2.16-1.14,2.15-1.26.52-1.94.66a21.67,21.67,0,0,1-3.22-.06,4.61,4.61,0,0,0-1.57.25c-.52.22-1,.53-1.49.72-1.2.44-2.23,1.45-3.55,1.19a2.58,2.58,0,0,1-1.72-1.08,9.22,9.22,0,0,0-.5-.81c-.21-.23-.54-.21-.75-.36s-.31-.37-.5-.53-.71-.23-1-.45c-.68-.44-.07-.56,0-1.15.37-1.84-3.51.2-3.16-1.6.07-.31.29-.48.35-.75s.1-.23-.17-.49c-.47-.46-1.09-.71-1.56-1.19s-2.91-2.68-2.82-.85c0,.81,1.46,2.08.34,2.66a1.86,1.86,0,0,1-.82.16c-.16,0-.29.13-.43.4s0,.58-.14.71c-.26.31-.75.12-1,.35-.43.43.31,1.17.33,1.68s0,1.2-.06,1.74c-.09,1.88-1.42.56-2.24.29A6.23,6.23,0,0,0,31,47a3.39,3.39,0,0,1-.85-.06c-.29-.07-.5-.26-.75-.73s-.36-1.17-.9-1.6a5.26,5.26,0,0,1-1.05-1.1c-.85-1.16-2.14-.91-3.43-1A3,3,0,0,1,22.81,42c-.44-.25-.83,0-1.3-.22A15.74,15.74,0,0,1,20,40.87c-.53-.29-.45-.43-.48-1-.08-1.49-1.13-.89-2.19-1a17.59,17.59,0,0,1-3.43-1.07,8.21,8.21,0,0,1-1.26-.7c-.48-.29-.93-.53-1.41-.81a7.76,7.76,0,0,1-1.07.11c-.22-.28-1-.39-1.32-.73-.82-.82,0-2.85-1-3.35-.63-.32-.35.46-.6.8-.39.52-1.27.44-1.81.31A2.4,2.4,0,0,1,4.75,33,4,4,0,0,0,4,32.6c-.56-.23-.7-.18-1.07-.7s-.68-1-1.23-.48c-.25.24-.08.45-.45.49a1.27,1.27,0,0,1-.56-.24A.66.66,0,0,1,.42,31a1.12,1.12,0,0,1,.37-.54c.57-.52.71-.58.26-1.35C.81,28.69.2,28.37,0,28a8.05,8.05,0,0,1,.12-1.8A1.83,1.83,0,0,1,.68,24.7a10.82,10.82,0,0,0,.75-1.33,3.12,3.12,0,0,0,.17-2.76c-.44-1.23-.66-1.86,0-3.08.28-.51.33-.75,1-.79.78,0,.84.35,1.4.6.79.34,2-.23,2.72-.54.42-.19.83-.38,1.23-.6s.88-.76,1.46-.84,1.39.39,1.63-.4c.07-.25-.14-.56-.06-.77s.31-.27.41-.39a.86.86,0,0,0,.3-.72c0-.2-.12-.44-.06-.66.14-.5.63-.6,1.07-.86a14.06,14.06,0,0,0,1.65-.81c.35-.27.48-.6.88-.84s1-.52,1.39-.81.57-.66.9-1.07a2.6,2.6,0,0,1,1.15-.64,11.82,11.82,0,0,0,1.33-.84c.37-.25.79-.38.82-.88s-.51-.81-.48-1.3.54-.35,1-.79c.29-.27.26-.64.29-1,.07-.71.23-1.36.31-2A3.43,3.43,0,0,0,22,0c1.63.43,2.79,1.78,4.5,2a4.52,4.52,0,0,1,2,.77c.59.39,1.23.31,1.77.81.26.22.5.47.76.69s.64.36.84.62c.37.45.25,1.4.36,2,.07.33.26.58.33.9s-.07.65.12.88c.73.84.87-.89,1.23-1.14s1.21,0,1.72.1a2.06,2.06,0,0,1,1.05.48,2.17,2.17,0,0,1,.61.87c-.06.14-.2.51-.05.61s.37-.24.47-.34c.66-.59.73.1.75.72.62-.23.18-1,.67-1.21a3.66,3.66,0,0,1,.81-.1A5.8,5.8,0,0,1,41,8.51c.44,0,.7.08.84-.28s-.06-.32.14-.49a1.45,1.45,0,0,1,.42-.12,5,5,0,0,1,1.8-.28c.28,0,.85.08,1,.33s-.06.42,0,.58.63.49.85.34.12-.42.11-.63c0-.63.16-.82.8-1.15s1.13-.13,1.61-.41c.33-.19.28-.48.75-.45a1.48,1.48,0,0,1,.73.31c.48.36.67.92,1.35.67a4.33,4.33,0,0,1,1.51-.54,5.28,5.28,0,0,1,1.67.24,3.43,3.43,0,0,1,2.14,2c.31.92,1.65.45,2.47.5.63,0,1,.06,1.36.58a5.17,5.17,0,0,1,.72,1.19c.12.28.1.61.23.89s.37.37.44.63-.13.9,0,1.16c-.63.46-.63.83-.62,1.53s-.14.51-.61.9a3.1,3.1,0,0,0-.61.79,2.72,2.72,0,0,0-.23,1.35c-.06.6-.65.66-1.09,1.07s-.58.88-1,1-1,0-1-.45c0-.3.21-.7,0-1a1.89,1.89,0,0,0-1-.63c-.3-.06-1.29,0-1.44.28s.57.54.67.94c-.49.21-1.13-.11-1.58.32a.79.79,0,0,0-.24.83c.15.33.63.3.9.57s.26.93.84,1.12a1.71,1.71,0,0,1,.15-.9,3,3,0,0,1,.79-.34c.34-.1.71-.1,1.06-.21a5.81,5.81,0,0,1,1.11-.27,5.37,5.37,0,0,1,2.38.37A17.23,17.23,0,0,1,62.15,22a1.32,1.32,0,0,1,.67.58c.14.29.06.65.27.93s.63.28,1,.47c.54.31.15.36-.09.81s-.09.65-.66.74a1.34,1.34,0,0,1-.84-.16,4.73,4.73,0,0,1-.76-.53,2.44,2.44,0,0,0-.9-.44c-.74-.26-.26-.91-.58-1.48a.87.87,0,0,0-1-.28c-.24.18,0,.43-.1.72-.5-.15-.75,0-1.26.05s-.89-.16-1.44.13-.77.2-1.43.18a4.79,4.79,0,0,1-.93,0,3.53,3.53,0,0,1-.75-.38.62.62,0,0,0-1,.48c0,.09.11.39.11.53a2.53,2.53,0,0,1-.26,1.16,3.57,3.57,0,0,0-.55,1c0,.24.05.51,0,.76s-.2.48-.18.78c0,.53.45.62.75,1s.18,1,.68,1.31.74.27,1.09.49c.52.32.77.71,1.41.48s.64-.74,1.06-1.15c.09-.09.2-.07.28-.17s.12-.3.2-.43a2.46,2.46,0,0,1,.41-.44,4.19,4.19,0,0,0,.61-1c.29-.56.48-.59,1-.74s.28-.62.71-.77.73.2,1,.5a3.64,3.64,0,0,1,.94,2,1.88,1.88,0,0,0-.67,0,.81.81,0,0,0-.08.57c.61.12,2-.66,1.79.62,0,.29-.47.58-.22.87a2.38,2.38,0,0,0,1.54.24c0-.33-.23-.64-.16-1,.15-.6.37-.1.66.12a4.07,4.07,0,0,0,.82.31c.27.12.51.32.78.45a1.44,1.44,0,0,0,1.57-.15c.23-.25.18-.55.28-.83.14-.43.09-.35.45-.16s.85.78,1.34.91c.36-.83,0-1.15-.82-1.31-.43-.08-.48-.19-.43-.62s.11-.54.47-.58a7.85,7.85,0,0,1,1.26.11c.37,0,.75,0,1.11,0a12.33,12.33,0,0,1,2.18.32c.3.07.61.11.9.18s.59.37.92.53c-.07.42-.82.57-1.17.65-.24.44.27.47.48.71a.93.93,0,0,1,.2.63c.49.26.39-.5.54-.69.89.54.45,2,2,1.53.41-.13.77-.33,1.19-.43s.78,0,1.12-.13c-.06-.85-1.48-.67-2-.93-.31-.16-1.65-1.26-1.29-1.61s1.34.15,1.78.05.64-.29,1-.36a7.39,7.39,0,0,1,1,0c.8,0,1.22-.46,2-.15.44.16.82.44,1.26.61s.72.13,1.07.26.41.27.06.48-.57,0-.22.34.55.17,1,.11.39.12.6.49c.33.62.38.19.64-.14a.86.86,0,0,1,.72-.38,1,1,0,0,1,.89.45c.15.21.16.8.56.62a.6.6,0,0,1,.49-.62c.47-.08.42.32.77.46s.74,0,.68-.35-.43-.32-.52-.55c.68-.08,1.47.18,2-.26.29-.22.48-.78.89-.49.12.08.12.31.21.38.29.25.11.09.4,0a1.47,1.47,0,0,1,.9-.06,4.94,4.94,0,0,0,.95.08c.35,0,.92-.1,1.23.11s.28.61.59.87a1.89,1.89,0,0,0,2,.38c.34-.15.47-.34.89-.06a4.39,4.39,0,0,1,.64.82C102,34,103.71,34,105.31,34.1c.72,0,4-.36,3.51,1.22-.13.4-.45.25-.22.72a5.63,5.63,0,0,1,.45,1.05C109.21,37.69,109.75,38.12,110.06,38.64ZM65.35,25.07a4.15,4.15,0,0,1-1.06,1.07,1.91,1.91,0,0,1-1.33,0c-.2,0-.46,0-.54.15s0,.39,0,.52,0,.41.12.58a1.52,1.52,0,0,0,.87.4c.49.1,1,.29,1.52.44a2.07,2.07,0,0,1,.7.34,3,3,0,0,0,.6.46c.33.15,1.45.28,1.43-.28a1.78,1.78,0,0,0-.45-1.28,2.85,2.85,0,0,1-.51-.53c-.19-.26-.11-.39-.07-.67.07-.46-.12-.53-.52-.68a1.38,1.38,0,0,1-.63-.47C65.45,25,65.38,25,65.35,25.07Z"/></g></g></g></svg>