<svg xmlns="http://www.w3.org/2000/svg" viewBox="0 0 101.84 41.31"><defs><style>.cls-1{fill:#455a64;}</style></defs><g id="Capa_2" data-name="Capa 2"><g id="Objects"><g id="IJ"><path class="cls-1" d="M18.05,1.16c-.2.64-1,.46-1,1.26,0,1.42,1.81,1.43,2.77,1.63,1.3.28-.28,1.12-1,1.09s-.83-.08-1.15-.67-.44-1.25-.77-1.81c-.22-.37-.52-.49-.56-.94A3.4,3.4,0,0,1,16.79.09.91.91,0,0,1,18.05,1.16ZM12.26,13.9c-.94.57-.71,1.87-1.71,2.44-1.79,1-3,2.58-2.28,4.68a9.76,9.76,0,0,0,1.64,2.39,5.17,5.17,0,0,1,1,1.71c.1.46,0,1.14.29,1.55a8.07,8.07,0,0,0,.88.75,3.36,3.36,0,0,1,.7,1.32c.28.86.18,1.83,1.05,2.32.71.41,1.54,0,2,.86a1,1,0,0,1-1,1.58c-.13-.51.89-1.55-.15-1.55-.59,0-.58.4-.85.7a1.55,1.55,0,0,1-.91.45c-.46.06-.66-.08-.89.36-.11.2-.06.35-.23.54a1.85,1.85,0,0,1-1.36.49,4.53,4.53,0,0,1-2.82-.68,23,23,0,0,1-1.77-1.66,4.05,4.05,0,0,0-1.22-.59,3.19,3.19,0,0,1-1.14-1c-.19-.22-1.16-1.28-1.34-.55-.09.37.72,1.31.9,1.65a14.1,14.1,0,0,1,.4,1.45c.18.4.48.76.69,1.17s.21,1,.54,1.3a5.16,5.16,0,0,0,1.27.78,3.28,3.28,0,0,1,1.18.85c.34.48.52,1.05.86,1.52s.88.45,1.43.53a10.53,10.53,0,0,0,1.7.21,16.67,16.67,0,0,1,2.79.67c.59.09,1.2.06,1.78.17a2.62,2.62,0,0,1,1.42.77,3.55,3.55,0,0,0,2.31.12A14.65,14.65,0,0,0,21,40.9,16.3,16.3,0,0,0,22.9,40c.91-.37,1.86-.31,2.77-.67.48-.19.91-.39,1.39-.55s1-.2,1.41-.35C29.48,38.1,30,37,31.13,37a1.94,1.94,0,0,0,1.17-.23c.36-.2.71-.43,1.06-.63.71-.39,1.26-1.09,2-1.49.51-.27,2.33-.74,2.17-1.52.71,0,0-1-.23-1.2A2.31,2.31,0,0,1,36.17,30c-.05-1.4-1.92-.65-2.24-1.89-.12-.46.17-.81.22-1.23a3.86,3.86,0,0,1,0-.68c.08-.31.28-.26.39-.49.23-.45-.27-.57.26-.93s.81-.33.64-1c-.23-.95-1.06-2.23-2.19-2.12a.66.66,0,0,1-.23.29c-1-.28-.81-1.36-1.58-1.82-.32-.19-1.08-.05-1.26-.29-.05-.07,0-.36-.05-.46s-.28-.29-.45-.45-.24-.12-.3-.43a2.33,2.33,0,0,1,.12-.79,4.24,4.24,0,0,1,.59-1.16c.26-.45.39-.81.05-1.19a3.62,3.62,0,0,0-1.36-.81,3.44,3.44,0,0,1-1.18-.45c-.69-.56-.77-.44-1.58-.32a2.7,2.7,0,0,1-1.47-.31,11.2,11.2,0,0,1-1.37-.61,6.55,6.55,0,0,0-3.63-.79A12.15,12.15,0,0,1,16,11.57c-.17-.06-3.66-.89-2.87.36.28.45.51-.17.82-.18a2.92,2.92,0,0,1,1.33.62C14.45,13.09,13.18,13.35,12.26,13.9ZM37.57,25c.38-.51,1.75.05,1.49-1-.16-.66-.47-.19-.94-.37-.3-.11-.36-.57-.62-.65-.6-.19-.53.36-.53.74a1.18,1.18,0,0,1-.45,1.13c-.3.3-.62.49,0,.66.43.11.69-.22,1-.3M42.74,33c-.59-.61-1.15-.08-.73.57a1.75,1.75,0,0,0,1.18.75c.31,0,1,0,1.15-.26s0-.72-.36-.55c-.52-.15-1-.32-1.54-.51m6,1.13c.05-.74-2.21-1.55-2.52-.59S47.83,34.33,48.44,34.14Zm.78-.89c0,.46.91.46.79-.15s-.75-.57-.73,0m-8.71-7.75c.15.07.46,0,.59.06s.11.32.33.49.73.05.76.54c0,.65-.72.31-1.1.29-.34,1,.8,1.26,1.5.84s.15-.41.34-1.08c.12-.47.83-.47.89-.9C44,25,42.63,25,42.2,24.8a6,6,0,0,0-2.35-.32A1.24,1.24,0,0,0,40.57,25.38Zm27.22,5c.49-.11,1.48.42,1.32-.46-.06-.35-.36-.39-.55-.62s-.21-.41-.3-.51a1.42,1.42,0,0,0-1.48-.5c-.13.59.36.61.53,1,.25.61-.26.69-.76.66-.26,0-.69-.28-.92-.06s.08.43,0,.52c-.39.37-1-.35-1.45-.39a.35.35,0,0,0-.06.14,1.32,1.32,0,0,0-1.31-.33c-.71.14-.26.51-.69.73-1,.49-1.14-1.4-1.89-1.2a2.86,2.86,0,0,0,1,2.11c.3.27.41.05.46.51a.76.76,0,0,1-.29.69c-.33.32-1,.38-1,1a6.69,6.69,0,0,0,1.73-.05,5.33,5.33,0,0,0,.74-.22c.28-.07.57-.07.89-.13.71-.13.63-.53,1-1S66,32.11,66,31.57C66.87,31.67,67.11,30.58,67.79,30.42Zm3.07-.37c.23.24.53.31.75.55s.11.66.59.73c.7.09,1.34-1.64,2.08-1.93.33-.13.51,0,.86-.21s.18-.37.51-.5c.56-.21,1.06,0,.69-.85-.26-.6-.53-.75-.36-1.44.07-.28.44-.57.15-.93a.79.79,0,0,0-.94,0c-.46.34-.15,1.11-.43,1.63s-.6.38-1.25.41c0,.26,0,.55,0,.83-.25,0-.88-.17-1,0s-.07.89-.17,1.11a.52.52,0,0,0-.15-.07c-.11-.92-.93-1.21-1.75-1.19A1.93,1.93,0,0,0,70.86,30.05Zm-1.54-4.14a.77.77,0,0,0,1.38.44c.52-.65-.32-1.37-1-1.27A1.11,1.11,0,0,0,69.32,25.91Zm19.55,3.4c0,.49.42.42.8.51.85.22.59.62,1.11,1.21a6.36,6.36,0,0,1,.55.63c.29.42.15.4.71.45a6.37,6.37,0,0,0,1.8-.11,3.15,3.15,0,0,0,1.43-.85c.41-.32.85-.47,1.26-.82A14.12,14.12,0,0,0,99,28.16a2.13,2.13,0,0,1,1-1c.5-.25,1.31-.35,1.65-.83.47-.64,0-.84-.59-.85-.8,0-.88.31-1.55.36C97.94,26,98.66,27,98,28s-2,.4-3,.69.08,1-.46,1.46c-.36.29-1.56-.82-2-.92s-.91.28-1.34.05-.27-.46-.66-.59a3.85,3.85,0,0,0-1,0C89.24,29,88.84,28.8,88.87,29.31Zm-2.22-.06c.14-.72-.9-.35-1.24-.33a7.47,7.47,0,0,0-1.5.12.45.45,0,0,0-.39.5c0,.29-.07.62.22.73a.49.49,0,0,0,.64-.23.56.56,0,0,1,.53-.31C85.35,29.69,86.26,29.9,86.65,29.25ZM63.4,23c-.06-.29-.3-.21-.57-.21-.66,0-.68.29-.54.87a5,5,0,0,1,.15,1.11c0,.22,0,.42.2.45a.94.94,0,0,0,.7-.45,3.13,3.13,0,0,0,0-1.26C63.2,23.37,63.45,23.2,63.4,23Zm.66,1.59c-.19.52.11,2,.63,1a1.71,1.71,0,0,0,.32-.75.52.52,0,0,0-.72-.42m-7.35,7.07a1.19,1.19,0,0,0-.83-.36c-.43,0-.43.17-.64.48-.51.76-1.11.27-1.73-.08-.32-.18-.67-.4-.9,0a1.08,1.08,0,0,0,.15,1,3.77,3.77,0,0,0,2,.19c.45-.06.5-.33.9-.53S56.7,31.92,56.94,31.43Zm-5.22,1.46a1.37,1.37,0,0,1,.2-.13c0-.12,0-.37-.05-.47s-.3,0-.45-.08c-.39-.2,0-.75-.52-.88s-.48.35-.66.64-.43.26-.76.25c.42,0,.48.57.93.61A11.05,11.05,0,0,0,51.72,32.89ZM34.9,15.38a.45.45,0,0,0,0,.2c.42.15.21-.57.36-.73s.29-.06.4-.15a.51.51,0,0,0,.07-.71c-.22-.22-.79,0-1.1-.11s-.77-.39-1.15-.55c-.18-.07-.32,0-.43-.21s0-.4-.05-.55c-.07-.33-.26-1-.75-.65-.33.24-.25,1.27-.25,1.64s0,.8.55.83.95-.31,1.22.22S34.15,15.58,34.9,15.38ZM30.56,9.45c.51,0,1.67.39,1.58-.49,0-.47-.49-.42-.87-.42-.22,0-.65,0-.82.12S30.2,9.37,30.56,9.45ZM25.12,4.77c.29,0,1,.17,1.1-.23a.59.59,0,0,0-.39-.66,2.48,2.48,0,0,0-.61,0c-.21,0-.43,0-.64,0s-.41.08-.44.3a1.84,1.84,0,0,0,.17.66C24.53,5.07,24.86,4.78,25.12,4.77ZM.13,17.15c.14.19.32.2.41.4a2.09,2.09,0,0,1,0,.5A2.54,2.54,0,0,0,.5,19c.13.35.48.5.64.86s.16,1,.51,1.19a2,2,0,0,0,1,0c.82-.46-.69-1.78-.82-2.31s.15-1-.1-1.36a2.44,2.44,0,0,0-1-.69C.07,16.64-.17,16.75.13,17.15Z"/></g></g></g></svg>