<svg xmlns="http://www.w3.org/2000/svg" viewBox="0 0 592.66 202.05"><defs><style>.cls-1{fill:#dadee0;}</style></defs><g id="Capa_2" data-name="Capa 2"><g id="Capa_2-2" data-name="Capa 2"><path class="cls-1" d="M592.66,174.68a3.1,3.1,0,0,1-.4,1.38,1.26,1.26,0,0,1-.53.59c-.57.35-1.38.41-1.86.89a4.42,4.42,0,0,1-.86.47c-.24.14-.47.33-.72.47a2.1,2.1,0,0,0-1.12,1.53,8.61,8.61,0,0,1-.32,1.78,3.65,3.65,0,0,1-1.27,1.29,2.48,2.48,0,0,1-1.53.67c-.49,0-.8-.46-1.17-.74a1.41,1.41,0,0,0-.73-.34c-.32,0-.58.14-.87.14s-.48-.24-.74-.3a5.46,5.46,0,0,0-1,0h-.93a1.85,1.85,0,0,0-1.07.35,3.84,3.84,0,0,1-2.19.89h-.52c-.27,0-.51-.19-.76-.24a3.1,3.1,0,0,0-.68,0,3.75,3.75,0,0,0-1.33.49,3.51,3.51,0,0,1-1.41.16,3.72,3.72,0,0,0-1.62.31,2.12,2.12,0,0,1-1.65.31,5.66,5.66,0,0,0-1.37-.29,1.73,1.73,0,0,0-.79.1,6.07,6.07,0,0,1-.76.31,2.92,2.92,0,0,1-1.31.11c-.28-.06-.53-.18-.8-.24a3.35,3.35,0,0,0-1,0,7.24,7.24,0,0,0-1.39.17c-.06.19-.6.29-.78.36-.42.15-.54,0-.91-.12a1,1,0,0,0-.82.13c-.25.16-.32.37-.65.44a4.17,4.17,0,0,1-.94.05,2.54,2.54,0,0,0-1,.31,6.8,6.8,0,0,0-1.26.56c-.28.21-.52.48-.8.71s-.72.51-.88,1a4.35,4.35,0,0,1-.33.92c-.26-.14-1,.25-1.24.32s-.48.17-.73.22a5.92,5.92,0,0,1-1.83-.06c-.22,0-.62-.09-.8.06s-.14.43-.14.61c0,.52.23,1-.1,1.45-.15.21-.33.41-.47.6s-.19.38-.41.47c-.43.17-1,.12-1.29.52-.16.2-.17.31-.43.4s-.5,0-.75.11a1.93,1.93,0,0,1-.54.12.58.58,0,0,1-.34-.06c-.13-.11-.1-.35-.22-.45a.8.8,0,0,0-.52-.08c-.1.06-.12.23-.16.34a.67.67,0,0,1-.44.54,7.29,7.29,0,0,0-.7.28,1.91,1.91,0,0,1-.54.18c-.62.06-1.15.41-1.76.44a6.28,6.28,0,0,1-1,0,5,5,0,0,1-1-.05c-.79-.35-.16-1.46.36-1.66.25-.09.51-.07.73-.31s.15-.54.43-.72.8,0,1.12-.2a1.09,1.09,0,0,0,.27-1c-.54-.08-1.57.51-1.7-.41-.08-.51.24-.33.47-.62s.07-.59.3-.8c.49-.49,1.22-.15,1.57-.91,0-.1,0-.27.12-.38s.27-.08.41-.2c.31-.28.23-.48-.08-.69s-.58-.21-.72-.71a4,4,0,0,1,0-1.33c-.5-.2-1.35.81-1.29,1.27s-.34.7-.4,1,.18.52.12.89c-.53,0-.66-.21-1.07-.47s-.8-.41-1.08,0a.4.4,0,0,0-.32.13c0,.12-.13.33-.13.45a1,1,0,0,0,.62.88c.57.19.48-.21.68-.52.2.28,0,.75.1,1.09s.33.46-.1.72-.65.15-.72.69c0,.38.16.7.09,1.06a1.8,1.8,0,0,0-1.43.67c-.29.37-.38,1.18-1,.27-.11.35,0,.78-.32,1a2.49,2.49,0,0,1-.83.13,18.08,18.08,0,0,0-1.81.42c-1.13.31-2.29.81-3.49,1a13,13,0,0,1-2.42.19,2.09,2.09,0,0,1-.43-.11.56.56,0,0,1,0-.12c-.09-.26-.2-.52-.31-.79h0c.11.27.22.53.31.79,0,0-.09,0-.14.05a3.88,3.88,0,0,1-.9,0c-.37,0-.93.05-1.23-.23-.14-.11-.14-.25-.3-.35a1.14,1.14,0,0,0-.49-.16,1.21,1.21,0,0,0-1,.47c-.28.34-.32.53-.79.53h-1.23c-.78,0-1.6-.05-2.41-.07a11,11,0,0,1-1.76-.39,5.53,5.53,0,0,0-.91,0,1.9,1.9,0,0,1-.83-.17c-.72-.25-1.37-.62-2.07-.88a9.1,9.1,0,0,1-1.79-.9,8.09,8.09,0,0,0-3.76-1.63c-.51,0-.79.42-1.25.51s-.74-.21-1.07-.35a7.54,7.54,0,0,0-2.6-.18,2.28,2.28,0,0,1-1.06-.26c-.47-.23-.86,0-1.33,0a7,7,0,0,1-1.39-.26,2.8,2.8,0,0,0-1,0c-.23.07-.37.33-.58.42-.42.19-.88,0-1.3.25a2.48,2.48,0,0,1-1.23.42,1.71,1.71,0,0,1-1.07-.09,1.16,1.16,0,0,0-1-.05c-.81.21-1.51-.37-2.27-.44a10.94,10.94,0,0,1-1.72-.23,6.16,6.16,0,0,0-1-.33,1.47,1.47,0,0,1-.72-.14c-.32-.13-.48,0-.83-.09s-.81-.58-1.32-.46-1,.51-1.72.3a12.46,12.46,0,0,0-1.84-.63,4,4,0,0,0-.92,0c-.42.05-.63.19-1,.09-.58-.11-1.09.42-1.62.61s-1.28.16-1.72.53c0,.37-.3.25-.55.28-.42,0-.54.19-.89.42a1.84,1.84,0,0,1-1.88.14,3.41,3.41,0,0,0-1.71-.19,2.16,2.16,0,0,1-.68-.05,1.56,1.56,0,0,0-1.06.14c-.56.21-1.19.14-1.74.35a7.79,7.79,0,0,1-1.72.65,13,13,0,0,1-1.65,0,4.23,4.23,0,0,0-1.6.47,3.2,3.2,0,0,1-1.86.09c-.42-.11-.83-.25-1.27-.32s-.89.07-1.3,0-.93-.35-1.44-.37a2.72,2.72,0,0,0-1.21.16c-.49.24-1,.47-1.46.68a2.1,2.1,0,0,1-1.49.14,5.69,5.69,0,0,0-1.09-.05,6.44,6.44,0,0,0-1.32,0c-.42.14-.58.58-1.05.63a7.71,7.71,0,0,1-1.27,0c-.37-.05-.74-.07-1.14-.12l-.42-.07-1.95.44a8.52,8.52,0,0,1-1,.84c-.6.34-1.16,1-1.86,1.14-.46.09-1-.08-1.44,0a5.54,5.54,0,0,0-1,.46c-.51.24-1.05.68-1.65.45-.3-.14-.42-.42-.65-.63s-.68-.28-1-.44a4.35,4.35,0,0,1,.06-.6c0,.2-.06.41-.07.59l-.21.08a12.12,12.12,0,0,1-1.14.57,3.07,3.07,0,0,1-1.92,0,2.33,2.33,0,0,0-1-.17c-.31,0-.56.21-.88.12a1.66,1.66,0,0,1-.65-.45c-.37-.35-.47-.18-.91-.27-.25-.05-.4-.23-.64-.35a2.9,2.9,0,0,0-1-.26c-.26,0-.37.27-.54.41s-.6.11-.94.06-1.25-.08-1.38.41a.8.8,0,0,1-.58-.21,1.73,1.73,0,0,0-.85-.26,3.2,3.2,0,0,0-1.79.09c-.56.24-1,.61-1.62.83-.23.09-.61.15-.65.43s.14.3.32.32c.39,0,.87-.15,1.27-.15,0,.13.08.36,0,.48s-.58.19-.74.21a1,1,0,0,0-.62.19c-.24.18-.36.38-.64.49a2.68,2.68,0,0,1-1,.15,6.91,6.91,0,0,0-1,0c-.42.06-.78.32-1.23.22a4.58,4.58,0,0,0-1-.26,8.56,8.56,0,0,1-1-.23,3.25,3.25,0,0,0-1.32.09,7,7,0,0,0-1.21.79c-.64.37-1.46.21-2.14.44-.51.19-.74,0-1.26-.09-.34-.05-.41.12-.7.18a1.12,1.12,0,0,1-.51-.08c-.46-.13-1-.49-1.47-.28s-.66.53-1.15.57c-.14,0-.33,0-.46,0s-.25.42-.37.58-.55.2-.89.2a15.24,15.24,0,0,1-2.52-.23,2.66,2.66,0,0,1-1.73-.81,3.1,3.1,0,0,1-.18-.68c-.12-.34-.58-.51-.66-.86s.5-1.11.75-1.45a14.79,14.79,0,0,0,1-1.21c.18-.28.22-.44.57-.42s.54.13.75-.06.14-.28.26-.4a2.92,2.92,0,0,1,.28-.21,1,1,0,0,0,.41-.64c0-.29-.13-.35,0-.65a1.7,1.7,0,0,1,.57-.64,6,6,0,0,0,1.14-.93,5.08,5.08,0,0,0,.41-.51,1.21,1.21,0,0,0,.19-.83c0-.5.53-.93.79-1.35.15-.23.27-.47.42-.7s.29-.35.38-.51.16-.39.31-.44.42.1.6.08.49-.18.54-.5,0-.66-.15-.82-.57-.13-.81-.2c.05-.58.5-.44.93-.4s.77,0,1.15,0a2.24,2.24,0,0,0,1.49-.63,3.84,3.84,0,0,0,.64-.57,2.76,2.76,0,0,0,.37-.9c.28-.67.91-.77,1.39-1.2s1.52-.37,2-.93a4.93,4.93,0,0,1,1-1.23,4.19,4.19,0,0,0,.72-.39,3.72,3.72,0,0,0,.49-.81,2.91,2.91,0,0,1,1.45-1.15c.59-.24,1.18-.36,1.76-.56.35-.13.67-.32,1-.45s.75-.07.9-.25a4.55,4.55,0,0,0,2.6-1.72c.42-.53.5-1.26.91-1.75s.88-.33,1.35-.36c.07.36-.16.61-.22.93.65.32,2.08-.42,2.49-.91.55-.68.47-2.06,1.23-2.52.4-.25.58-.05.91-.45s.24-.73.59-.89.5.08.82-.33a2.8,2.8,0,0,0,.44-1.25,10.76,10.76,0,0,0-.3-1.86c.75-.41.8-.73,1-1.47.16-.51.7-1.29.34-1.68-.15-.18-.63-.15-.84-.3a2.08,2.08,0,0,1-.53-.83c-.31-.59-1-1-1.08-1.73-.42.08-1.06-.68-1.42-.93s-2.1-1.05-2.43-.26c.5.23.49.67-.06.71a2.73,2.73,0,0,1-1.37-.6,2.13,2.13,0,0,1-.7-2.52c.39-1,1.33-.74,1.82-1.74.6-1.24-1-1.22-1.52-2-.34-.5-.39-.65-1-.46a.84.84,0,0,0-.74.92c-.39.13-.8-.72-1.08-1a3.16,3.16,0,0,1-.78-1.1,14.86,14.86,0,0,0-1-1.47c-.12-.24-.05-.47-.21-.69h0a7.47,7.47,0,0,1-1.71-.08,2.1,2.1,0,0,0-1.83.4,3.12,3.12,0,0,1-1.09.55c-.32.09-.65.08-1,.2a3.49,3.49,0,0,0-1,.56c-.28.21-.44.14-.77.18a1.55,1.55,0,0,0-1,.57c-.22.33-.27.69-.67.69a6.26,6.26,0,0,1-2.18-.67c-.57-.21-1.14-.41-1.71-.59a3.19,3.19,0,0,0-1.23,0,6.42,6.42,0,0,0-1.15.19c-.34.1-.51.13-.55.44,0,.15.1.34,0,.49-.24.49-.56-.27-.71-.44a2.67,2.67,0,0,0-.83-.57,3,3,0,0,0-1.12-.1,5.25,5.25,0,0,0-1.25-.07,1.65,1.65,0,0,1-1,.07,3.49,3.49,0,0,0-1.06-.3c-.62,0-1,.72-1.55.2-.28-.29-.41-.48-.83-.34a6.28,6.28,0,0,1-.77.32c-.7.13-1.31-.56-1.84-.91a3.23,3.23,0,0,0-1.62-.75v-.13c-.89.1-1.69-.38-2.61-.28a2.22,2.22,0,0,0-1.39.54c-.47.45-.62,1.18-1.11,1.64s-.8.29-1.35-.07a1.84,1.84,0,0,0-1.89-.25c-.73.18-3.21.82-3.36-.12-.07-.43.34-1.24-.65-.92-.24.08-.41.49-.73.34s-.3-.62-.42-.82a6.12,6.12,0,0,0-1.39-1.48c-.6-.42-1.5-.23-2.06-.59a7,7,0,0,1-.91-1.41c-.31-.48-.2-1.06-.68-1.48a7,7,0,0,0-1-.55,7.11,7.11,0,0,1-.83-.73c-.26-.22-.49-.51-.89-.41s-.14.41-.5.59c-.69.35-.86-1.07-1.18-1.43-.49-.57-.78-.58-.83-1.38a1.43,1.43,0,0,0-.8-1.39c-.36-.15-.8,0-1.16-.23a5.14,5.14,0,0,1-1.17-1c-.87-.16-.85-1.47-1.79-1.67s-1.64.08-2.41-.07-.5-1.52-.94-2.2c-.21-.34-.66-.5-.95-.78s-.32-.47-.82-.57-.73,0-1.09-.42-.52-.83-1.06-1a.62.62,0,0,1-.31.73c-.54-.54-.48-1.85-.48-2.59,1-.63-.14-3.31-.47-4.09-.57-1.31-1.65-2.86-1.5-4.31a8.59,8.59,0,0,0-.07-2.15c.64-.22,1.2.69,1.86.21s0-1.26-.42-1.62-1-.42-1.4-.73c-.67-.53-.2-1.18-.64-1.67.08-1.86-.91-3.59-1.67-5.27a17.57,17.57,0,0,1-1.28-2.21,11.47,11.47,0,0,0-.76-2.46c-.47-.85-1.43-1.7-1.72-2.65l-.53-.26a9.7,9.7,0,0,0-2.13-.89c-.74-.13-1.47-.16-2.21-.26a1,1,0,0,1-.89-.82c-.15-.6.15-.65.6-.6s.77,0,1.18,0,.76.37,1.15.31c.64-.08.3-.67.15-1.08a1.43,1.43,0,0,0-.77-.94c-.39-.16-.78,0-1.12-.41-.53-.58-1.31-1.67-2.19-1.08a5.06,5.06,0,0,1-2.84,1c-.59,0-1.18-.25-1.63.12-.17.13-.06.23-.31.33a1.16,1.16,0,0,1-.49,0c-.69,0-1.12-.17-1.45.51-.24.5-.19.65-.81.61a20.39,20.39,0,0,1-3,0V98.4c-.37.2-.75.37-1.13.53a25.84,25.84,0,0,1-5.51,1.07,10.69,10.69,0,0,0-3.07,1.13,11.39,11.39,0,0,1-4.95,1,8,8,0,0,1-3.82-.89c-1-.53-1.73-1.31-2.67-1.86-1.93-1.12-4.08.68-6.1-.56A13.91,13.91,0,0,1,297,96.94c-1.27-1.12-.92.25-2,.36-.84.09-1.83-1-2.7-1.17s-1.07.14-1.61-.45-.6-1.37-1.29-1.83a3.36,3.36,0,0,0-2.48-.24,6.12,6.12,0,0,1-3.12.12c-1.61-.45-3-1.19-4.75-1.1-.54.75-.12,2.24-1.46,1.46-.46-.27-.65-.82-1.18-1s-.88,0-1.28-.26a1,1,0,0,1,.92-1.28c-1.15-.52.11-1.4-1-1.61-.47-.1-1.46.46-1.92.59a6.79,6.79,0,0,1-2,.5c-.83,0-1.43-1.26-2.13-.94.05.67,1.07.84,1.31,1.54a3,3,0,0,1-3.57-2.95c0-.67.16-1.52-.32-2.07s-1.54-.6-2-1.13a10.82,10.82,0,0,0-1.58-.42,15,15,0,0,1-3.49-.75,7.59,7.59,0,0,1-1.52-1,11,11,0,0,0-2.55-.88c-1.51-.66-2.14-2.5-3.48-3.38-.54-.35-1.41-.31-1.89-.7-.69-.56-.92-1.94-1.32-2.71-.24-.45-.78-.9-1-1.26s-.08-.82-.26-1.12a2.58,2.58,0,0,0-2-.85c.18-1.48,2.33-.26,2.4-1.56-.75-.22.21-1.41-.26-2.08a3.65,3.65,0,0,0-2.24-.89c0-.38.15-1.17,0-1.5-.28-.53-1.12-.5-1.52-.9s-.19-.94-1-.88c-.12,0-.42.38-.58.42s-.57-.06-.83,0c-1.78.49.26,1.3.92,1.94s.81,1.65,1.41,2.39.93.93,1,2-.29,1.54-1.45,1a5,5,0,0,0-2.88-.77c-.42,0-1.42.21-2.16.21-.65,1-3.79.55-4.67.51a19.5,19.5,0,0,1-2.66-.15,15.6,15.6,0,0,0-2.52-.72c-.6,0-.8.25-1.22.36s-.48.33-.8.35-.46-.48-.75-.48a9.9,9.9,0,0,0-2.49.85,13.63,13.63,0,0,1-5.76.46,25.91,25.91,0,0,1-2.62-1.16,27.53,27.53,0,0,1-2.95-.84,9,9,0,0,1-2.64-1.71c-.54-.72-.4-2.3-.69-3.2a8.69,8.69,0,0,1-.51-2.89,4.11,4.11,0,0,0,0-1c-.22-.58-.69-.55-.95-1-.49-.88.06-2.17-1.43-2.17-1.28,0-.83,1-.78,2s.28,2.45.28,3.53-.53,2-.34,3.22c.25,1.68,1.34,5.15-1.8,4.56-.12-.81.62-.89.82-1.51.29-.94-.13-.84-.52-1.48-.62-1-.54-2.57-1.54-3.39-.14.72-.57,1.79-.81,2.57-.51,1.64-.87.81-2.07.84s-1.7.68-2.79.11a2.69,2.69,0,0,1-1.68-2.67c-.07-3.22-2.93-1.82-5.17-2.63-.41-.15-1.55-1.17-1.89-1.14-.52.06-.67,1.08-1.17,1.34a3.32,3.32,0,0,1-3-.43,8.14,8.14,0,0,0-1.37-.88c-.8-.31-1.32.26-1.77.26a7,7,0,0,0-1.93,0c-.66.12-1.35.37-1.93-.16-.13.67-.66,1-1.22.46-.4.46-.4,1.3-1.13,1.22-.37-1.39-3.9-.82-4.85-2.19-.57-.81-.52-1.81-1.13-2.54s-1.49-.72-2.32-1c-2.1-.72-4.4-1.79-6.4-2.71-.74-.34-1.67-.67-2.34-1-1-.53-.49-.7-.93-1.44-.65-1.13-1.24-1-2.27-1.33s-1.67-.94-.93-2.15c1.81.17,1.24-1.9,3.17-1.61a26.65,26.65,0,0,0,4.52.75,7.8,7.8,0,0,0,1.93,0c.89-.33.79-.7,1.8-.85a11.08,11.08,0,0,1,4.55.51c1.86.56,2.57.16,4.29-.4,1.27-.4,2.73-.75,3.86-1.07a6.83,6.83,0,0,0,2.48-1.52c.74-.72.51-1,.65-2.06a12,12,0,0,1,1.22-3.23h0a3.19,3.19,0,0,0-1.16-.1,2.94,2.94,0,0,1-1.51-.6c-.73-.49-1.41-1.07-2.11-1.61-1.34-1-3-2.69-4.74-2.72a4.79,4.79,0,0,1-2.77-.78c-.92-.53-1.14-.38-2.14-.07a4.27,4.27,0,0,1-2.21-.12,4.78,4.78,0,0,0-2.23.46,16.3,16.3,0,0,1-3.14.24,27.51,27.51,0,0,1-2.89.39c-.75,0-1.6-.65-2.35-.9-1-.34-2.07-.75-3.11-1a8.71,8.71,0,0,0-2.5-.24,6.2,6.2,0,0,0-2,.51,7.89,7.89,0,0,1-4.76.07,14,14,0,0,0-2.63-.46,4.92,4.92,0,0,0-2.06.25c-1.29.48-2.84-.42-4.25-.13-.66.13-1.48.73-2.14.59-.46-.08-.44-.42-.78-.61a1.69,1.69,0,0,0-.92-.1,17.66,17.66,0,0,1-2.3,0,17.93,17.93,0,0,1-2.22-.6A14.91,14.91,0,0,0,121.2,33c-.78-.05-1.51-.32-1.92.46a4.54,4.54,0,0,0-.37.77c-.09.42.22.83.17,1.15s-.43.63-.53,1c-.15.56.19.9-.37,1.29a2.57,2.57,0,0,1-1.43.32.91.91,0,0,1-.32-.2l0,.05c.36.66-2.41,1.53-2.92,2.09-.36.39-.61,1.17-1.12,1.46s-1.11,0-1.72.19c-1.41.34-2.6,2-4,2.41-.88.29-1.27.09-2.09.68-.56.39-1.29.73-1.75,1.11-2.43,2.14-1.8,5.52-4.26,7.63a4.45,4.45,0,0,1-2.18,1c-1.19.24-1.48-.34-2.38-.8-1.27-.64-.61-.1-1.29.63-.24.26-.63.31-.83.51a6.16,6.16,0,0,0-.8.85c-.7.87-.85.68-1.77,1.16s-.92.88-1,1.7c-.19,1.1,0,1.24-.8,1.78s-.61-.22-1,.58c-.15.27,0,.92,0,1.24-1.36.44-.78-.95-1.32-1.43-.65.94-.14,1.5-1.43,1.79-1.07.25-1.87,0-2.91.47-1.7.77-2.09.31-3.5-.9-.63-.54-.44-.73-.8-1.29s-.78-.75-1.22-1.24a12,12,0,0,1-1.55,1.65c-.64.54-1.92,1.87-2.89,1.87a2.64,2.64,0,0,1-.22-1.14c-1.34-.1-2.51.78-3.82.9a24.17,24.17,0,0,1-2.82,0c.1-.61-.07-1.24-.63-.88-.31.2-.17.83-.77,1.05-1,.38-2.53-.17-3.55-.25a15.09,15.09,0,0,0-2.33,0c-3.45.14-2.51,3-2.82,5.46-1.63-.12-2.41,1.15-1.8,2.63.15.36.19.82.73.8s.39-.51.73-.63c.92-.34.9.6.41,1.16-1.68,0-1.72,1.46-1.77,2.7a2.63,2.63,0,0,1-2,2.41c-.92.26-1.07-.34-1.77-.76a3.46,3.46,0,0,0-1.92-.29c-1.43,0-2.87-.19-4.1.54A8.52,8.52,0,0,1,41,77.6c-.58.17-1.28-.08-1.89,0a17.11,17.11,0,0,0-1.73.83,21.54,21.54,0,0,0-2.77,1.09c-2.6,1.44-4.66,3.57-7.26,5-.85.46-3,1.34-3.91.7s.19-.92.56-1.62c.12-.22.07-.61.17-.85s.39-.27.48-.54c.22-.63-.09-1.09.37-1.7s.8-.65,1.09-1.34a2.59,2.59,0,0,0-1.29-3.49c-1.62-.61-3.91.48-5.54.63a10,10,0,0,0-2.45.34c-.88.29-1.6.78-2.48,1.14a16.71,16.71,0,0,0-2.28.92,7.89,7.89,0,0,0-1.41,1.48A5.82,5.82,0,0,1,6.38,81.7a12.23,12.23,0,0,1-3.08-.63,5,5,0,0,1-2.51-.92c-1-.85-1.11-3.09-.07-3.94s1.48.05,1.9.78,1.09.7,2,.22c.7-.39.8-.51.75-1.34,0-.44-.36-.51,0-.9a3.71,3.71,0,0,1,1-.29c.8.15.51,1.09,1,1.6a22,22,0,0,1,6.8-3.11,53.78,53.78,0,0,0,6.73-2.06c1.24-.51,2.43-1.53,3.72-1.8,1-.22,1,0,1.55.78s.46.63,1.19.44c1.82-.47,3.19-2.48,4.86-.49.56.63.68,1.34,1.63,1.55s1.12-.38,1.84-.7.95.12,1.24-1c.15-.6,0-1.23.39-1.77-1-1-.77,2.79-2.18,1.53-.32-.27-.12-.7-.2-1.07a1.62,1.62,0,0,0-.46-1.14c-.53-.66-1-.75-1-1.6s.3-1.14-.82-1.75l-1.92-1c-.71-.39-.88-.44-1.1-1.24-.14-.59-.12-1.17-.87-1.48a3.8,3.8,0,0,1,.24-1.83A7.38,7.38,0,0,0,30,57,38.74,38.74,0,0,0,31,53.15a8.54,8.54,0,0,1,1.65-3.06c.51-.68.61-.31,1.29-.72s.34-.81.49-1.34a3,3,0,0,1,1.5-1.85c.42-.26,1.87-1.28.69-1.6.07-.92.67-.85,1.38-.9a2.21,2.21,0,0,0,1.53-.49c.87-.6,1.55-1,1.87-1.92.22-.58.61-1,.8-1.5s.08-.32.08-.61-.59-.17-.3-.63,2.51-.44,2.94-.32,1.17.59,1.51.34-.07-.72-.12-1.09c-.25-1.75,2.31-.17,2.14-1.89-.08-.61-.86-1.17.31-1.68.66-.32,1.17.27,1.68.44,1.07.36,1.16,0,1.48-.88s.22-1.24-.92-1.55c-.51-.12-1.75-.39-.9-1.09a3.86,3.86,0,0,1,1.92-.1c.92.17.7.63,1.33,1.07a2.38,2.38,0,0,0,1.51.19.75.75,0,0,1,.92-.53c.68.12.73-.59,1.07-.93A1.26,1.26,0,0,1,58.13,30c.78.05.68.34,1.26-.36.39-.46.44-1.12,1.17-1.39.95-.36,2.06.17,3,.13s1.48-.83,2.38-1.07a12.41,12.41,0,0,0,2-.44c.44-.24.63-.71,1-.92a1.21,1.21,0,0,1,1.36.07c.12.05.2.44.3.46.34.07.58-.24.87-.36a3.93,3.93,0,0,0,1.12-.61c.29-.29.19-.73.7-1.05,1-.56,2.11,0,3.14-.05s.63-.07,1-.75.44-.9,1.14-1.21,2.51-.76,2.58.31a1.59,1.59,0,0,0,1.34-.92c.19-.34,0-.53.36-.92a4.67,4.67,0,0,1,.8-.46c.9-.34,1.07,0,1.85.43.29.17.65.39.87.49s0,.63.54.39c.14-.08.19-.71.34-.88s.63-.29.73-.46c.41-.61.17-1.12.94-1.6.49-.32,1.07-.46,1.56-.83s1-1.12,1.6-1.46a12,12,0,0,1,3.77-1.26A1.75,1.75,0,0,1,97.8,16c.58.83.1,1.12,0,1.92s.41,1.7,1.33,1.26.2-1.38.08-2c-.2-1-.08-1.26.92-1.51.63-.14,1.29-.24,1.92-.34a5.81,5.81,0,0,0,2.33-.87c.85-.46,1.19,0,2,.24.63.17,2-.39,2.11.15s-.87,1-1.19,1.41c.51.44.92-.42,1.48-.32s.1.44.32.56c.73.44,1.11,0,1.5.32a2,2,0,0,1,.15-.54c1,.1.37-.87.61-1.46a2.25,2.25,0,0,1,2.14-1.06c1.31-.12,2.67,0,4,0,0-.37.85-.66,1.21-.68a7.09,7.09,0,0,1,1.68.19,11.91,11.91,0,0,0,2.81.17,6.46,6.46,0,0,0,1.39,0c.31-.1.36-.32.58-.51a1.69,1.69,0,0,1,1.07-.29,10,10,0,0,0,3.18-.1A7.61,7.61,0,0,1,131,12.1c.6,0,1.16-.66,1.75-.63h0c.28-.15.7-.54.9-.61a5.09,5.09,0,0,0,.68-.12c.2-.09.25-.3.39-.47.66-.81,1.64-.71,2.48-1.16a9.68,9.68,0,0,0,1.23-.9c.48-.37,1-.68,1.5-1a1.78,1.78,0,0,1,.52-.29c.31-.1.64,0,1-.1a4.21,4.21,0,0,0,1.36-.56,9.32,9.32,0,0,1,1.74-.66,6.12,6.12,0,0,1,1.92-.14c.16-.33.9-.42,1.23-.51a3.06,3.06,0,0,1,.9-.13c.68,0,1.32-.08,2-.06a13.85,13.85,0,0,1,1.92.37,14.45,14.45,0,0,0,2.4.33c.43,0,.95-.07,1.44,0,0,0,0-.12.07-.14.44,0,.86-.34,1.27-.46a9.52,9.52,0,0,1,1.41-.17,11.17,11.17,0,0,1,1.55-.29,1.91,1.91,0,0,1,1,.48c.27.18.41.44.65.61a3.78,3.78,0,0,0,1,.41,5.67,5.67,0,0,0,2.45.66,11.45,11.45,0,0,1,2.62,0c.39.1.81.56,1.22.53.19,0,.41-.17.61-.22a1.73,1.73,0,0,1,.75.1c.61.12,1.22.25,1.8.32A2.37,2.37,0,0,0,174,6.92a2.72,2.72,0,0,1,1.34-.17c.39,0,.68.2,1.07.22.75,0,2.55-.92,3.06.15v0h0l.44,0c.9-.07,1.72-.18,2.61-.18a3.55,3.55,0,0,1,2.45.59c.65.47,1.7,1,2,1.76a3.93,3.93,0,0,1,0,2.4c-.35.62-2,1.57-.46,1.73a2.38,2.38,0,0,0,2.24-.83c.6-.89.34-2.14,1.63-2.29a11.1,11.1,0,0,1,1.29,0,11,11,0,0,0,3.93-.89,16.69,16.69,0,0,0,1.89-1,4.55,4.55,0,0,1,1.93-.61,8.83,8.83,0,0,0,3.54-1.54c1-.63,2.09-.81,3.13-1.33a5,5,0,0,1,1.57-.67c.57-.07,1.75.22,1.21,1.06-.37.59-.88.1-1.3,0a3.72,3.72,0,0,0-2,.54c-1,.4-1.89,1.2-2.89,1.69-.85.42-2.72,1.38-.79,1.92s2.23,1.87,3.22,3.44a3.13,3.13,0,0,0,1.92,1.48c.58.17,1.59.72,2.18.59a5.48,5.48,0,0,1,.81-2.63,3.32,3.32,0,0,1,1-1.09c.3-.2.77-.64,1-.77a6.07,6.07,0,0,1,1.56-.18,7.76,7.76,0,0,1,1.07-.06c.48,0,1.58.86,1.59-.11,1.22-.35.81,2.08,1.09,2.62a5.72,5.72,0,0,0,1.65,0c.58-.17.87-.56,1.55-.61.34,0,.72.12,1.1.07a7.61,7.61,0,0,0,1.37-.46c1.33-.46,2.8,0,4.15-.36,1-.26,2.14-1.25,3.13-.81.52.23.73.65,1.34.72a4.85,4.85,0,0,0,1.76-.36l2.23-.66c.8-.24.77-.57.41-1.32-.17-.34-.41-.41-.61-.73-.11-.16-.25-.61-.08-.8a3.41,3.41,0,0,1,2.4.14c.69.64-.38.89-.52,1.47-.08.28.17.59.08.83-.15.43-.55.35-.8.61-.7.78.23,1,.59,1.61a1.37,1.37,0,0,1,.19.5l.06,0c.18.28.22.7.41.95.36.47,1.05.65,1.49,1.09.67.7.79,2.1,1.79,2.39s2,0,3,.29,1.34,1.09,2.05,1.66a8,8,0,0,0,2.33,1.26,1.32,1.32,0,0,0,1.32,0c.21-.13.27-.46.56-.48s.79.55,1,.72a7.51,7.51,0,0,0,5.38,1.21c1.08-.27,1.92-1.27,3-1.54.38-.09,1.07.17,1.21-.27,0-.1-.21-.41-.18-.57,0-.34.18-.47.52-.6,1.38-.53,2.33.64,3.3,1.31s2.12.86,2.54-.22c.2-.54.44-.88,1-.42.08.06.06.24.13.31s.28.14.4.23.21.16.31.26c.37.37.27.84.47,1.29s.46,1,.71,1.53c.57,1.12,1.6,1.24,2.69,1.53.43.13.87.23,1.26.39a3.16,3.16,0,0,0,.73.33c.56,0,.74-.81,1.15-1.18a4.6,4.6,0,0,1,2.53-1c.26-.06,3.12-.72,2.56.16a8.3,8.3,0,0,1-1.29.49,5,5,0,0,1-1.59.15c-1.64.1-1.12,1.68-.67,2.79a3.38,3.38,0,0,1,.28,1.47c.3-.32,1.31-.23,1.75-.3.66-.11,1.8-.18,2.22.26s.54,1,1.23,1.29,1.31.27,1.86.77c.35.31.69,1,1.17,1.05s1-.52,1.5-.55c.73,0,.76.59.92,1.22s.34,1.38.58,2c.35,1,.62,2,1,2.94.29.77.68.36,1.31.75A9.05,9.05,0,0,1,292.72,39a8.69,8.69,0,0,1,.93,1.08c.35.54.48,1.14.79,1.68A5,5,0,0,0,297,44c.81.24,1.6-.16,2.32.48s.68,1.32,1.22,1.85.92.94,1.39,1.44a3.64,3.64,0,0,1,.87,1.27,1.29,1.29,0,0,1,.25,0c1,.24,2.07,1.52,2.93,2s2.06.52,2.73,1.16.57.91,1.51.82c.48-.05.83-.38,1.29-.48,1.11-.23,2,.52,3.17.48a2.42,2.42,0,0,0,1.52-.35c.34-.31.41-1.11.79-1.26.53-.23.78.25,1.07.52.59.58.65.89,1.56.75s1.58-.9,2.47-1.24a5.7,5.7,0,0,1,2.73-.32,10.9,10.9,0,0,1,1.8.72c.33.11.87.11,1.2.24a.39.39,0,0,1,.08-.35c.41-.52.92.19,1.41,0s.24-1,.88-.49c.33.24.43.54.84.67s.66.14,1,.24a4.3,4.3,0,0,0,1.41.31c.51,0,.9-.43,1.37-.46.83-.05,1.2,1.08,1.28,1.72s-.08,2.27,1,2.18c.29,0,.37-.32.61-.08.05,0,.05.46.1.56.32.68.51.16.67-.23a4.1,4.1,0,0,0,.4-1.21c0-.41.17-.74.22-1.14.12-.87-.92-1-.7-1.78.45.1,1,0,1.5.11a2.3,2.3,0,0,1,1,1.08c.65,1.09,1.48,1.05,2.54,1.5a26.33,26.33,0,0,0,3,.94A7.31,7.31,0,0,1,349,57.18c.56.49,1,1.9,1.8,2,.59.47,1.68.34,2.38.63s1-.06,1.73-.18.64.32,1,.81a.44.44,0,0,0,.56.2c.43-.18.29-.51.92-.4.12.47,0,1,.13,1.47.19.64.3-.13.77-.05.69.11.89,1.63,1.4,2.05a9,9,0,0,0,1.88,1.46,5.28,5.28,0,0,0,1.35.36c.43.07.95-.1,1.36,0a6.22,6.22,0,0,1,1.34.83,1.39,1.39,0,0,0,.83.17,8.46,8.46,0,0,0,1.88.08c.37-.08.78-.49,1.14-.36s.36.44.4.66c.08.4,0,1.15.32,1.42s.68-.07.94-.09c.62-.06.31.14.46.48s.33.27.69.28c.69,0,1,.51,1.42.89,0,0,0,0,0,0,.14-.27.63-.24.9-.19.51.08.61.32.8.74a3.15,3.15,0,0,0,.37.79,3.54,3.54,0,0,1,.5.63c.07.13.09.32.2.42s.36.11.5.24a3.07,3.07,0,0,1,.63,1.34,4.87,4.87,0,0,0,.86,2,9.63,9.63,0,0,0,2,1.29,3.84,3.84,0,0,1,.44.32c.05.15.41.37.53.48a3.19,3.19,0,0,1,.33.4,8.75,8.75,0,0,0,.9,1.13c.31.31.8.51,1,.9a4.94,4.94,0,0,0,.63,1.23c.18.22.59.65.92.53.11,0,.21-.21.29-.3a1.54,1.54,0,0,0,.31-.25,2.05,2.05,0,0,0,.08-1.3,5.4,5.4,0,0,0-.23-1.13,2.26,2.26,0,0,1,.21-1.93,5,5,0,0,0,.33-.83c.17-.49.47-.49.89-.26s.58.35.89.47.75,0,.88.2c.32.53-1.69.76-1.91.8-.54.12-.69.54-.63,1.06A2,2,0,0,0,386.7,80c.34.28.77.45.91.91a1.57,1.57,0,0,0,1,1.06c.24.12.51.43.79.41.11-.24.05-.37.28-.55a1,1,0,0,1,.54-.22c.26,0,.28.42.36.61s.34.27.67.33a9.67,9.67,0,0,1,.13,1.53,4.73,4.73,0,0,0,.46,1.61c.22.42.93.43,1.35.48a1.86,1.86,0,0,1,1.29.52,4.2,4.2,0,0,0,.88-.22,1.16,1.16,0,0,1,.92.31,2.23,2.23,0,0,0,.86.42,2.25,2.25,0,0,0,1.14-.21,2.48,2.48,0,0,1,1.11-.16,6.24,6.24,0,0,0,1.08.18,7.8,7.8,0,0,1,1.87.07c.38.08.3.48.53.77s1.81,1.27,1.68.34c-.06-.55.44-.85,1-.91s.93-.06.88.58c.44,0,.8-.27,1.23-.24,0-.15-.17-.42,0-.53s.54.29.65.41a8.86,8.86,0,0,0,1,.82,5.52,5.52,0,0,1,.4.55,1.53,1.53,0,0,1,.23.6c-.07.35-.61,0-.7-.17a1.42,1.42,0,0,0-.25-.47c-.19-.17-.47-.27-.65,0a1.13,1.13,0,0,0-.06.79c.06.5,0,1,.11,1.51a2.36,2.36,0,0,0,.27.64,6.36,6.36,0,0,1,.27.77,3.57,3.57,0,0,0,.7,1.5.91.91,0,0,0,.71.3,3.12,3.12,0,0,1,1,.22,5.41,5.41,0,0,0,.82.16,7,7,0,0,1,1,.37c.51.17,1.41.84,1.79.17s-.22-1.69-.74-2.09a7.92,7.92,0,0,0-1.66-.86,2.38,2.38,0,0,1-.93-.53,1.93,1.93,0,0,1-.23-.89c-.05-.38-.12-.76-.18-1.14a3.16,3.16,0,0,0-.41-1.27,1.91,1.91,0,0,0-1.07-.72,2.13,2.13,0,0,1-1-.48c-.15-.18-.11-.46-.14-.67a1.26,1.26,0,0,0-.39-.9c-.32-.27-.46,0-.79.09s-.42.12-.63,0-.15-.19-.31-.18-.31.17-.44.27c-.31.24-.6.46-.85,0s-.28-.61-.67-.8-.71-.17-1-.42-.21-.57-.42-.81a2.12,2.12,0,0,0-.79-.44c-.09-.17-.46-.24-.61-.37a1.32,1.32,0,0,1-.43-.56,6.47,6.47,0,0,0-.39-1.27c-.27-.44-.5-.15-.87-.12-.18,0-.46,0-.53-.19s.16-.39.26-.54a2.63,2.63,0,0,0,.28-.7c.1-.28.12-.28.44-.28s.28,0,.43-.23a2,2,0,0,1,.4-.48,1.58,1.58,0,0,1,1.79.22,4.92,4.92,0,0,1,1.26,1,10.77,10.77,0,0,1,.61,1.76,14.2,14.2,0,0,0,1,1.65c.22,0,.66.44.85.57a8.52,8.52,0,0,0,1.14.64,20.12,20.12,0,0,1,2.26,1c.76.49,1.48,1,2.25,1.49a1.83,1.83,0,0,0,1,.36,2.82,2.82,0,0,1,1.12.2,6.13,6.13,0,0,1,1.12.69,4.63,4.63,0,0,1,.94.75c.2,0,.42.54.58.69s.66.34.94.54.81.5,1.22.73a3.07,3.07,0,0,1,.9.62c.16.22.14.49.37.7a2.72,2.72,0,0,0,.85.47c.75.34,1.45.77,2.2,1.08a1.87,1.87,0,0,0,.84.22c.29,0,.33-.17.52-.35s.54-.47.75-.26-.11.79-.21,1c-.54,1.25,1.85,2.15.91,3.46a5,5,0,0,1-.76.69,5.32,5.32,0,0,0-.64,1,1.65,1.65,0,0,1-.28.41c-.2.18-.3.08-.53,0s-.54-.56-.84-.84-.72-.6-1.05-.91a3.66,3.66,0,0,0-1.41-.66c-.53-.17-1.1-.22-1.6-.43s-.6-.46-1-.48-.56.15-.84.48a.86.86,0,0,1-1.07,0,6.41,6.41,0,0,0-1-.68,2.8,2.8,0,0,0-1.32-.35c-.42,0-1,.36-.74.81a2.13,2.13,0,0,0,.76.7c.46.24,1,.4,1.44.63a1.54,1.54,0,0,1,.42.3c.13.14.2.38.37.48.37.21.69.34,1,.07a1.72,1.72,0,0,1,1.38-.38c.35.07.41.48.49.77a4.37,4.37,0,0,1,.18,1.29,1.63,1.63,0,0,1,0,.44c-.07.18-.31.26-.47.34-.4.18-.84.44-.69.94a5.83,5.83,0,0,1,.23.58,2.43,2.43,0,0,0,.15.7c.18.38.31,1,.76,1.08a2.67,2.67,0,0,0,2.11-.41c.14.31-.06.71,0,1s.51,0,.72-.09.37-.35.53-.43.3,0,.47-.1.24-.47.46-.63.29-.07.48-.09a.82.82,0,0,0,.67-.7,9.1,9.1,0,0,1,.28-1.6,7.61,7.61,0,0,0,.78-1.75,3.22,3.22,0,0,1,.51-1.15,7.17,7.17,0,0,0,.69-1.2c.07-.19.14-.5.32-.63a4.91,4.91,0,0,1,.58-.18c.71-.25,1.36.53,1.94,1a7.2,7.2,0,0,1,1.25,1.84,9.55,9.55,0,0,0,1.42,1.63,17.52,17.52,0,0,1,2,2.24,6,6,0,0,1,1,1.42,4.75,4.75,0,0,1,.21.67,1.73,1.73,0,0,1,.32,0,2.09,2.09,0,0,1,.56,0,2.33,2.33,0,0,1,.91.4l.42.36a3.83,3.83,0,0,0,.42.28c.16.1.29.22.45.3s.5.3.74.44h.3l.81,0,.45,0a2.08,2.08,0,0,1,.36-.06c.4,0,1.28.17,1,.78-.07.18-.13.48,0,.62s.38,0,.57.08c.49.07.52.6.32.94a5.48,5.48,0,0,0-.35.49c-.06.14,0,.28-.09.42s-.28.24-.45.36a.59.59,0,0,1-.38.12c-.39,0-.72-.23-1.1-.23a.81.81,0,0,0-.44.18.87.87,0,0,1-.51.11,2.58,2.58,0,0,0-.48,0c-.16,0-.18.1-.25.24a.69.69,0,0,1-.38.35.57.57,0,0,0-.26.2,1,1,0,0,0,.15.69c.11.26-.08.5-.09.77a.73.73,0,0,0,.37.78,1.84,1.84,0,0,0,.7.08,1.21,1.21,0,0,0,.57-.11,1.6,1.6,0,0,0,.72-.71,2.26,2.26,0,0,1,.23-.31c.08-.14.16-.29.25-.42s.51-.45.71-.3.11.46.11.67a1.09,1.09,0,0,1-.25.64c-.16.16-.43.21-.32.49.13,0,.29,0,.4,0a.91.91,0,0,0,.22-.33,4,4,0,0,0,.29-.91,5.06,5.06,0,0,0,.06-.79,2.28,2.28,0,0,1,.13-1.1,6,6,0,0,1,.48-.54,4.12,4.12,0,0,0,.48-.77c.07-.16.2-.48.39-.51a1,1,0,0,1,.69.24,2.29,2.29,0,0,0,.5.3c.2.06.41.1.61.14a5.12,5.12,0,0,1,.54.1,6.71,6.71,0,0,0,1.35.1,3.78,3.78,0,0,1,.75,0,1,1,0,0,1,.44.28,5,5,0,0,0,.51.52.9.9,0,0,0,.56.14A9.69,9.69,0,0,1,452,111a.69.69,0,0,1,.4.3,3.36,3.36,0,0,1,.39.52,2.73,2.73,0,0,0,.34.6,2.86,2.86,0,0,1,.39.47c0,.09,0,.18-.06.26a1.12,1.12,0,0,1-.44.45c-.31.21-.65.4-1,.58a6.62,6.62,0,0,1-1.57.6,7.1,7.1,0,0,0-.76.2c-.18.05-.4.21-.48,0a1.73,1.73,0,0,0-.71-1.11.4.4,0,0,0-.51.16c-.07.14,0,.28.12.4s.19.33.06.5-.25.13-.21.33a.45.45,0,0,0,.34.38,1.37,1.37,0,0,0,.57-.06.61.61,0,0,1,.45.07.76.76,0,0,1,.22.18s.09.12.15.15c.24.14.57.07.85.13a1.51,1.51,0,0,1,.63.32,4.92,4.92,0,0,1,.54.47c.13.15.33.42.56.39l.3,0a8.77,8.77,0,0,0,1,.06,1.5,1.5,0,0,1,.43.1c.13,0,.24.08.35,0s.23-.19.21-.29-.14-.15-.22-.18a1.51,1.51,0,0,0-.94,0c-.21,0-.6,0-.65-.22a2.2,2.2,0,0,1,0-.51.77.77,0,0,0-.2-.5,1.3,1.3,0,0,1-.35-.86.42.42,0,0,1,.32-.45c.23-.06.41,0,.6-.14a.75.75,0,0,1,.6-.18,3.32,3.32,0,0,1,.63,0c.59.1.87.7,1.44.84a2.86,2.86,0,0,1,.8.25,1.48,1.48,0,0,1,.49.44c.08.12.15.25.3.3s.31,0,.35-.26a1.08,1.08,0,0,1,.21-.59.25.25,0,0,1,.22-.05c.07,0,.07.13.14.16-.16.39.15,1,.08,1.46a6.67,6.67,0,0,1-.52,1.46c-.5,1-2.4-.37-2.88.58.51.23.22.73.53,1s.83,0,1.13.06c1,.08,1.49,1.06,2.36,1.08.72,0,.39-.26.86-.53.32-.18.58-.16.87-.3a11.2,11.2,0,0,1,1.88-1.08c.28-1.13-3.11-1-3.68-1.52-1.06-1,1.11-2,2-2,1.3,0,2.63.18,4,.18s2.75-.47,3.78.18a9,9,0,0,1,2.57,2,5.07,5.07,0,0,0,0-.56c1.62.43,2.78,1.78,4.49,2a4.43,4.43,0,0,1,2,.77c.59.39,1.23.31,1.78.8.26.23.5.48.76.7s.63.36.83.62c.37.45.25,1.39.36,2,.07.33.26.58.33.9s-.07.65.13.88c.72.84.87-.89,1.22-1.14s1.21,0,1.72.1a2,2,0,0,1,1.05.48,2,2,0,0,1,.61.87c-.06.14-.19.51,0,.61s.36-.24.47-.34c.65-.6.72.1.75.72.62-.23.17-1,.67-1.21a3.51,3.51,0,0,1,.8-.11,7,7,0,0,1,1.11-.12c.44,0,.69.08.83-.28s-.05-.32.14-.5a1.8,1.8,0,0,1,.43-.11,4.92,4.92,0,0,1,1.8-.28c.27,0,.85.08,1,.33s-.07.42,0,.58.64.49.85.34.12-.42.12-.63c0-.63.15-.82.79-1.15s1.13-.13,1.61-.41.28-.48.75-.45a1.44,1.44,0,0,1,.73.31c.48.36.67.92,1.36.67a4.21,4.21,0,0,1,1.5-.54,5.28,5.28,0,0,1,1.67.24,3.41,3.41,0,0,1,2.14,2c.31.92,1.65.45,2.47.5.64,0,1,.05,1.36.57a5.92,5.92,0,0,1,.73,1.2c.11.28.09.61.22.89s.37.37.45.63-.14.9,0,1.16c-.62.46-.62.83-.62,1.53s-.14.51-.61.9a3.3,3.3,0,0,0-.6.79c-.29.48-.18.83-.24,1.34s-.64.67-1.08,1.08-.59.88-1,1-1,0-1.06-.45c0-.3.21-.7,0-1a1.92,1.92,0,0,0-1-.63c-.29-.06-1.29,0-1.44.27s.58.55.67.95c-.48.21-1.12-.11-1.58.32a.81.81,0,0,0-.24.83c.16.33.63.3.91.57s.25.93.83,1.12a1.82,1.82,0,0,1,.15-.9,3,3,0,0,1,.79-.34c.34-.1.71-.1,1.06-.21a6,6,0,0,1,1.11-.27,5.35,5.35,0,0,1,2.38.37,17.23,17.23,0,0,1,1.71,1.11,1.32,1.32,0,0,1,.67.58c.15.29.06.65.28.93s.62.28.95.47c.54.31.15.36-.09.81s-.09.65-.65.74a1.37,1.37,0,0,1-.85-.16,4.25,4.25,0,0,1-.75-.53,2.6,2.6,0,0,0-.9-.44c-.75-.26-.27-.91-.59-1.48a.87.87,0,0,0-1-.28c-.24.18,0,.43-.09.72-.51-.15-.75,0-1.27.05s-.89-.16-1.44.13-.76.2-1.43.18a4.79,4.79,0,0,1-.93,0,3.45,3.45,0,0,1-.74-.38c-.44-.2-.9-.06-1,.48,0,.09.11.39.11.53a2.44,2.44,0,0,1-.27,1.16,3.57,3.57,0,0,0-.55,1c0,.24.05.51,0,.76a2.86,2.86,0,0,0-.18.78c0,.53.45.61.75,1s.17,1,.67,1.31.75.27,1.09.49c.52.32.77.71,1.41.48s.64-.74,1.07-1.15c.08-.09.19-.07.28-.17s.11-.3.19-.43a3.49,3.49,0,0,1,.41-.44,3.91,3.91,0,0,0,.62-1c.28-.56.47-.59,1-.75s.28-.61.7-.76.74.2,1,.5a3.57,3.57,0,0,1,.94,2,1.68,1.68,0,0,0-.67,0,.86.86,0,0,0-.08.57c.62.12,2-.66,1.79.62,0,.29-.47.58-.22.87a2.38,2.38,0,0,0,1.54.24c0-.33-.23-.64-.15-1,.14-.6.36-.1.65.12a3.94,3.94,0,0,0,.83.31c.26.12.5.32.77.45a1.46,1.46,0,0,0,1.58-.15c.23-.25.17-.55.27-.83.14-.43.09-.35.45-.16s.86.78,1.34.91c.36-.83,0-1.15-.82-1.31-.43-.08-.47-.19-.42-.62s.11-.54.47-.58a7.85,7.85,0,0,1,1.26.11c.37,0,.74,0,1.11,0a12.08,12.08,0,0,1,2.17.32c.3.07.61.11.91.18s.59.37.92.53c-.07.42-.82.57-1.18.65-.24.44.28.47.48.71a1,1,0,0,1,.21.63c.49.26.39-.5.53-.7.9.55.46,2,2,1.54.41-.13.77-.33,1.19-.43s.79,0,1.13-.13c-.07-.85-1.48-.67-2-.93-.31-.16-1.65-1.26-1.28-1.61s1.34.15,1.77.05.64-.29,1-.36a7.31,7.31,0,0,1,.94,0c.8,0,1.23-.46,2-.15.43.16.81.44,1.25.61s.72.13,1.07.26.41.27.06.48-.57,0-.21.34.55.17,1,.11.39.12.6.49c.34.62.38.19.64-.14a.87.87,0,0,1,.73-.38,1.05,1.05,0,0,1,.89.45c.15.21.15.8.56.62a.58.58,0,0,1,.48-.62c.48-.08.43.32.77.46s.74,0,.68-.35-.43-.32-.52-.55c.68-.08,1.48.18,2-.26.28-.22.47-.78.88-.49.12.08.13.31.21.38.29.25.12.09.41,0a1.43,1.43,0,0,1,.89-.06,5,5,0,0,0,1,.08c.35,0,.92-.1,1.23.11s.28.61.59.87a1.89,1.89,0,0,0,2,.38c.35-.15.48-.34.89-.06a5.24,5.24,0,0,1,.65.81c1.11,1.34,2.84,1.37,4.43,1.45.73,0,4-.36,3.52,1.22-.13.4-.46.25-.23.72a5,5,0,0,1,.45,1,7.12,7.12,0,0,0,1,1.55.89.89,0,0,1,.25-.33c.24-.11.38.18.52.32a.65.65,0,0,0,.45.2c.32,0,.7-.19,1-.08s.33.59.38.94a.62.62,0,0,0,.26.44c.31.2.19-.15.39-.26a5.39,5.39,0,0,1,1.28.57c.32.13.55.16.61.53s0,.64.2.8.67-.1,1,0c.57.16.78.9,1.19,1.28.19.17.31.23.35.5s0,.62.09.93.1.26.29.41.12.19.16.38c.1.44.66.31,1,.3.11,0,.34-.09.44-.05s.16.32.18.44a1.9,1.9,0,0,1,0,.92c-.1.54.7.73,1,1.06a5.66,5.66,0,0,0,.31.48,1.12,1.12,0,0,0,.37.21,2.84,2.84,0,0,1,.84.85c.19.27.3.49.67.52a2.26,2.26,0,0,0,.45,0,2.67,2.67,0,0,0,.53-.16,1.79,1.79,0,0,1,1.39.26,5.87,5.87,0,0,1,.9,1.08,1.06,1.06,0,0,0,.43.29l0,0c.1.17.43.19.61.27a1.25,1.25,0,0,1,.58.43,2.71,2.71,0,0,1,.24.78c0,.16.13.52.39.39,0-.29.12-.34.3-.45s.19-.26.45-.29a4.77,4.77,0,0,1,1.46.14,9.36,9.36,0,0,0,1.59,0,2,2,0,0,0,1.07-.2c.18-.14.19-.2.42-.25s.31-.11.23-.41.95-.38,1.18-.38a11.61,11.61,0,0,0,1.53-.25,1.41,1.41,0,0,1,1.42.49,3.81,3.81,0,0,0,.5.64,4.62,4.62,0,0,0,.73.52c.53.34,1.08.63,1.64.92a2.21,2.21,0,0,1,1.07,1,3.44,3.44,0,0,1,0,.64,1.87,1.87,0,0,0,.25.73A2.31,2.31,0,0,1,592.66,174.68Zm-80.33-31.4c-.19,0-.46,0-.54.15s0,.39,0,.52,0,.41.13.58a1.47,1.47,0,0,0,.86.4c.49.1,1,.29,1.52.44a2.07,2.07,0,0,1,.7.34,3,3,0,0,0,.6.46c.34.15,1.45.28,1.44-.28a1.87,1.87,0,0,0-.45-1.29,2.56,2.56,0,0,1-.52-.52c-.18-.26-.11-.4-.07-.67.07-.46-.12-.53-.52-.68a1.38,1.38,0,0,1-.63-.47c-.08-.07-.14-.06-.18,0a4.15,4.15,0,0,1-1.06,1.07A2,2,0,0,1,512.33,143.28ZM398.48,81.68c.06.31.26.69.53.33.11.08,0-.38-.05-.52a6,6,0,0,1,0-.85.92.92,0,0,0-.22-.77c-.06-.05,0-.06-.09-.09a.59.59,0,0,0-.23,0,2,2,0,0,0-.35.09c-.18.07-1.17.26-.77.61.13.12.46,0,.63.17a2,2,0,0,1,.52.39C398.56,81.2,398.46,81.49,398.48,81.68Zm.92-2.22c.16,0,.36-.28.44-.39a2.92,2.92,0,0,0,.4-.59,1.2,1.2,0,0,0-.37-.78c-.09-.07-.41-.28-.53-.14s.07.37.08.45a.71.71,0,0,1-.21.71.29.29,0,0,0-.11.38C399.14,79.21,399.26,79.45,399.4,79.46Zm-6.94.45a.53.53,0,0,0-.46-.18c-.36,0-.44,0-.46.22a.63.63,0,0,0,.07.41,2,2,0,0,0,.68.45c.2.11.65.31.69,0a.52.52,0,0,0-.28-.61C392.57,80.1,392.56,80,392.46,79.91Zm-1.4-9.53a1.1,1.1,0,0,1-.7-.53,5.48,5.48,0,0,1-.55-1,1.76,1.76,0,0,0-.29-.44c-.12-.13-.19-.24-.38-.15s-.24.26-.39.34a3.56,3.56,0,0,1-1.8.28.86.86,0,0,0-.76.39,3.16,3.16,0,0,0-.12.64.52.52,0,0,1-.41.42,1.38,1.38,0,0,1-.67,0,3.45,3.45,0,0,1-.91-.48c-.25-.18-.56-.34-.8-.55a5.33,5.33,0,0,0-1-.67,5,5,0,0,0-.61-.31c-.19-.06-.43.13-.55.27s-.1.33-.1.51a6,6,0,0,0,.06.73.62.62,0,0,0,0,.13s.07.08.09.15,0,.24,0,.36a4.85,4.85,0,0,0,.19.92.66.66,0,0,0,.11.26c.08.11.26.19.33.31a4.74,4.74,0,0,1,1.56,1c.27.25.45.59.73.84a1.12,1.12,0,0,0,.74.4.85.85,0,0,0,.72-.49c.09-.16.12-.58.32-.64.37-.13.43.54.53.72s.22.12.36,0a.44.44,0,0,0,.22-.43.75.75,0,0,0-.07-.36c-.09-.17-.29-.33-.24-.55.11-.42.66-.13.93-.05a2.72,2.72,0,0,1,.55.18.88.88,0,0,1,.37.58.74.74,0,0,1,0,.53c-.09.19-.28.28-.41.43a1,1,0,0,0-.25,1.11.46.46,0,0,0,.2.26,6.41,6.41,0,0,0,.81.55l.31.14s0,0,.05.05l.09,0,.48.07a8.63,8.63,0,0,1,1.11.4,1.85,1.85,0,0,0,1,0,1.25,1.25,0,0,1,1.33.75c.12.22.15.48.25.71s.15.55.26.81a.71.71,0,0,0,.56.47,1,1,0,0,0,.63,0c.22-.11.18-.35.11-.55a3.39,3.39,0,0,1-.25-.76c-.07-.4.08-1.09.57-1.14.22,0,.54,0,.65.21a.67.67,0,0,1-.09.53c-.12.18-.29.25-.29.49s.12.41.39.35.33-.27.45-.42a1.24,1.24,0,0,1,.28-.28l.21-.14c.06,0,.09-.13.16-.12s.41.11.61.13a.83.83,0,0,0,.6-.13.5.5,0,0,0,0-.43c-.08-.24-.32-.3-.52-.39a1.73,1.73,0,0,1-.51-.25c-.16-.16,0-.41,0-.58a2.57,2.57,0,0,1,.34-.6,6.83,6.83,0,0,0,.6-1,5.49,5.49,0,0,0,.34-.63c.08-.19.29-.49.26-.69a.75.75,0,0,0,0-.7c-.17-.26-.4-.51-.59-.77s-.34-.44-.5-.68a3.62,3.62,0,0,1-.24-.43c-.13-.23-.46-.59-.77-.49-.13,0-.22.22-.29.33a2.06,2.06,0,0,0-.21.42c-.05.11-.1.28-.23.33a.53.53,0,0,1-.35,0c-.11-.08-.16-.26-.23-.37a.73.73,0,0,0-.53-.24,2.33,2.33,0,0,0-.37,0,1.47,1.47,0,0,1-.74-.18.91.91,0,0,1-.37-.3.71.71,0,0,0-.22-.3.87.87,0,0,0-.53,0,1.53,1.53,0,0,0-.41.19,6.08,6.08,0,0,1-.84.44A.93.93,0,0,1,391.06,70.38ZM378.24,58.06a4.53,4.53,0,0,1-.09.74c-.06.23-.09.51-.16.74a2.69,2.69,0,0,0-.23,1c-.11.33.13.74-.12,1s-.75.11-1,.56c-.14.28-.11.68-.41.85s-.7,0-.57.45.8.48,1.15.65a1.91,1.91,0,0,1,1.11,1.17,1,1,0,0,0,.93.71,1.56,1.56,0,0,1,.57,0c.19.1.15.2.17.38s.06.39.23.45.28,0,.4,0,.17.37.22.51c.14.36.26.4.67.37.31-.24,0-.63-.07-.89s.08-.34.08-.51a.54.54,0,0,1,.19-.45c.47-.34,1.25,0,1.58.39.16.17.45.31.56.52s0,.27,0,.41.17.16.31.32-.24,1.45.58,1c.21-.12.4-.49.64-.36a2.29,2.29,0,0,1,.51.52c.25-.27.65-.24.95-.44a1.45,1.45,0,0,0,.48-.78,2.94,2.94,0,0,1,.32-1,1.72,1.72,0,0,0,.31-1,.71.71,0,0,0-.5-.77,2,2,0,0,0-.65,0c-.54,0-1.07.09-1.24-.54a.64.64,0,0,0-.33-.48c-.29-.14-.78,0-1-.25a.81.81,0,0,1,0-.63c.1-.22.22-.22.45-.15a5,5,0,0,0,.49.2,1.36,1.36,0,0,0,.63-.09c.43-.14.4-1,.11-1.29s-.29.06-.41.25-.21.4-.51.39c-.48,0-.61-.6-.86-.92s-.73.1-1.11.24c-.19.08-.29.08-.26.34s.21.33.42.47.35.32.1.47-.58-.06-.71-.21a2.56,2.56,0,0,1-.39-.68c-.06-.16-.07-.5-.2-.64s-.38-.1-.51-.37-.06-.38-.18-.45c-.34-.21-.87.21-1.14.36s-.78.46-1,0a2.48,2.48,0,0,1-.1-1.12c0-.34-.07-.73.25-.94s.45,0,.65-.14.09,0,.12-.16a1.18,1.18,0,0,0,0-.26c-.08-.38-.31-.71-.42-1.07-.06-.19-.1-.37-.28-.47a2.38,2.38,0,0,0-.65-.16,5.17,5.17,0,0,0-1.11-.2c-.05.26.26.66.4.85S378.28,57.62,378.24,58.06Zm6.85-1.4a3.27,3.27,0,0,1,.54,0,2.43,2.43,0,0,0,.47.08c0,.25,0,.49,0,.68a1.33,1.33,0,0,0,.19.62c.12.18.33.31.43.5.21.4-.15.92.23,1.25.14.12.34.19.44.34s.06.38.12.56c.14.37.6.48.74.85s-.06,1,.32,1.26a1.4,1.4,0,0,0,.67.15c.22,0,.28.13.37.32.19.4.25.8.65,1s.79.25,1,0c.47-.79-.59-1.08-1-1.54-.52-.63-1-1.31-1.43-2-.31-.44-.56-.93-.85-1.39a4.74,4.74,0,0,1-.42-.95,11.12,11.12,0,0,1-.46-1.07c-.07-.22-.09-.47-.18-.68a1.12,1.12,0,0,0-.36-.42,1.29,1.29,0,0,0-.9-.2h-.75c-.15,0-.35,0-.41.17S384.89,56.66,385.09,56.66Zm-3.48-2.14a3.72,3.72,0,0,1,.53.52c.19.28.32.59.49.88s.5.67.86.42c.17-.12.05-.46,0-.61a2.06,2.06,0,0,1-.17-.33c-.05-.15-.23-.33-.24-.48-.09,0-.1,0-.18-.13a5.29,5.29,0,0,0-.41-.41,5.43,5.43,0,0,1-.63-.86c-.11-.17-.3-.4-.54-.37a.39.39,0,0,0-.35.54A2.66,2.66,0,0,0,381.61,54.52ZM376.41,61c.08.19.26.41.49.36.19-.38.46-.67.3-1.11-.09-.25-.53-.8-.83-.76-.48,0-.55.16-.52.44a.77.77,0,0,0,.3.51C376.33,60.65,376.3,60.8,376.41,61Zm-13-11.55a4.32,4.32,0,0,0-.68.13c-.27.16-.36.56-.69.68s-.44,0-.62.11c-.51.39.24.5.44.69s.24.32.52.24.33-.21.51-.27a1.94,1.94,0,0,1,1.19,0c.23.12.29.42.49.59a2,2,0,0,0,.46.19c.38.18.86.74.65,1.17s-.85.05-1.12.45a1.86,1.86,0,0,1,.41,1.06c0,.18,0,.44.15.52s.39,0,.5-.07.7-.23.79-.41-.1-.77-.07-1.06a.7.7,0,0,1,.45-.51c.42-.19.72.2,1,.5a3.52,3.52,0,0,1,.82,1.47.46.46,0,0,1-.06.38c-.11.11-.43.07-.5.24-.2.49,1.31,1.12,1.66,1.23a3.79,3.79,0,0,0,1.89-.06,2.15,2.15,0,0,1,1.57.46,3,3,0,0,1,.72.56,3.42,3.42,0,0,1,.58.56c.16.24.23.48.54.51a4.79,4.79,0,0,0,.85-.06c.35,0,.57.28.9.36a.53.53,0,0,0,.56-.07c.1-.09.22-.3.1-.38-.07-.31,0-.45-.19-.57a3.66,3.66,0,0,1-.74-.37.56.56,0,0,0-.66-.12c-.28.11-.44.17-.66-.09s-.36-.51-.59-.74c-.38-.42-.24-.88-.27-1.4a4,4,0,0,0-.23-.87c-.14-.47-.21-1-.39-1.43-.11-.27-.28-.53-.38-.81a3.15,3.15,0,0,0-.33-.78,1.67,1.67,0,0,0-.69-.52,1.69,1.69,0,0,1-.49-.23c-.07-.06-.12-.15-.19-.2a4.82,4.82,0,0,0-.84-.54c-.2-.09-.41-.06-.6-.18-.45-.29-.94-.91-1.56-.62-.2.09-.32.54-.49.57s-.53-.53-.77-.62a1.08,1.08,0,0,0-.88,0c-.21.15-.14.34-.28.51a.84.84,0,0,1-1.06.11c-.21-.1-.28,0-.5,0a1.8,1.8,0,0,1-.63-.21C363.7,49.44,363.67,49.39,363.39,49.48Zm4.42-1c.15.07.34,0,.48-.1.35-.15.79-.13.84-.6,0-.18.17-.3.16-.47s-.12-.45-.22-.46a1,1,0,0,0-.68.15c-.19.06-.34,0-.46.19a1.55,1.55,0,0,1-.12.22c-.06.07-.14.09-.2.15a.54.54,0,0,0-.1.43A.63.63,0,0,0,367.81,48.43Zm7.36,8.11a1.3,1.3,0,0,0,.45.35,1.66,1.66,0,0,0,.75.24c0-.16,0-.22-.08-.3s-.31-.12-.47-.29a2.19,2.19,0,0,1-.56-1.1c0-.15-.06-.25-.26-.14s0,.34.09.49S375.06,56.33,375.17,56.54Zm15.31,10.75c-.2-.08-.22-.23-.45-.22s-.5.32-.63.56c.15.29,1,.22,1.22.32s.41.73.77.6.34-.79.13-1S390.84,67.44,390.48,67.29Zm-3.07,1c.07,0,0-.14.14-.2s.17,0,.25-.1.21-.41.22-.63,0-.72-.16-.77-.09.5-.17.68a4,4,0,0,1-.44.64c-.06.09-.16.19-.1.29S387.35,68.29,387.41,68.26ZM402,85.42c0-.41-.38-.38-.6-.58s-.12-.43-.27-.51a.67.67,0,0,0-.46,0,1.4,1.4,0,0,0,0,1.1C400.87,85.78,402,85.89,402,85.42ZM389.93,66.1c.28-.22,0-.65-.34-.61,0,.05,0,.1-.07.14C389.27,65.85,389.6,66.34,389.93,66.1Zm-29.06,94c-.09-.38-.07-.94-.34-1.25-.62-.69-1.14.27-1.8.05-.39-.13-.43-.66-.51-1.05-.12-.58-.36-.63-.79-1a1.35,1.35,0,0,1-.44-1c0-.55.27-.52.71-.74,1.3-.67-.73-.88-.62-1.7.06-.41.72-.55.24-.93a.63.63,0,0,0-.95.12,2.16,2.16,0,0,0-.1,1.08c.06.46.31.59.46,1s-.18.79-.23,1.24.19.69.37,1.1-.09.85.26,1.3c.19.23.83.54.68.86a5.36,5.36,0,0,1-1.38-1.39c-.09-.14-.07-.38-.19-.5s-.43-.12-.61-.22c-.35-.19-.54-.52-1-.59-.74-.13-1.17.41-1.88,0a2.83,2.83,0,0,0-.84-.45,7.9,7.9,0,0,0-1.09-.46,10,10,0,0,0-1.43.09c-.34,0-1-.07-1.19.3.43.29.95.07,1.42.15a6.48,6.48,0,0,0,1,.23c.27,0,.54,0,.81,0a1.54,1.54,0,0,1,1,.38,10.14,10.14,0,0,0,1.35.44,2.61,2.61,0,0,1,.75.48c.47.37,1,.33,1.52.61.72.41.85,1.36,1.33,2a2.39,2.39,0,0,0,2.23.8c.32.29.71,1.07,1.08,1.18s.62-.27.59-.65A8.84,8.84,0,0,0,360.87,160.13Zm-11.32-9.46c-.31.07-.71.14-.31.5a1.68,1.68,0,0,0,.93.26,2.78,2.78,0,0,0,1.39-.25c.48-.21,1.23-.48,1.47-.3s.28-.23.48-.4a.92.92,0,0,1,.55-.08c.31,0,1.09.08,1.24-.3s-.78-.43-1-.58-.31-.3-.55-.35-.45.06-.66,0c-.59-.19-.77-.56-1,.2a1.76,1.76,0,0,1-1.07,1,1.68,1.68,0,0,1-.67.09A4.2,4.2,0,0,0,349.55,150.67Zm1.84-2.58a1,1,0,0,0,.69.32,1.59,1.59,0,0,0,0-1c-.14-.25-.48-.44-.67-.67s-.24-.38-.41-.34-.09.27-.06.39c.11.34.43.46.43.86A.87.87,0,0,0,351.39,148.09Zm3.58,3.14c-.26,0-.5,0-.76,0-.52,0-.2.41.14.45.17,0,.28,0,.44.07s.21.18.32.24a3.81,3.81,0,0,1,.5.23c.22.16.25.24.3.13,0-.33-.38-.74-.58-1S355.17,151.22,355,151.23Zm-9.16,2.28c-.26,0-.69-.1-.64.29s.27.35.45.5a4,4,0,0,1,.49.69c.42,0,.57-.23.72-.57s.36-.82.05-1.07A3.79,3.79,0,0,1,345.81,153.51Zm-2-.08c-.24,0-.67-.26-.73.07s.2.5.43.64a.48.48,0,0,0,.46.07,4.05,4.05,0,0,1,.5-.12.47.47,0,0,0,.37-.22c.05-.11.06-.36-.06-.43A6.3,6.3,0,0,0,343.8,153.43Zm-1.69-.08a1.49,1.49,0,0,1-1,.31c-.23.35.46.77.75.66a.58.58,0,0,0,.4-.44C342.28,153.75,342.27,153.36,342.11,153.35Zm1.84-4.26c.16-.15.2-.5.26-.7a5.31,5.31,0,0,1,.3-.64,1,1,0,0,0-.1-.8c-.07-.15-.09-.25-.28-.21a.53.53,0,0,0-.35.25s-.29,0-.46-.09a1.4,1.4,0,0,0-.41-.13c-.28,0-.39.1-.36.37a.75.75,0,0,0,.13.36.82.82,0,0,1,.07.28,1.65,1.65,0,0,0,.24.65,2.35,2.35,0,0,0,.39.67A.58.58,0,0,0,344,149.09Zm.41-7.13c-.19.08,0,.52-.25.6s-.51-.16-.66-.08,0,.57.12.69.34.19.42.37a2.25,2.25,0,0,1,.07.58c0,.22.27.69.51.4a1.31,1.31,0,0,0,.26-.62c.06-.33.09-.67.12-1a1.26,1.26,0,0,0,0-.61C344.82,142.1,344.6,141.87,344.36,142Zm-7,7.38a5.48,5.48,0,0,0-1-.53c-.32-.16-.6-.38-.91-.57a2.93,2.93,0,0,0-1-.44.8.8,0,0,1-.55-.31,2,2,0,0,0-.49-.43,5.17,5.17,0,0,1-.75-.36,7.15,7.15,0,0,1-1-1.39,2.42,2.42,0,0,0-.86-.58,1.74,1.74,0,0,0-1,0c-.46,0-.91.07-1.39.07s-.44-.13-.22-.42.39-.42.41-.72c0-.86-1.11-.55-1.53-.26a1.12,1.12,0,0,0-.37.54,1.57,1.57,0,0,1-.35.63c-.29.35,0,.73.38.89s1,.5,1.48.71a4,4,0,0,0,1.38.09,1.1,1.1,0,0,1,.59.12,1,1,0,0,0,.61.15c.24,0,.3-.14.49-.25s.38,0,.58.13a4.48,4.48,0,0,0,1.11.57,1.15,1.15,0,0,1,.81.76c.09.4,0,.85.29,1.18s.76.38,1.06.61a2.44,2.44,0,0,1,.49.47c.26.34.8.46,1,.77.23,0,.55,0,.76-.05C338,150.49,337.7,149.64,337.33,149.34Zm2.45,1.4c0-.29-.48-.23-.65-.12a.74.74,0,0,0-.33.3.37.37,0,0,1-.19.2c-.19.07-.4.11-.6.17s-.19,0-.24.16a1.21,1.21,0,0,0-.13.67.63.63,0,0,0,.13.3c.08.12.15.26.22.38a.81.81,0,0,0,.31.35.84.84,0,0,0,.54.1c.28,0,.46-.2.35-.48a1.44,1.44,0,0,0-.23-.32.86.86,0,0,1-.07-.53c0-.33.31-.45.58-.59a.55.55,0,0,0,.3-.26C339.84,150.92,339.8,150.72,339.78,150.74Zm25.05-7.49a4.79,4.79,0,0,0-.45,1.49,13.06,13.06,0,0,1-.52,1.74c1.13.18,1-.3,1.11-1.14a3.19,3.19,0,0,0,0-1.91Zm-2.84,4c-.16,0-.29.31-.38.43a.92.92,0,0,1-.94.44c-.14,0-.32-.13-.46,0s-.16.52,0,.6a3.2,3.2,0,0,0,.49-.07,2.42,2.42,0,0,0,.47,0,2,2,0,0,0,.82-.4c.22-.17.63-.53.65-.74S362.2,147.23,362,147.28Zm-1.18,3.06c.14-.14.34-.05.39-.27s-.31-.37-.41-.31a1.4,1.4,0,0,0-.41.51c-.09.2,0,.4.2.42S360.67,150.48,360.81,150.34Zm-1.7.44a.22.22,0,0,0,.05-.38l-.17,0a.77.77,0,0,0-.27,0c-.25.06-.21.51-.12.53A1.52,1.52,0,0,0,359.11,150.78Zm12.57.31a3.79,3.79,0,0,0-1,2.39c.11,1.09.77,2.73,1.07,2.64s-.34-3.42.15-4.67C371.91,151.33,372,151.05,371.68,151.09Zm-36.27-49.82c-.37,0-2,1.38-1,1.71.46.16.44-.32.58-.54S335.79,101.3,335.41,101.27Zm.55,2.78c0-.14-.2-.46-.34-.37a1.14,1.14,0,0,0-.27.93c0,.34.2,1,.41,1s-.3-.84-.05-1.19C335.81,104.26,335.94,104.26,336,104.05Zm.41-1.59c.21,0,.27-.51,0-.51l-.09.06C336.1,102.19,336,102.51,336.37,102.46Zm23.9-42.82a1.47,1.47,0,0,0-.51.41c-.3.49,0,1.47.28,1.55s.86-1,.85-1.58.88-.44.9-1c0-.34-.31-.42-.59-.35a.79.79,0,0,0-.48.48A1.05,1.05,0,0,1,360.27,59.64Zm.45-1.67c.19-.06.14-.36.24-.52s.32-.2.29-.45-.24-.15-.43-.07a.63.63,0,0,0-.2.73A2.76,2.76,0,0,0,360.72,58ZM342.64,42.61a.66.66,0,0,1-.75-.33c-.17-.23-.27-.5-.48-.16a3.35,3.35,0,0,0-.28,1c-.09.41-.16.34-.59.36s-.35.18-.42.57a4.11,4.11,0,0,0-.13.7c0,.26.1.71.37.77s.58-.16.77-.24a1.08,1.08,0,0,0,.61-.52c.08-.2,0-.7.18-.86.41-.38,1.32.24,1.2.74s-1.08,1-.32,1.48c.5.31,1.39.15,2,.24s.69.63,1.17.6c.66,0,1.42-.24,1.85.45a5.84,5.84,0,0,0,.51,1c.25.28.61.21,1,.21H351a2,2,0,0,0,1-.19,1,1,0,0,0,.3-.21.86.86,0,0,1,1-.29,2.52,2.52,0,0,0,.57.23,1.41,1.41,0,0,0,.46,0,1.24,1.24,0,0,0,.53-.34c.11-.11.2-.29.38-.26s.44.39.78.39.69-.08.69.32,0,.53-.3.55-.77-.17-1.08,0-.13.53-.21.8-.55.63-.42.92.36.11.5.08.29-.19.4-.32.22-.56.47-.6.33.21.55.17.31-.33.57-.35a4.58,4.58,0,0,1,1,.18,1.53,1.53,0,0,0,.86-.24,1.36,1.36,0,0,1,.74-.14.82.82,0,0,0,.75-.28c.21-.28.49-.65.86-.7a.52.52,0,0,1,.55.44c.05.22,0,.47.09.67s.22.36.35.35c.28,0,.48-.54.74-.62s.74.19.73-.19c0-.19-.59-.55-.72-.69s-.32-.49-.53-.7A11.55,11.55,0,0,1,361,45.84a4.14,4.14,0,0,0-.44-.7,2.72,2.72,0,0,0-1-.34c-.34-.11-.45-.22-.46-.58,0-.52.14-.37.48-.5,0-.36-.4-.64-.7-.77s-.63-.09-.89-.29c-.45-.35-.6-.81-1.36-.74a3.48,3.48,0,0,0-1.6.52c-.3.19-.63.35-.93.53s-.57.53-.93.72c-.65.33-1.39,0-2.05-.06a2.66,2.66,0,0,0-1.35.37,3.1,3.1,0,0,1-1.18.08,2.82,2.82,0,0,1-1.87-.41,5.77,5.77,0,0,0-1.12-.72,1.1,1.1,0,0,0-.54,0c-.14.05-.18.17-.32.21-.42.13-.71-.27-1-.47S343.05,42.53,342.64,42.61Zm-2.73-3.1c.13.1,0,.28.1.39s.32,0,.43,0,.31-.1.36.08a1.82,1.82,0,0,1,0,.33c0,.21.11.21.3.23a.76.76,0,0,1,.6.29c.16.27.52.35.8.47a1,1,0,0,0,.29.1.67.67,0,0,0,.32,0,.6.6,0,0,0-.05-.77,7,7,0,0,1-.81-.62c-.46-.47-.78-1.19-1.54-1.19a.75.75,0,0,0-.42.07,1.14,1.14,0,0,1-.3.13,1.93,1.93,0,0,1-.24,0c-.14,0-.15.13-.13.27S339.79,39.42,339.91,39.51Zm-3.5,4.62c0,.11.22.13.33.14a4.34,4.34,0,0,0,.63-.07c.19,0,.51.22.69,0s0-.24,0-.36.13-.17.23-.23.47-.15.55-.39c-.13-.15-.12-.29-.21-.36a.4.4,0,0,0-.32,0c-.24.06-.33.31-.59.34a1.79,1.79,0,0,1-.56.07,2.08,2.08,0,0,1-.3-.13.79.79,0,0,0-.43,0c-.15.11,0,.49,0,.66S336.37,44,336.41,44.13ZM331.53,46a.79.79,0,0,1,.44.23,2.29,2.29,0,0,0,.51.28.75.75,0,0,0,.71-.08,2.55,2.55,0,0,1,.75-.25,1.74,1.74,0,0,0,.54-.15.91.91,0,0,0,.44-.48c0-.47-.89-.51-1.21-.42s-.82.53-1.15.32-.29-.83-.7-1c-.17-.08-.25,0-.36.14a.48.48,0,0,1-.35.1c-.3,0-.55,0-.69.3a.7.7,0,0,1-.32.34c-.07,0-.13,0-.16.13s.06.27.15.34C330.5,46.12,331.08,46,331.53,46Zm-3.67-1.43a1.61,1.61,0,0,1,.3.21,1.5,1.5,0,0,0,1.14.2.84.84,0,0,0,.05-.54c-.05-.15-.23-.19-.36-.26a1.29,1.29,0,0,0-.53-.18,2.28,2.28,0,0,0-.45.11c-.14,0-.74-.06-.56.26C327.52,44.5,327.74,44.52,327.86,44.57Zm5.87-.36c0,.44.48.36.67.28a4.11,4.11,0,0,1,.42-.21,3,3,0,0,1,.41-.08c.3-.07.28-.53,0-.52s-.59.17-.92.07c-.13,0-.22-.09-.36,0S333.53,44.17,333.73,44.21Zm5.7.4c.2,0,.15-.17.21-.32s.11-.13.09-.24-.05-.12-.14-.14c-.29,0-.36.34-.44.53S339.26,44.64,339.43,44.61Zm1-2.92c-.09.07-.18.47,0,.48.1.21.17.31.36.28s.13-.19.09-.33a.84.84,0,0,1-.08-.2,1,1,0,0,1,0-.17C340.82,41.5,340.63,41.53,340.47,41.69Zm-16.23,99.13a2.89,2.89,0,0,1-1.06,0,2,2,0,0,1-.6-.51c-.16-.19-.19-.35-.44-.46a2,2,0,0,0-.7-.09c-.51-.05-1.18-.42-1.66,0-.33.27.07.8.37.94s.46,0,.67.11.31.4.52.57a3.43,3.43,0,0,0,.92.3,1.27,1.27,0,0,1,.65.48c.17.22.31.54.56.66s.66.18.95.3a.68.68,0,0,0,.75,0c.32,0,.38-.09.47-.41,0-.16,0-.11.11-.22a1.84,1.84,0,0,0,.23-.25,1.13,1.13,0,0,0-.09-1.26C325.57,140.66,324.64,140.82,324.24,140.82Zm-5.21-2c.27-.21.69-.06,1-.07a1,1,0,0,0-.14-.68,2.56,2.56,0,0,0-.51-.35,6.14,6.14,0,0,1-1.08-.87,18.06,18.06,0,0,0-1.23-1.38c-.36-.33-.7-.7-1.07-1-.64-.58-1.2-1.38-2.1-1.57a2.12,2.12,0,0,0-1.25.11c-.32.15-.73.24-.87.61-.19.56.42.73.8,1,.2.15,1.38,1,1.41.29,0-.21-.23-.29-.34-.45a.7.7,0,0,1-.13-.56c.2-.58.88.24,1.09.41.46.36,1,.58,1.46,1s.53.92.91,1.31c.12.13,1.06,1,.53,1-.24,0-.58-.29-.71-.46-.27-.34-.42-.75-.68-1.09s-.91-1.15-1.27-.5c-.2.35.19.59.42.83a3.51,3.51,0,0,1,.42.59c.32.53.63,1.11,1,1.62s1.16.61,1.7.93c.08,0,.16.13.24.19s.21.12.52.1a.38.38,0,0,0,.36-.48C319.44,139.13,319.1,139.08,319,138.84Zm-12-10.43c-.51-.6-.93-1.37-1.46-1.92a2.18,2.18,0,0,0-2.14-.14.81.81,0,0,0,.24,1.54c.72.18,2.43-.24,2.25,1-.32,0-.65,0-1,0a1.48,1.48,0,0,0,1,1.19,8.37,8.37,0,0,0,1.65,0c.64.16.39-.74.18-1S307.24,128.67,307,128.41Zm-5.91-2.1a2.12,2.12,0,0,0-1.79,0c-.83.44.38.64.66.75.58.22.74.85,1.25.69.5,0,1.06-.06,1-.69C302.12,126.69,301.46,126.47,301.1,126.31Zm15.68,1.54a1.24,1.24,0,0,0-.42.18c-.63.26.19,1,.69.9A.56.56,0,0,0,316.78,127.85Zm.64-.52c.21,0,.21-.48-.06-.43l-.05,0C317.16,127,317.11,127.4,317.42,127.33Zm6.23-88.41c-.14.39-.12.83-.26,1.23s-.4.74-.53,1.12a2.83,2.83,0,0,0,.32,2.73c.2.2.34.14.58.23s.28.19.43.37c.28.34.55.32,1.21.35,0-.4.38-.54.1-.94s-.74-.42-1.18-.58a1.13,1.13,0,0,1-.7-1,3,3,0,0,1-.07-1.45c.32,0,.65,0,.82-.29s0-.56-.05-.86a5.38,5.38,0,0,1,.17-1.26C324.62,37.82,323.8,38.53,323.65,38.92Zm-11.76,1.92a.91.91,0,0,1,.66-.13c.18,0,.31.16.56.1s.3-.21.45-.26a3,3,0,0,1,.6,0c.24,0,.49-.08.54-.32s-.16-.38-.32-.55c.22-.06.49,0,.72-.09a1.31,1.31,0,0,0,.4-.17c.12-.1.06-.22.24-.28s.58.21.83.25a1.19,1.19,0,0,0,.81-.24c.4-.25,1-.08.93-.7s-.53-.76,0-1.19c.17-.13.36-.21.53-.35s.28-.39.43-.47a2.18,2.18,0,0,1,1,.09c.43.18.44.59,1,.4a1.6,1.6,0,0,1,1.38.14c.55.24.73,0,1.27-.12a2.14,2.14,0,0,1,.62.06c.28.08.28.17.27.48.33.25.88,0,1.17-.12a.8.8,0,0,0,.44-1c-.35-.72-2.05-.72-2.7-.54a4.34,4.34,0,0,1-2.42.44c-.43-.12-.73-.52-1.14-.63a1.26,1.26,0,0,0-1.21.25c-.21.22-.15.33-.15.58,0,.41-.32.45-.6.71a1.38,1.38,0,0,0-.39.44c-.06.18,0,.33,0,.51-.19,0-.37,0-.54,0-.2-.3.24-.89-.38-.85-.33,0-.67.35-1,.51a.62.62,0,0,0-.35.46c0,.13.05.36-.07.44s-.3-.06-.42-.09a2.24,2.24,0,0,0-.58,0c-.4,0-.38,0-.32-.42,0-.26.1-.72-.24-.79s-.86.34-1.18.4-.79,0-1.07.14a.44.44,0,0,0,0,.69c.25.2.61.05.89,0a2.06,2.06,0,0,0,1-.18c.15-.08.25-.28.42-.14a.53.53,0,0,1,0,.46c-.15.25-.59.22-.34.6.09.13.7.46.3.65s-.62-.4-.9-.39-.56.34-.9.32-.56-.41-.9-.42-.37.31-.55.47a1.67,1.67,0,0,1-.95.41c-.42,0-1-.19-1,.43a4.64,4.64,0,0,0,1.76.38A3,3,0,0,0,311.89,40.84ZM308.19,49c.14.11.49.43.57.26a.64.64,0,0,0,.52-.42c0-.14-.09-.4,0-.49s.35,0,.39-.21-.17-.17-.3-.18c-.4,0-.84,0-1.24,0s-.8,0-.47.51A2.28,2.28,0,0,0,308.19,49Zm-3-1.39c0,.43.4.54.76.5s.86-.35.77-.66c.08-.15-.34-.13-.57-.06S305.53,47.48,305.22,47.57Zm3.12-4.39c.32.31,1.19.1,1.08-.45,0-.18-.06-.2-.25-.24s-.28.1-.47.21S307.89,43.08,308.34,43.18ZM320,39.3c.4-.06.39-.27.5-.61s.25-.65-.2-.62-.66.56-.69.9a.18.18,0,0,0-.09.33A1.11,1.11,0,0,0,320,39.3Zm1.32-1.55c.07.1.22,0,.3,0s.3,0,.35-.09-.16-.15-.23-.15S321.25,37.52,321.28,37.75Zm-1.75,0c0-.15-.15-.42-.36-.32s.05.22.09.28.12.28.2.31S319.56,37.77,319.53,37.7ZM309.07,50.39c-.05.09,0,.25,0,.25,0,.39.33.78.47,1.13.07.2.08.24.3.24s.38,0,.42-.24-.17-.26-.31-.37a.83.83,0,0,1-.28-1,.62.62,0,0,0,.1-.51c-.07-.15-.37-.23-.48-.09s0,.32,0,.43S309.12,50.31,309.07,50.39ZM301.38,38c-.23.08-.19,1.12-.14,1.37a1.73,1.73,0,0,0,1.47,1h.17c.18-.82-.44-.67-.72-1.31C302.05,38.77,302,37.76,301.38,38ZM286.11,26c.46.3,1.71-.13,2.37.21a2.33,2.33,0,0,1,.31.16,4.08,4.08,0,0,0,.25-.33c-.32-.46-.54-1-1-1.2-.31-.15-1-.19-1.37-.31s-.53-.5-1-.24C286.29,24.85,285.59,25.67,286.11,26Zm3.21,3.1c.32.65,1.62-.27,2.17-.41.75-.19,1-.17,1.59.56s.44,1.34.86,1.9c.24.32.76.43,1,.75s.12.78.35,1.1,1.21.46,1.69.76,1,.67,1.52,1l1,0a2.56,2.56,0,0,1,.88.34,3.13,3.13,0,0,1,.79.41c.24.17.24.34.24.61s.2.49.52.57a2.4,2.4,0,0,1,1.15.54c.2.18.27.44.51.57a2.26,2.26,0,0,0,.93.13c.32,0,.35.21.47.45a1.68,1.68,0,0,0,.3.52,1.15,1.15,0,0,0,.74.31c.82-1.21-.45-1.32-1.1-2.08a6.17,6.17,0,0,0-2.63-2.27,10.4,10.4,0,0,1-2-.91c-.75-.44-1.67-.82-2.39-1.24-.35-.2-.6-.53-1-.78s-.72-.27-.91-.48-.14-.54-.32-.8c-.47-.64-1.4-.89-2-1.55a4.46,4.46,0,0,0-2.17-1.71,9.07,9.07,0,0,1-1.9-.65h0l-.22.08c.3.23.57.48.59.7C290.13,28.16,289,28.39,289.32,29.12Zm6.1,8c.15.25.25.23.53.23s.37,0,.4-.19a1.06,1.06,0,0,0-.08-.5c-.07-.17-.33-.3-.36-.48s.16-.25.19-.39-.17-.49-.33-.5a.58.58,0,0,0-.4.05c-.12.08-.12.13-.11.27a2.24,2.24,0,0,1,0,.58A1.22,1.22,0,0,0,295.42,37.12Zm5.38-.4a.34.34,0,0,0-.3.4.22.22,0,0,0,.13.19.35.35,0,0,0,.14,0,.11.11,0,0,0,.1-.06v0s.08,0,.1-.1a.29.29,0,0,0,0-.16C301,36.86,301,36.71,300.8,36.72Zm1.7,1.2c.06,0,.14,0,.18,0s-.08-.32-.24-.32,0,.14,0,.19S302.42,37.89,302.5,37.92Zm-6-3.35c0-.07-.06-.06-.12,0a.36.36,0,0,0-.28.4c-.05.16.18.19.25.09s0-.21.05-.3S296.55,34.65,296.53,34.57Zm2.49.55c-.11,0,0,.19.06.21s.22,0,.32-.08.26,0,.18-.18S299.1,35.05,299,35.12ZM272.43,20.73c.2.34.77.47.79-.06s-.21-1.05.39-1.15c.27-.05.29.11.43.27a2.53,2.53,0,0,1,.42.51,1.38,1.38,0,0,0,.51.63c.37.14.44-.15.56-.4s.22-.66.34-1,.3-.28.43-.49c.28-.43-.41-.66-.74-.66s-.56-.17-.87-.15-.48.1-.73.13c-.5.05-.94-.23-1.28.26a1.29,1.29,0,0,1-.43.5c-.17.09-.37,0-.43.26s.18.44.3.61S272.29,20.49,272.43,20.73Zm-4.07-4.17c.53-.13.6-.62,1-.88a.84.84,0,0,0,.4-.34c.08-.19,0-.19-.06-.34a2.73,2.73,0,0,0-.13-.29.36.36,0,0,0-.26-.16c-.36-.08-.86-.32-1.19,0-.15.12-.11.37-.17.54s-.33.4-.39.63a1.08,1.08,0,0,0,.11.66A.57.57,0,0,0,268.36,16.56Zm-3-2.81c.15.63.79.12,1.18.38.22.15.14.53.22.75s.27.19.52.17a1.24,1.24,0,0,0-.18-.7c-.1-.19-.33-.44-.29-.67-.21-.19-.14-.52-.14-.72a.64.64,0,0,0-.29-.66c-.21-.13-.36-.32-.61-.33a.74.74,0,0,0-.7.42c-.11.33.1.53.21.81A4.54,4.54,0,0,1,265.33,13.75Zm-7.24-2.37c.27.26.36.39.79.39s.71.37.93.8a3.26,3.26,0,0,0,.24.4,1.22,1.22,0,0,0,.15.17c.08.07.14,0,.19.15.15.32-.5.47-.66.64s-.19.57-.14.91c0,.16.1.29.12.46s0,.27,0,.41.22.9.55.81a5.83,5.83,0,0,0,.19-.85,3.39,3.39,0,0,1,.07-.64,1.28,1.28,0,0,1,.31-.64c.2-.22.33-.47,0-.66s-.33-.08-.36-.24.13-.3.23-.36a6.46,6.46,0,0,1,.92-.44c.45-.17,1.44-.3,1.24-1s-1.13-.29-1.59-.35a2.55,2.55,0,0,1-1.3-.65,3.12,3.12,0,0,1-.85-1.4c-.5,0-.42.61-.78.86s-.84.08-.86.51S257.8,11.11,258.09,11.38Zm-6.76,5.68c-.28,0-.59.14-.57.48s.19.39.31.58.21.47.52.39a3.3,3.3,0,0,1,1-.21h1a9.87,9.87,0,0,1,1.77.41,9.22,9.22,0,0,1,1.19.18c.18.06.35.23.58.18s.2-.38.16-.64a.9.9,0,0,0-.29-.67.6.6,0,0,0-.34-.18c-.12,0-.26,0-.3-.12s.39-.54.52-.6.28-.18.23-.34-.29-.22-.34-.41.06-.36-.14-.43-.27.05-.38.09-.4.18-.6.25a3.66,3.66,0,0,1-1,.09c-.7,0-.25.37-.45.77s-.58.2-.82.18c-.41,0-.79-.11-1.2-.11A7.35,7.35,0,0,0,251.33,17.06Zm-1.17,1c-.31-.06-.36.39-.32.61a1,1,0,0,0,.54.67c.19,0,.34,0,.42-.17a.55.55,0,0,0,0-.38c-.11-.14-.28-.12-.36-.3S250.36,18.05,250.16,18ZM263.1,12.7c.13.18.17.29.42.24.07,0,.22,0,.22-.14s-.14-.12-.18-.18-.06-.25-.24-.29a1,1,0,0,0-.38,0C262.72,12.28,263.07,12.66,263.1,12.7Zm1.3.07c.15,0,.11-.1.11-.21s.09-.28-.08-.32-.19.2-.19.34S264.27,12.76,264.4,12.77ZM251.21,8.58c.28.22.25.66.58.78s.86-.08.77-.46-.7-.31-1-.54-.64-.64-.94-.44C250.44,8.35,251,8.4,251.21,8.58Zm-4.8-.41A3.73,3.73,0,0,0,247,8c.16,0,.33,0,.49,0a1.45,1.45,0,0,1,.55-.15,1.24,1.24,0,0,1,.6.15c.2.13,0,.13,0,.3a.37.37,0,0,0,.18.36c.41.26.86-.37.77-.73s0-.45-.41-.48a1.13,1.13,0,0,1-.31-.06c-.12-.05-.11-.13-.18-.22s-.4-.11-.56-.11a1.6,1.6,0,0,0-1,.09,1,1,0,0,1-.55.18,2.69,2.69,0,0,1-.49,0c-.15,0-.44-.16-.6,0s0,.32,0,.43A.92.92,0,0,0,246.41,8.17Zm3.48,1.73c.13,0,.13,0,.15-.13s0-.15.09-.21.17,0,.22-.07,0-.26,0-.32-.15-.12-.34-.07-.36.4-.27.65A.22.22,0,0,0,249.89,9.9Zm6.25,1.56a3.49,3.49,0,0,1,.56,0c.22,0,.37,0,.38-.2s-.22-.5-.42-.31-.47,0-.64.11a.29.29,0,0,0-.12.26C255.92,11.46,256,11.46,256.14,11.46Zm5.58-.3c0-.12-.13-.16-.19-.23s-.06-.11-.16-.1-.13.06-.09.13S261.63,11.42,261.72,11.16ZM238.78,5.93c.24,0,.43.06.66.07s.47-.1.7-.12.33,0,.41,0,0,.19,0,.25.43.11.66.11a.82.82,0,0,1,.47.07c.16.1.27.33.44.42.33.18.8,0,1.11-.24s1-.34,1-.64c0-.08-.12-.16-.16-.22s-.1-.06-.17-.17-.08-.56-.42-.67-.6.56-.85.71a1.19,1.19,0,0,1-.7.1c-.33,0-.55-.06-.73-.3a3.59,3.59,0,0,0-.68-.84c-.28-.21-.45-.31-.78-.18a1.79,1.79,0,0,0-1,.66,3.73,3.73,0,0,0-.45.72C238.23,6,238.52,5.93,238.78,5.93Zm-.93-1a.88.88,0,0,0,.29.18.13.13,0,0,0,.12,0h0s0,0,0-.08a1.82,1.82,0,0,1-.11-.3A4.18,4.18,0,0,0,238,4.1a1.05,1.05,0,0,0-.74-.72,1.92,1.92,0,0,0,.1,1.28A1.74,1.74,0,0,0,237.85,4.94Zm-7.57,5.45c.08,0,.28.17.38.12s.11-.22.22-.29,1.3-.12,1.23-.46c-.53-.24-.46-1.51-1.11-1.52-.48,0-.23.59-.34.88s-.62.29-.77.61S230.08,10.27,230.28,10.39Zm-10.95-.88c.71-.41.79-1.14,1.79-1.09a10.28,10.28,0,0,1,2.6.08,3.11,3.11,0,0,0,1.63,0c.5-.12,1.18,0,1.4-.57s-.51-.4-.81-.83-.06-1.24-.81-1.06c0,.63-.08.76-.61.24-.3-.29-.83-.68-1.28-.56,0,.38.18.84.09,1.15a2.92,2.92,0,0,0-1-.27c-.39,0-.39.31-.68.46s-.62,0-.86.13a2.67,2.67,0,0,0-.72.54,5.21,5.21,0,0,1-1.52,1.12,3.87,3.87,0,0,0-1,.51,1.48,1.48,0,0,0-.37.94,6.94,6.94,0,0,1,1-.45A3.81,3.81,0,0,0,219.33,9.51Zm3.83-4.57Zm0,0H223A.34.34,0,0,0,223.16,4.94Zm0,0c.34-.11.26-.89-.06-1S222.43,4.93,223.16,4.94ZM225,4.52c.28.27.38.69,1.07.66a.81.81,0,0,0,.23-1.11,4.16,4.16,0,0,0-1.07-.8.5.5,0,0,0-.83.32C224.23,4.07,224.7,4.26,225,4.52Zm3.9.6c.88,0,.46-.65.38-1.22-.38-.15-.66.25-.71.59S228.68,5,228.87,5.12Zm2.2,1c.39.17.29-.92.74-.73.22.1.46,0,.69-.06s.5,0,.51-.36a.74.74,0,0,0-.88-.76,3.49,3.49,0,0,1-.38.1c-.1,0-.18-.07-.29,0-.28.13-.25.56-.41.77s-.32.24-.26.55A1,1,0,0,0,231.07,6.09ZM218.78.91c.18.09.84-.18.74.22a1.08,1.08,0,0,0,.31,0c.08,0,.11-.07.17-.09s.29-.07.36,0-.16.65.1.77.66,0,.91.13.23.24.39.31a.42.42,0,0,0,.48-.09c.31,0,.44-.24.61-.46s.36-.44,0-.63a.75.75,0,0,0-.74-.05,1.31,1.31,0,0,1-.78.11c-.44-.21-.15-1.49-1-1-.24.13-.33.28-.63.3s-.43,0-.65,0-.25,0-.33.19S218.64.84,218.78.91Zm-3,2.1c.25-.08.47-.62.6-.86a1.19,1.19,0,0,0,0-1.35.83.83,0,0,0-1,.63C215.2,1.75,215,3.23,215.75,3Zm-8.27,9.41v0c-.14.09-.31.62-.15.78a1.52,1.52,0,0,0,.74.12C208.81,13.19,207.81,12.25,207.48,12.42ZM197.47,74a3.23,3.23,0,0,1-1.8-.84,10.68,10.68,0,0,0-1.8-.76c-.22-.09-.79-.44-1-.26s.08.55.33.64.39,0,.54,0,.2.23.35.35a1.64,1.64,0,0,0,.86.37c.7.17.81.81,1.55,1a5,5,0,0,0,1.8,0c1.34-.2,3.53.13,3.61-1.94C200.8,73.84,199.21,74.05,197.47,74ZM184.1,71.31c.08-.11.05-.28.23-.3s.21.11.28.18c.23.26.26.7.49.94s.33-.27.36-.45.44-.55.28-.87-.47-.12-.48-.34-.44-.06-.66-.09a.78.78,0,0,1-.54-.21c-.15-.14-.19-.31-.4-.35-.72-.15-.34,1.27-.16,1.57S184,71.5,184.1,71.31ZM189.85,67a.71.71,0,0,0,.52-.82c-.07-.34-.37-.43-.67-.42,0,.14-.19.17-.3.22-.31-.28-.32.55-.22.72A.89.89,0,0,0,189.85,67Zm-7.57-.09a4.28,4.28,0,0,0,.23-1.34,1.15,1.15,0,0,0-.34-.87c-.23-.26-.34-.7-.78-.61s-.37.46-.6.75c-.09.11-.31.15-.35.33a.45.45,0,0,0,.18.42c.35.21.39-.37.63-.44.09.07.07.19.11.27s.14.09.17.17-.06.29-.11.41c-.15.36-.48.75-.47,1.14,0,.16,0,.45.21.54s.28,0,.37,0C182,67.64,182.11,67.36,182.28,66.94Zm-2.67-2.67c-.15,0-.21-.13-.33-.22s-.68,0-.92.13-.31.16-.35.28.11.23.23.3a1.47,1.47,0,0,0,.59.15,3.86,3.86,0,0,0,.43.09,1.13,1.13,0,0,0,.53-.25c.07-.07.25-.2.23-.31S179.71,64.3,179.61,64.27Zm-1.92,1c.1-.13,0-.33-.21-.47a2.28,2.28,0,0,0-.6-.36,2,2,0,0,0-1.31-.16,1.18,1.18,0,0,0-.53.25.34.34,0,0,0,0,.48c.17.11.36,0,.54-.07a1.06,1.06,0,0,1,.56-.07c.12,0,.23.15.36.19s.29.06.43.1C177.24,65.26,177.59,65.39,177.69,65.27Zm4.66,4.47c.09-.33-.14-.43-.3-.69a3.08,3.08,0,0,1-.16-.38.74.74,0,0,0-.13-.21s-.09-.15-.15-.13l0,0a.69.69,0,0,0,0,.2,2,2,0,0,0,0,.24,4.48,4.48,0,0,1,.11.5,1.59,1.59,0,0,0,.08.39C182,70,182.24,70.12,182.35,69.74Zm-17.58-4.19c.95-.33.37-.69-.23-.82a1.88,1.88,0,0,1-1.22-.81c0-.06-.09-.09-.13-.09s-.2.41-.2.56a1.2,1.2,0,0,0,.29.74A1.38,1.38,0,0,0,164.77,65.55ZM166.39,61c.08,0,.29,0,.24-.15s-.09-.08-.12-.11a.35.35,0,0,1-.08-.16c0-.06,0-.11-.1-.12s-.15,0-.1,0a.52.52,0,0,0-.09.36C166.16,61,166.27,61,166.39,61ZM111.22,66.8A.91.91,0,0,0,110,65.73a3.55,3.55,0,0,0-.43,1.63c0,.46.35.58.56,1,.33.56.46,1.22.77,1.81s.45.62,1.16.66,2.3-.8,1-1.08c-1-.21-2.78-.21-2.76-1.64C110.26,67.26,111,67.44,111.22,66.8Zm19.26,30.74a2.28,2.28,0,0,1-1.13-1.9c-.06-1.4-1.93-.64-2.25-1.89-.12-.45.17-.81.22-1.22a5.14,5.14,0,0,1,0-.68c.08-.32.28-.27.4-.49.22-.46-.28-.57.25-.94s.81-.32.65-1c-.24-1-1.07-2.24-2.2-2.12a.63.63,0,0,1-.23.28c-1-.27-.8-1.35-1.57-1.81-.33-.2-1.08-.06-1.27-.29,0-.07,0-.37,0-.47s-.28-.29-.45-.45-.24-.11-.3-.42a2.26,2.26,0,0,1,.12-.79,4.38,4.38,0,0,1,.59-1.16c.26-.46.39-.81,0-1.2a3.51,3.51,0,0,0-1.35-.8,3.31,3.31,0,0,1-1.18-.46c-.69-.55-.78-.44-1.58-.31a2.82,2.82,0,0,1-1.48-.32,12.65,12.65,0,0,1-1.37-.6,6.56,6.56,0,0,0-3.63-.8,12,12,0,0,1-3.55-.49c-.18,0-3.67-.89-2.88.36.28.45.51-.16.82-.18a2.88,2.88,0,0,1,1.33.63,20.15,20.15,0,0,1-3,1.53c-1,.57-.72,1.87-1.72,2.43-1.79,1-3,2.59-2.28,4.68a10.31,10.31,0,0,0,1.64,2.4,5.33,5.33,0,0,1,1,1.7c.09.47,0,1.14.29,1.56s.63.5.87.75a3.2,3.2,0,0,1,.7,1.31c.28.86.18,1.83,1,2.33.71.4,1.55,0,2,.86A1,1,0,0,1,108,99.14c-.12-.5.89-1.55-.15-1.54-.58,0-.57.39-.85.69a1.4,1.4,0,0,1-.91.45c-.45.07-.66-.07-.89.37-.1.2-.06.34-.23.53a1.84,1.84,0,0,1-1.35.5,4.55,4.55,0,0,1-2.83-.69c-.66-.48-1.16-1.11-1.77-1.65a4.05,4.05,0,0,0-1.22-.59,3.3,3.3,0,0,1-1.14-1c-.18-.22-1.16-1.28-1.34-.54-.09.37.73,1.31.91,1.64s.19,1,.39,1.45.49.77.69,1.18.22,1,.54,1.3a5.13,5.13,0,0,0,1.27.77,3.22,3.22,0,0,1,1.18.86c.34.47.52,1,.86,1.51s.88.46,1.43.54a11.79,11.79,0,0,0,1.7.2,19,19,0,0,1,2.8.67c.58.09,1.19.07,1.78.17a2.65,2.65,0,0,1,1.41.77c.53.4,1.65.23,2.31.13s1.1-.14,1.61-.28a19.3,19.3,0,0,0,1.91-.87c.92-.37,1.86-.32,2.78-.67.48-.19.91-.4,1.39-.56s1-.19,1.4-.34c1-.37,1.48-1.46,2.66-1.49a2,2,0,0,0,1.17-.23c.36-.21.71-.43,1.07-.63.7-.39,1.25-1.09,2-1.49.51-.28,2.33-.75,2.17-1.53C131.41,98.8,130.72,97.74,130.48,97.54Zm.82-8.33c-.31-.12-.37-.57-.63-.65-.6-.19-.53.35-.53.74a1.16,1.16,0,0,1-.44,1.12c-.31.31-.63.5,0,.66.42.11.68-.21,1-.3V90.6c.38-.51,1.75.06,1.49-1C132.07,88.92,131.76,89.38,131.3,89.21Zm5.85,10c-.52-.16-1-.33-1.54-.52h.3c-.58-.61-1.15-.07-.73.57a1.75,1.75,0,0,0,1.18.75,1.54,1.54,0,0,0,1.16-.25C137.78,99.38,137.49,99,137.15,99.17Zm1.94,0c-.3.9,1.91.78,2.52.59C141.66,99,139.41,98.23,139.09,99.19Zm3.37-.42-.06.12a.4.4,0,1,0,.78-.15C143.07,98.2,142.43,98.17,142.46,98.77Zm-6.64-5.53c.73-.44.16-.4.34-1.07.13-.48.84-.47.89-.91.08-.66-1.25-.64-1.68-.81a5.78,5.78,0,0,0-2.34-.33,1.22,1.22,0,0,0,.71.91c.15.06.46,0,.59,0s.11.33.33.49.74.05.77.55-.72.31-1.11.29C134,93.46,135.13,93.66,135.82,93.24ZM161.74,95c-.12-.15-.22-.42-.31-.51A1.39,1.39,0,0,0,160,94c-.13.59.36.6.53,1,.26.61-.25.69-.76.65-.26,0-.69-.27-.92-.06s.09.44,0,.52c-.4.37-1-.35-1.46-.39a.94.94,0,0,0-.06.15,1.32,1.32,0,0,0-1.31-.33c-.71.14-.26.5-.69.72-.95.49-1.14-1.4-1.88-1.2a2.8,2.8,0,0,0,1,2.11c.3.27.4.06.45.52a.75.75,0,0,1-.28.68c-.34.32-1,.38-1,1a6.69,6.69,0,0,0,1.73,0c.27,0,.49-.16.74-.22s.56-.08.89-.14c.7-.12.63-.52,1-1s1.28-.23,1.31-.78c.83.11,1.07-1,1.74-1.14.5-.12,1.48.42,1.32-.47C162.22,95.25,161.92,95.21,161.74,95ZM169.15,92c.08-.27.44-.56.15-.92a.79.79,0,0,0-.94,0c-.46.35-.15,1.12-.42,1.63s-.61.38-1.26.42c0,.26,0,.55,0,.82-.25,0-.88-.17-1,0s-.07.89-.16,1.1a.76.76,0,0,0-.16-.06c-.1-.92-.92-1.22-1.75-1.19A1.94,1.94,0,0,0,164,95.7c.23.23.54.31.75.55s.12.66.59.72c.7.1,1.34-1.63,2.09-1.93.33-.12.5,0,.85-.21.2-.14.18-.36.52-.49.55-.22,1,0,.69-.85C169.25,92.88,169,92.74,169.15,92Zm-6.27-1.32a1.11,1.11,0,0,0-.39.83.77.77,0,0,0,1.38.44C164.39,91.35,163.55,90.63,162.88,90.72Zm31.35.42c-.79,0-.88.32-1.55.36-1.57.11-.85,1.12-1.51,2.13s-2,.41-3,.7.09,1-.46,1.46c-.35.29-1.56-.83-2-.93s-.91.28-1.33.06-.28-.47-.66-.59a3.94,3.94,0,0,0-1,0c-.34.26-.75.11-.72.63s.42.41.8.51c.86.21.59.62,1.11,1.2a6.19,6.19,0,0,1,.55.63c.29.43.16.4.71.45a6.76,6.76,0,0,0,1.8-.1,3.15,3.15,0,0,0,1.43-.86c.42-.32.85-.46,1.26-.82a13,13,0,0,0,2.44-2.17,2.15,2.15,0,0,1,1-1c.5-.26,1.31-.36,1.66-.83C195.29,91.35,194.79,91.16,194.23,91.14Zm-15.65,3.43a6.17,6.17,0,0,0-1.49.12c-.31.08-.38.21-.39.5s-.08.62.21.72a.48.48,0,0,0,.64-.23.56.56,0,0,1,.53-.3c.45,0,1.35.17,1.74-.48C180,94.18,178.92,94.55,178.58,94.57Zm-22-6c-.06-.3-.3-.22-.57-.22-.65,0-.68.29-.54.87a4.57,4.57,0,0,1,.15,1.11c0,.22,0,.43.2.46a.9.9,0,0,0,.7-.46,3,3,0,0,0,0-1.26C156.38,89,156.62,88.85,156.57,88.6Zm1.29,2.57c.12-.21.34-.49.32-.74a.52.52,0,0,0-.72-.43l-.23.18C157,90.7,157.34,92.14,157.86,91.17Zm-9.22,6c-.51.76-1.11.27-1.72-.08-.33-.19-.67-.4-.9,0a1.06,1.06,0,0,0,.14,1,3.78,3.78,0,0,0,2,.19c.46-.07.51-.34.91-.53s.83-.24,1.07-.73a1.13,1.13,0,0,0-.83-.36C148.86,96.73,148.86,96.88,148.64,97.2Zm-4,.65c-.39-.2.05-.75-.53-.88s-.47.35-.65.65-.44.25-.77.25c.43,0,.49.56.93.6a11.29,11.29,0,0,0,1.31.06c.08,0,.11-.09.21-.12s0-.37-.06-.47S144.75,97.93,144.6,97.85ZM125.43,77.56c-.33.25-.24,1.28-.24,1.65s0,.8.55.82,1-.31,1.22.23.37,1,1.11.76a.67.67,0,0,0,0,.2c.42.15.22-.57.36-.72s.3-.07.4-.15a.52.52,0,0,0,.07-.72c-.22-.21-.79,0-1.1-.11s-.77-.39-1.15-.54c-.18-.07-.32,0-.42-.22a2.44,2.44,0,0,1-.06-.55C126.11,77.89,125.92,77.21,125.43,77.56Zm-1.69-2.47c.51,0,1.66.39,1.57-.48,0-.47-.48-.42-.86-.42s-.66-.06-.82.12S123.38,75,123.74,75.09Zm-5.45-4.67c.29,0,1,.17,1.1-.24a.59.59,0,0,0-.39-.66,3,3,0,0,0-.6,0c-.22,0-.44,0-.65,0s-.41.07-.43.3a1.93,1.93,0,0,0,.16.66C117.7,70.71,118,70.43,118.29,70.42ZM95,84.34c-.11-.43.14-1-.11-1.36a2.39,2.39,0,0,0-1-.68c-.61,0-.85.09-.55.49.15.2.33.2.41.41a1.4,1.4,0,0,1,0,.5,2.72,2.72,0,0,0,0,.94c.13.36.49.5.64.86s.16,1,.51,1.2a2.16,2.16,0,0,0,1,0C96.61,86.19,95.1,84.87,95,84.34ZM83.4,75.49c-.38.18-.45.63-.86.91s-1.41,0-1.23.89c1.15,0,2.14-.45,3.26-.35.53,0,3.06.9,3-.9C86.55,75.8,84.48,75,83.4,75.49Zm-5,.28a5.15,5.15,0,0,1-2.05.27c-.72-.16-1.31-.72-2.09-.8s-1,.25-1.58-.49c-.4-.49-.57-1.32-1.49-1.15-.76.15-.63.64-.11,1.13.24.23.65.25.86.49s.17.77.36,1c.4.4,1.55.23,2.2.4,2,.53,3.84,1.4,5.72.55C80.4,76.08,79.07,75.66,78.37,75.77ZM63.24,26.57c.5,0,.64-.61.82-1s.55-.31.86-.45a1,1,0,0,1,1.25.51c0,.08,0,.25.09.3s.08.06.15.12c.24.22.28.18.24.55a.18.18,0,0,0,0,.11c.55.13.16-.82.06-1a1.81,1.81,0,0,0-.92-.87,1.07,1.07,0,0,1-.45-.23,1.26,1.26,0,0,0-.45-.26,1,1,0,0,0-1,.34,3,3,0,0,0-.37.58,4.08,4.08,0,0,1-.39.43C62.91,26,62.7,26.6,63.24,26.57ZM34.83,42.79c.33-.14,1.06.14,1-.42v-.15c0-1.22-1.53.59-1.91.58a4.56,4.56,0,0,0,0,.64C34.45,43.54,34.46,42.94,34.83,42.79Zm1.71.11c.08.11,0,.25.18.27A.21.21,0,0,0,37,43c0-.27-.14-.6-.47-.48a.24.24,0,0,0-.11.24C36.42,42.88,36.47,42.81,36.54,42.9ZM132.9,36c-.08,0-.19,0-.4,0a1.86,1.86,0,0,0,0,.78.53.53,0,0,0,.32.24c.2,0,.28-.11.32-.28a.76.76,0,0,0-.13-.5C133,36.15,133,36,132.9,36Zm0,2.45c.08.07.26,0,.36,0,.31,0,.46-.12.46-.44s-.38-.23-.49-.4a.69.69,0,0,1-.08-.28c0-.06-.18-.27-.22-.21a1.55,1.55,0,0,0,0,.21v.26c0,.16-.14.27-.15.43S132.77,38.37,132.87,38.46Zm.74,2.6c.17.07.36.08.42-.12a3.55,3.55,0,0,0,0-.66.53.53,0,0,0-.17-.52c-.17-.15-.41-.19-.51-.41s-.18-.49-.29-.52,0,.55-.19.71-.35.19-.49.33a.63.63,0,0,0-.15.69.94.94,0,0,0,.42.25.83.83,0,0,0,.35.06A1.29,1.29,0,0,1,133.61,41.06Zm-8.89-4c.67-.16-.18-1.32-.46-1.2s-.23.36-.15.64S124.29,37.19,124.72,37.08Zm1.4.29c.17,0,.17.05.26.17s.08.11.2.13.26,0,.21-.21a.53.53,0,0,0-.17-.24c-.11-.1-.34-.14-.41-.26s-.29.1-.27.27S126,37.35,126.12,37.37Zm-.35,2.94c0,.2.11.56.33.62s.45-.15.57-.34,0-.45-.12-.68a.61.61,0,0,0-.6-.26C125.73,39.62,125.77,40.18,125.77,40.31ZM135.54,47a.45.45,0,0,0,.3-.1.5.5,0,0,0,.14-.15s.12-.19.1-.2a3.11,3.11,0,0,0-.53-.32c-.14-.06-.35-.17-.47,0s0,.24,0,.33A.55.55,0,0,0,135.54,47ZM132.1,52.2c.21-.47-.56-1-.86-.49v.36C130.77,52.6,131.81,52.84,132.1,52.2Zm.94-1.93-.06.06,0,0S133,50.28,133,50.27Zm-.09.09,0,0Zm.59.5c.4-.31-.3-.83-.53-.55S133.22,51.09,133.54,50.86Z"/></g></g></svg>