<svg xmlns="http://www.w3.org/2000/svg" viewBox="0 0 24.22 13.66"><defs><style>.cls-1{fill:#455a64;}</style></defs><g id="Capa_2" data-name="Capa 2"><g id="Objects"><g id="LH"><path class="cls-1" d="M24.1,2.77c-.07.07-.21,0-.27,0-.43.36-.25.43-.17,1s-.28.63-.32,1.12c0,.34.14,1.2-.14,1.34s-.8-.31-1-.54a3.14,3.14,0,0,0-1.61-1.21c-.88-.31-.65.31-1.12.88s-.7.51-1,.06c-.2-.27-.23-.66-.59-.72s-.39.18-.4.51a2.92,2.92,0,0,1-.27,1.3,1.38,1.38,0,0,0-.13,1.33,1.84,1.84,0,0,0,.54.82c.18.17.4.28.49.54.45,1.41-1.12,1.37-1.91,1.9s-.58,1.75-1.75,1.62a4.37,4.37,0,0,1-1.34-.6c-.48-.21-.73.05-1.2.1-.79.1-1.42-.46-2.18-.41-1,.08-.14.41-.05.88.12.62-.6.66-1,.8s-1,.34-1.35-.08-.38-.85-.74-1.09-.46.08-.57.44-.41.63-.75.17,0-1.9-.61-2.2c-.35-.17-.76.19-.94.28-.5.22-.52,0-.83-.31s-.54-.16-.93-.42-.25-.61,0-.91c.38-.54,1.19-.6,1.63-1.07s0-.79-.14-1.3c-.16-.78-.63-1.15-1.46-.68-.36.21-.52.61-1,.72S0,7.15.07,6.72H0c.28-.13.71-.54.92-.61A4.68,4.68,0,0,0,1.59,6c.2-.09.26-.3.39-.47.66-.81,1.64-.71,2.49-1.16a9.58,9.58,0,0,0,1.22-.9c.48-.37,1-.68,1.5-1a1.78,1.78,0,0,1,.52-.29c.31-.1.64,0,1-.1A4.16,4.16,0,0,0,10,1.5,9.89,9.89,0,0,1,11.77.84,6.18,6.18,0,0,1,13.7.7c.15-.33.9-.42,1.22-.51a3.13,3.13,0,0,1,.91-.13c.67,0,1.31-.08,2-.06a14.28,14.28,0,0,1,1.93.37,14.17,14.17,0,0,0,2.4.33c.42,0,.94-.07,1.44,0a1.1,1.1,0,0,0,.2.84c.15.21.33.24.42.49S24.23,2.66,24.1,2.77Z"/></g></g></g></svg>