<svg xmlns="http://www.w3.org/2000/svg" viewBox="0 0 83.09 46.7"><defs><style>.cls-1{fill:#455a64;}</style></defs><g id="Capa_2" data-name="Capa 2"><g id="Objects"><g id="LT"><path class="cls-1" d="M83.09,12.07c-.08.65-.24,1.3-.31,2a1.42,1.42,0,0,1-.29,1c-.49.44-1,.15-1,.79,0,.49.51.83.48,1.31s-.46.62-.82.87a10.54,10.54,0,0,1-1.33.84,2.6,2.6,0,0,0-1.15.64c-.33.41-.42.75-.91,1.08s-.94.54-1.38.8-.53.57-.88.85a17,17,0,0,1-1.66.8c-.44.26-.92.36-1.06.86-.06.22.07.46.06.66a.86.86,0,0,1-.3.72c-.1.12-.35.23-.41.39s.13.53.06.77c-.24.79-1.06.32-1.63.4s-1,.57-1.47.85-.8.4-1.22.59c-.69.31-1.93.88-2.73.54-.55-.25-.61-.65-1.39-.6-.62,0-.67.28-.95.79-.65,1.22-.43,1.85,0,3.08a3.15,3.15,0,0,1-.17,2.76,13.5,13.5,0,0,1-.75,1.34,1.8,1.8,0,0,0-.52,1.44,8.09,8.09,0,0,0-.12,1.8c.16.42.77.74,1,1.14.45.77.31.83-.26,1.35a1.17,1.17,0,0,0-.37.54,7.11,7.11,0,0,0-2.74,1c-.35.23-1.11.77-1.57.58s-.5-1.26-.7-1.73-.4-.67-1.08-.73c-.42,0-.82-.06-1.26-.06a10.18,10.18,0,0,1-1.57-.05c-.51-.08-1.09-.46-1.59-.49s-.81.38-1.29.48a3.35,3.35,0,0,1-1.62-.36,1.88,1.88,0,0,0-1.62,0,16.21,16.21,0,0,1-2.11.22c-.52.13-1.34.76-1.88.44-.33-.19-.36-.83-.64-1.09a1.79,1.79,0,0,0-1-.34c-1.29-.13-2.66,0-4,0H34.79a1.46,1.46,0,0,1-.86-.11c-.29-.2-.22-.53-.42-.84-.6-.9-1,.16-1.58.52a1.23,1.23,0,0,1-1.29,0c-.27-.23-.16-.65-.6-.72-.18.51.13,1-.11,1.55a1.86,1.86,0,0,1-1.09.82c.23.9-.24,1.22-1,1.43.16.25.53.3.7.54a8.14,8.14,0,0,1-1.71-.09,2.1,2.1,0,0,0-1.83.4,3.23,3.23,0,0,1-1.09.56c-.32.08-.64.08-.95.19a3.43,3.43,0,0,0-1.05.56c-.27.21-.43.14-.76.18a1.55,1.55,0,0,0-1,.57c-.23.33-.28.7-.67.7A6.41,6.41,0,0,1,17.23,46c-.58-.22-1.15-.42-1.72-.6a3.18,3.18,0,0,0-1.23,0,6.76,6.76,0,0,0-1.15.2c-.33.09-.5.12-.54.44,0,.14.1.33,0,.48-.24.5-.57-.27-.72-.43a2.41,2.41,0,0,0-.83-.57,2.75,2.75,0,0,0-1.11-.1,4.86,4.86,0,0,0-1.26-.08,1.69,1.69,0,0,1-1,.08,3.3,3.3,0,0,0-1.07-.31c-.61,0-1,.72-1.55.2-.27-.28-.4-.48-.83-.34a5.69,5.69,0,0,1-.77.32c-.7.13-1.3-.56-1.84-.91A3.1,3.1,0,0,0,0,43.63a.62.62,0,0,1,0-.13,5.54,5.54,0,0,1,.12-.71c.06-.4.09-.82.16-1.23.11-.72,0-1.46.15-2.18a5.45,5.45,0,0,1,.83-1.78,8.9,8.9,0,0,1,1-1.66c.29-.32,1-.56,1-1a.54.54,0,0,1,.29-.45,3.91,3.91,0,0,1,.49,0,7.36,7.36,0,0,1,.82-.06c.45,0,.9-.17,1.35-.17a13.49,13.49,0,0,0,1.56-.13c.52-.06,1.66,0,1.89-.65a1.72,1.72,0,0,0,0-.75,5.62,5.62,0,0,1,0-.92,1.88,1.88,0,0,1,.16-.66l.12-.28a.68.68,0,0,0,.09-.32A1.41,1.41,0,0,0,9.77,30a1.34,1.34,0,0,1-.14-1c.16-.46,1,.16,1.15.34.32.3.45.76.8,1,.15.1.23.26.41.31a1.7,1.7,0,0,0,.39,0,1.43,1.43,0,0,0,.87-.27,1,1,0,0,0,.55-.91,1.5,1.5,0,0,1,.55-1.07,1.61,1.61,0,0,1,.79-.22,4.9,4.9,0,0,0,1.08-.12c.41-.17.41-.65.37-1s.1-.25.35-.25a2.2,2.2,0,0,1,.84.2c.37.15.92.43,1.32.25.23,0,.38-.42.44-.6a6,6,0,0,0,.23-.93,4,4,0,0,0,.08-.85,4.13,4.13,0,0,1-.13-.61c0-.31.21-.55.25-.84.24-.12.52,0,.78,0s.21-.35.22-.56,0-.51.28-.61.41.25.5.48a1.66,1.66,0,0,0,.43.79,2.71,2.71,0,0,1,.53.48c.28.44-.09,1.16.36,1.5a1.17,1.17,0,0,0,.78.28l1.37,0a.66.66,0,0,1,.24.77,1.54,1.54,0,0,0-.07,1,.76.76,0,0,0,.74.38c.41-.07.54-.62.62-1,0-.18.09-.38.12-.57s0-.45.22-.49.37.24.45.42c.26.61.43,1.05,1.21,1,1.37-.05,1.7-1.49,1.91-2.61a3.47,3.47,0,0,1,.44-1.58,2.07,2.07,0,0,1,1-.65c.44-.22.55-.66.92-.94a4,4,0,0,1,1.25-.53,7.41,7.41,0,0,0,1.2-.34c.37-.19.44-.54.61-.87a9.52,9.52,0,0,1,.85-1.76c.19-.22.45-.34.66-.54a1.67,1.67,0,0,0,.5-.91,5.17,5.17,0,0,0,.24-1.71,9.31,9.31,0,0,0-.18-1.83,5.51,5.51,0,0,1-.31-1.38c.49.09,1.15.62,1.71.34s.35-1,.4-1.36a1.26,1.26,0,0,1,.52-.93c.26-.27.59-.62.52-1-.16-1-2.1-.56-2.82-.59s-.49-.21-.46-.71a2.74,2.74,0,0,1,.13-1.11c.36-.75,1.24-1,1.66-1.88.28-.56-.21-2.1.32-2.47.73-.5,1.41,1.17,2.15,1,.38-.09.66-.49,1-.59a6.87,6.87,0,0,0,1-.18C45.12,1.77,46.42.25,47.73,0L48,0a2.13,2.13,0,0,1,.57,0,2.29,2.29,0,0,1,.9.4l.42.36a2.44,2.44,0,0,0,.43.28c.15.1.29.22.44.3s.51.3.74.44h.3l.82,0a3.24,3.24,0,0,0,.44,0c.13,0,.24-.06.36-.06.41,0,1.29.17,1,.78-.07.18-.14.48,0,.62s.39,0,.57.08c.49.07.52.6.32.94a4.39,4.39,0,0,0-.34.5,3.06,3.06,0,0,0-.1.41c-.07.21-.27.24-.45.36a.56.56,0,0,1-.38.12c-.39,0-.72-.23-1.09-.23-.2,0-.28.09-.44.19a1,1,0,0,1-.51.1,2.58,2.58,0,0,0-.48,0c-.17,0-.18.1-.25.24a.71.71,0,0,1-.39.35.58.58,0,0,0-.26.21,1,1,0,0,0,.15.68c.11.26-.07.5-.09.77a.72.72,0,0,0,.38.78,1.82,1.82,0,0,0,.7.08,1.14,1.14,0,0,0,.57-.11,1.6,1.6,0,0,0,.72-.71,3.46,3.46,0,0,1,.22-.31c.09-.14.16-.29.25-.42s.51-.45.72-.3.11.46.11.67a1,1,0,0,1-.26.64c-.16.16-.42.21-.31.49.13,0,.28,0,.39,0a.94.94,0,0,0,.23-.33,4.08,4.08,0,0,0,.28-.9,4.25,4.25,0,0,0,.07-.8A2.23,2.23,0,0,1,55,5.51,5,5,0,0,1,55.45,5a4.2,4.2,0,0,0,.48-.78c.08-.16.2-.48.4-.51a1,1,0,0,1,.69.24,2.29,2.29,0,0,0,.5.3c.2.06.41.1.61.14s.36.07.54.1a6.67,6.67,0,0,0,1.34.1,3.76,3.76,0,0,1,.75,0,1,1,0,0,1,.45.29c.18.15.31.38.5.51a.86.86,0,0,0,.56.14,11.19,11.19,0,0,1,1.53-.17.71.71,0,0,1,.39.3,3.21,3.21,0,0,1,.39.52,3.7,3.7,0,0,0,.35.61,2.22,2.22,0,0,1,.39.47c0,.08,0,.17-.06.26a1.19,1.19,0,0,1-.45.44c-.31.21-.65.4-1,.58a6.71,6.71,0,0,1-1.56.6,6.69,6.69,0,0,0-.77.2c-.18.06-.39.21-.47,0a1.74,1.74,0,0,0-.72-1.1.38.38,0,0,0-.5.15c-.07.14,0,.29.11.4s.2.33.07.5-.25.14-.22.33a.44.44,0,0,0,.35.38,1.37,1.37,0,0,0,.57-.05.55.55,0,0,1,.44.07.63.63,0,0,1,.23.17.49.49,0,0,0,.14.15c.25.15.57.07.85.13a1.45,1.45,0,0,1,.63.32,6.28,6.28,0,0,1,.54.47c.14.15.33.42.56.39a2.68,2.68,0,0,1,.3.05c.34.07.7,0,1,.05a1.67,1.67,0,0,1,.43.1.39.39,0,0,0,.35,0c.07,0,.23-.19.2-.29s-.13-.15-.21-.18a1.54,1.54,0,0,0-1,0c-.2.05-.6.05-.64-.21a2.16,2.16,0,0,1,0-.51.75.75,0,0,0-.21-.51,1.41,1.41,0,0,1-.35-.86.42.42,0,0,1,.32-.45c.24-.06.42,0,.6-.14a.81.81,0,0,1,.6-.18,3.42,3.42,0,0,1,.64,0c.58.11.87.7,1.43.84a2.92,2.92,0,0,1,.81.25A1.87,1.87,0,0,1,69,10c.08.12.14.26.29.3s.31-.05.35-.25,0-.45.22-.59A.24.24,0,0,1,70,9.41c.07,0,.07.13.15.16-.16.39.15,1,.08,1.47a7.17,7.17,0,0,1-.53,1.45c-.5,1-2.39-.36-2.88.58.51.23.23.73.54.95s.83,0,1.13.06c1,.08,1.48,1.06,2.36,1.08.72,0,.38-.26.85-.53s.59-.16.88-.3a10.17,10.17,0,0,1,1.88-1.07c.27-1.13-3.12-1-3.69-1.53-1.06-1,1.11-2,2-2,1.29,0,2.62.18,4,.18s2.75-.47,3.78.18A8.85,8.85,0,0,1,83.09,12.07Z"/></g></g></g></svg>