<svg xmlns="http://www.w3.org/2000/svg" viewBox="0 0 48.24 36.56"><defs><style>.cls-1{fill:#455a64;}</style></defs><g id="Capa_2" data-name="Capa 2"><g id="Objects"><g id="MAY"><path class="cls-1" d="M48,28.57c-.63-1-2.26-1.43-3.08-2.38-.63-.71.17-1.7.31-2.53.17-1.16-.77-1.14-1.26-1.94a11.46,11.46,0,0,1-.88-2.14,4.38,4.38,0,0,1,.2-2.55c.34-1.6-.92-3.08-2.21-4-.19-.14-.66-.26-.78-.44a2.3,2.3,0,0,1-.1-1.55c.32-.46,1.46-.39,2-.66,1-.51-.2-.89-.42-1.53-.41-1.11.73-1.19,1.56-1.21S45,6.83,44.37,6c-.44-.65-1.51-1.36-1.63-2.23s.8-.88,1.51-.93v0c-.51-1.07-2.31-.1-3.06-.15-.39,0-.68-.19-1.07-.21a2.72,2.72,0,0,0-1.34.17,2.48,2.48,0,0,1-1.34.36c-.58-.07-1.19-.19-1.79-.32a1.63,1.63,0,0,0-.76-.09c-.19.05-.41.22-.6.22-.42,0-.83-.44-1.22-.54a12.06,12.06,0,0,0-2.62,0A5.85,5.85,0,0,1,28,1.51a4.13,4.13,0,0,1-1-.42c-.24-.17-.39-.43-.65-.6A1.85,1.85,0,0,0,25.42,0a11.59,11.59,0,0,0-1.56.29,9.86,9.86,0,0,0-1.41.17c-.41.12-.82.49-1.26.46a1.07,1.07,0,0,0-.07.15,1.16,1.16,0,0,0,.19.83c.17.21.34.24.44.48a1.55,1.55,0,0,1-.1.8c-.07.08-.22,0-.29,0-.41.34-.24.41-.17,1s-.27.61-.31,1.12c0,.34.14,1.19-.13,1.33s-.82-.31-1-.53a3.17,3.17,0,0,0-1.63-1.22c-.87-.31-.65.32-1.11.88s-.71.51-1,.07-.25-.65-.59-.73-.41.17-.41.51a2.61,2.61,0,0,1-.27,1.29,1.38,1.38,0,0,0-.12,1.34,1.72,1.72,0,0,0,.54.82c.17.17.38.29.48.54.46,1.41-1.12,1.36-1.89,1.89s-.59,1.78-1.78,1.63a4.76,4.76,0,0,1-1.33-.58c-.46-.22-.73,0-1.19.09-.81.1-1.44-.48-2.19-.41-1,.07-.15.39,0,.88s-.61.65-1,.8-1,.34-1.34-.08-.39-.85-.75-1.09-.46.07-.56.44-.41.61-.75.17c0,0,0-.1,0-.14a16.51,16.51,0,0,0-1,1.69,6,6,0,0,0-.1,1.8C1.55,17.9.67,18.85.3,20a4.71,4.71,0,0,0,.09,3.54c.19.29.56.44.66.78a3.21,3.21,0,0,1,0,.82c0,.88-.2,1.53.76,1.83A7.37,7.37,0,0,1,3,27.21c.55.31.53,1.08.5,1.65a7.4,7.4,0,0,1-.1.75A13.28,13.28,0,0,1,6,30.08,8,8,0,0,0,10.77,30a6.08,6.08,0,0,1,2-.51,8.34,8.34,0,0,1,2.5.25c1,.26,2.09.68,3.11,1,.76.24,1.61.9,2.36.9,1,0,1.89-.3,2.89-.39A16.2,16.2,0,0,0,26.75,31,4.82,4.82,0,0,1,29,30.56a4.27,4.27,0,0,0,2.21.12c1-.31,1.22-.46,2.14.08a4.86,4.86,0,0,0,2.77.77c1.72,0,3.4,1.68,4.74,2.72.7.54,1.38,1.12,2.11,1.61a3,3,0,0,0,1.5.61,3.23,3.23,0,0,1,1.17.09,6.61,6.61,0,0,0,.29-.68c.63-1.46,1.39-2.86,1.87-4.37C48.08,30.54,48.55,29.52,48,28.57Z"/></g></g></g></svg>