<svg xmlns="http://www.w3.org/2000/svg" viewBox="0 0 92.25 74.51"><defs><style>.cls-1{fill:#455a64;}</style></defs><g id="Capa_2" data-name="Capa 2"><g id="Objects"><g id="MT"><path class="cls-1" d="M89.11,42.43c0,.09-.06.18-.1.27-.83,1.75-2,4.72-4.23,5.13a16.3,16.3,0,0,1-3.56,0,18.13,18.13,0,0,1-4-.34,4.82,4.82,0,0,0-1.46-.38,3.83,3.83,0,0,1-1.62-.18c-.61-.29-.95-1-1.76-.7-.33.1-.87.7-1.18.88A10.35,10.35,0,0,0,68.33,49c-.66.81-.43,1.57-.58,2.57a4.27,4.27,0,0,1-.84,1.79c-.5.68-.66.58.34.83,2,.49.26,1.33-.51,2.25a1.3,1.3,0,0,1,.48,1.86c-.16.35-.61.58-.65.94-.09.78.25.54.73.72.91.35,1.23.5,1.43,1.56.25,1.25-.34,1.91,1,2.32a3.49,3.49,0,0,1,2,1.16,6.13,6.13,0,0,0,1.53,1.65c.78.44,1.56.18,2.34.54,1,.47,1,1.37,2.21.83.53-.23.15-.47,1-.4s.44.28,1,.57c.94.45,1.69-.63,2.63-.83,1.12-.23,2.38,0,2.69,1.16.17.68-.4,2.49,0,3a1.13,1.13,0,0,0,.82.23c-.65,1-3.79.55-4.67.51a19.5,19.5,0,0,1-2.66-.15,15.6,15.6,0,0,0-2.52-.72c-.61,0-.8.25-1.22.36s-.48.33-.8.35-.46-.48-.75-.48a9.9,9.9,0,0,0-2.49.85,13.63,13.63,0,0,1-5.76.46,25.91,25.91,0,0,1-2.62-1.16,27.53,27.53,0,0,1-3-.84,9,9,0,0,1-2.64-1.71c-.54-.72-.4-2.3-.69-3.2a8.69,8.69,0,0,1-.51-2.89,4.11,4.11,0,0,0,0-1c-.22-.58-.69-.55-1-1-.49-.88.06-2.17-1.43-2.17-1.28,0-.83,1-.78,2s.28,2.45.28,3.53-.53,2-.34,3.22c.25,1.68,1.34,5.15-1.8,4.56-.12-.81.62-.89.82-1.51.29-.94-.13-.84-.52-1.48-.62-1-.54-2.57-1.55-3.39-.13.72-.56,1.79-.8,2.57-.51,1.64-.87.81-2.07.84s-1.7.68-2.79.11a2.69,2.69,0,0,1-1.68-2.67c-.07-3.22-2.93-1.82-5.17-2.63-.41-.15-1.56-1.17-1.89-1.14-.52.06-.67,1.08-1.17,1.34a3.31,3.31,0,0,1-3-.43,7.84,7.84,0,0,0-1.38-.88c-.79-.31-1.31.26-1.76.26a7,7,0,0,0-1.93,0c-.66.12-1.35.37-1.94-.16-.12.67-.65,1-1.21.46-.4.46-.4,1.3-1.13,1.22-.37-1.39-3.9-.82-4.85-2.19-.58-.81-.52-1.81-1.13-2.54s-1.49-.72-2.32-1c-2.1-.72-4.41-1.79-6.4-2.71-.74-.34-1.67-.67-2.34-1-1-.53-.49-.7-.93-1.44-.65-1.13-1.24-1-2.27-1.33s-1.67-.94-.93-2.15c1.81.17,1.24-1.9,3.17-1.61A26.65,26.65,0,0,0,8,49.51a7.8,7.8,0,0,0,1.93,0c.89-.33.79-.7,1.8-.85a11.08,11.08,0,0,1,4.55.51c1.86.56,2.57.16,4.29-.4,1.27-.4,2.73-.75,3.86-1.07a6.83,6.83,0,0,0,2.48-1.52c.74-.72.51-1,.65-2.06a11.69,11.69,0,0,1,1.22-3.23l.32-.68A46.68,46.68,0,0,0,31,35.85c.29-1,.76-2,.18-2.92s-2.25-1.44-3.09-2.4c-.62-.7.17-1.68.3-2.52.19-1.17-.75-1.15-1.26-1.93a13.17,13.17,0,0,1-.87-2.16,4.2,4.2,0,0,1,.21-2.54c.33-1.6-.92-3.09-2.2-4-.21-.14-.67-.26-.81-.43a2.39,2.39,0,0,1-.08-1.56c.32-.45,1.46-.39,1.94-.64,1-.51-.19-.91-.41-1.53-.41-1.13.73-1.19,1.56-1.23s1.7-.8,1.11-1.68C27.09,9.64,26,9,25.9,8.07s.81-.88,1.52-.93l.44,0c.9-.07,1.72-.18,2.61-.18a3.55,3.55,0,0,1,2.45.59c.65.47,1.7,1,2,1.76a3.93,3.93,0,0,1,0,2.4c-.35.62-2,1.57-.46,1.73a2.38,2.38,0,0,0,2.24-.83c.6-.89.34-2.14,1.63-2.29a11.1,11.1,0,0,1,1.29,0,11,11,0,0,0,3.93-.89,16.69,16.69,0,0,0,1.89-1,4.55,4.55,0,0,1,1.93-.61,8.72,8.72,0,0,0,3.53-1.54c1-.63,2.1-.81,3.14-1.33a5,5,0,0,1,1.57-.67c.57-.07,1.75.22,1.21,1.06-.37.59-.88.1-1.3,0a3.72,3.72,0,0,0-2,.54c-1,.4-1.89,1.2-2.89,1.69S48,8.91,49.89,9.45s2.23,1.87,3.22,3.44A3.13,3.13,0,0,0,55,14.37c.58.17,1.59.72,2.18.59A5.48,5.48,0,0,1,58,12.33a3.32,3.32,0,0,1,1-1.09c.3-.2.77-.64,1-.77a6.07,6.07,0,0,1,1.56-.18,7.71,7.71,0,0,1,1.06-.06c.49,0,1.59.86,1.6-.11,1.22-.35.81,2.08,1.09,2.62a5.72,5.72,0,0,0,1.65,0c.58-.17.87-.56,1.55-.61.34,0,.72.12,1.1.07A7.61,7.61,0,0,0,71,11.76c1.32-.46,2.8,0,4.15-.36,1-.26,2.14-1.25,3.13-.81.52.23.73.65,1.34.72A4.85,4.85,0,0,0,81.4,11l2.23-.66c.8-.24.77-.57.41-1.32-.17-.34-.41-.41-.61-.73-.11-.16-.25-.61-.09-.8a3.44,3.44,0,0,1,2.41.14c.69.64-.38.89-.52,1.47-.08.28.17.59.08.83-.15.43-.55.35-.8.61-.7.78.23,1,.59,1.61a1.57,1.57,0,0,1,.19.5,3.26,3.26,0,0,0-1.14,1.65,19.18,19.18,0,0,0,.12,2.27c-.21,2.1-4.72.58-6,1.28-.56.31-.44.67-.42,1.34a4.64,4.64,0,0,0,.17,1.6c.22.42,1.21.68.81,1.4-.12.2-.52.34-.69.51s-.34.63-.64.81c-.18.79.82,1.93,1.4,2.34a3.42,3.42,0,0,1,1.78,2.33,4.06,4.06,0,0,0,2.09-.8c1.39-.94,2.39-1.37,3.17.52a15,15,0,0,0,1,2c.41.65,1.32,1.16,1.15,2-.35.09-.85,0-1.16.15-.57.35,0,.82.24,1.33.45,1,0,2-.09,3a4.52,4.52,0,0,0,0,1c.06.58.15.43.49.87C88.43,39.44,87.44,41.69,89.11,42.43Zm1.54-36.9a1.19,1.19,0,0,1-.7.1c-.33,0-.55-.06-.73-.3a3.59,3.59,0,0,0-.68-.84c-.28-.21-.45-.31-.78-.18a1.79,1.79,0,0,0-1,.66,3.73,3.73,0,0,0-.45.72c-.1.33.19.24.45.24s.43.06.66.07.47-.1.7-.12.33,0,.41,0,0,.19,0,.25.43.11.66.11a.82.82,0,0,1,.47.07c.16.1.27.33.44.42.33.18.8,0,1.11-.24s1-.34,1-.64c0-.08-.12-.16-.16-.22s-.1-.06-.17-.17-.08-.56-.42-.67S90.9,5.38,90.65,5.53Zm-4.4-.44s0,0,0-.08a1.21,1.21,0,0,1-.11-.3A4.18,4.18,0,0,0,86,4.1a1.05,1.05,0,0,0-.74-.72,1.92,1.92,0,0,0,.1,1.28,1.74,1.74,0,0,0,.5.28.88.88,0,0,0,.29.18.13.13,0,0,0,.12,0Zm-7.61,5.42c.1,0,.11-.22.22-.29s1.3-.12,1.23-.46c-.53-.24-.46-1.51-1.11-1.52-.48,0-.23.59-.34.88s-.62.29-.77.61.19.54.39.66S78.54,10.56,78.64,10.51Zm-13.46-.25a6.94,6.94,0,0,1,1-.45,3.66,3.66,0,0,0,1.08-.3c.72-.41.8-1.14,1.8-1.09a10.19,10.19,0,0,1,2.59.08,3.14,3.14,0,0,0,1.64,0c.5-.12,1.18,0,1.4-.57s-.51-.4-.81-.83S73.86,5.82,73.11,6c0,.63-.08.76-.61.24-.3-.29-.83-.68-1.28-.56,0,.38.18.84.09,1.15a2.92,2.92,0,0,0-1-.27c-.39,0-.39.31-.68.46s-.62,0-.86.13a2.67,2.67,0,0,0-.72.54,5.21,5.21,0,0,1-1.52,1.12,3.71,3.71,0,0,0-1,.51A1.48,1.48,0,0,0,65.18,10.26Zm5.76-5.32c.56.16.51-.87.14-1s-.69,1.08.13,1M74,5.18a.81.81,0,0,0,.23-1.11,4.16,4.16,0,0,0-1.07-.8.5.5,0,0,0-.83.32c-.14.48.33.67.6.93S73.33,5.21,74,5.18Zm2.83-.06c.88,0,.46-.65.38-1.22-.38-.15-.66.25-.71.59S76.66,5,76.85,5.12Zm3.63.18c.28,0,.5,0,.51-.36a.74.74,0,0,0-.88-.76,3.49,3.49,0,0,1-.38.1c-.1,0-.18-.07-.29,0-.28.13-.25.56-.41.77s-.32.24-.26.55a1,1,0,0,0,.28.51c.39.17.29-.92.74-.73C80,5.46,80.25,5.33,80.48,5.3ZM70.22,2.17c.3,0,.44-.24.61-.46s.36-.44,0-.63A.75.75,0,0,0,70.13,1a1.31,1.31,0,0,1-.78.11c-.44-.21-.15-1.49-1-1-.24.13-.33.28-.63.3s-.43,0-.65,0-.25,0-.33.19-.1.28,0,.35.84-.18.74.22a1.08,1.08,0,0,0,.31,0c.08,0,.11-.07.17-.09s.29-.07.36,0-.16.65.1.77.66,0,.91.13.23.24.39.31A.42.42,0,0,0,70.22,2.17Zm-6.95-.74c-.09.32-.27,1.8.45,1.58.26-.08.48-.62.61-.86a1.19,1.19,0,0,0,0-1.35A.83.83,0,0,0,63.27,1.43Zm-7.81,11c-.14.09-.31.62-.15.78a1.52,1.52,0,0,0,.74.12c.74-.16-.26-1.1-.59-.93m-5.55,60c-1.13,1.38-2.72,1.59-4.46,1.5a3.23,3.23,0,0,1-1.8-.84,10.68,10.68,0,0,0-1.8-.76c-.22-.09-.79-.44-1-.26s.08.55.33.64.39,0,.54,0,.2.23.35.35a1.64,1.64,0,0,0,.86.37c.7.17.81.81,1.55,1a5,5,0,0,0,1.8,0C47.64,74.2,49.83,74.53,49.91,72.46ZM32.58,70.38a.76.76,0,0,1-.54-.21c-.15-.14-.19-.31-.4-.35-.72-.15-.34,1.27-.16,1.57s.45.11.6-.08.05-.28.23-.3.21.11.28.18c.23.26.26.7.49.94s.33-.27.36-.45.44-.55.28-.87-.47-.12-.48-.34S32.8,70.41,32.58,70.38Zm4.58-3.65a.89.89,0,0,0,.67.3.71.71,0,0,0,.52-.82c-.07-.34-.37-.43-.67-.42,0,.14-.19.17-.3.22C37.07,65.73,37.06,66.56,37.16,66.73Zm-7.82-1.28c0,.09.14.09.17.17s-.06.29-.11.41c-.15.36-.48.75-.47,1.14,0,.16,0,.45.21.54s.28,0,.37,0c.46,0,.58-.32.75-.74a4.28,4.28,0,0,0,.23-1.34,1.15,1.15,0,0,0-.34-.87c-.23-.26-.34-.7-.78-.61s-.37.46-.6.75c-.09.11-.31.15-.35.33a.45.45,0,0,0,.18.42c.35.21.39-.37.63-.44C29.32,65.25,29.3,65.37,29.34,65.45ZM27.24,65a1.13,1.13,0,0,0,.53-.25c.07-.07.25-.2.23-.31s-.31-.14-.41-.17-.21-.13-.33-.22-.68,0-.92.13-.31.16-.35.28.11.23.23.3a1.47,1.47,0,0,0,.59.15A3.86,3.86,0,0,0,27.24,65Zm-1.57.27c.1-.13,0-.33-.21-.47a2.28,2.28,0,0,0-.6-.36,2,2,0,0,0-1.31-.16,1.18,1.18,0,0,0-.53.25A.34.34,0,0,0,23,65c.17.11.36,0,.54-.07a1.06,1.06,0,0,1,.56-.07c.12,0,.23.15.36.19s.29.06.43.1C25.22,65.26,25.57,65.39,25.67,65.27Zm3.89,3.08a.69.69,0,0,0,0,.2,2,2,0,0,0,.05.24,4.48,4.48,0,0,1,.11.5,1.59,1.59,0,0,0,.08.39c.11.28.39.44.5.06s-.14-.43-.3-.69a3.08,3.08,0,0,1-.16-.38,1.07,1.07,0,0,0-.13-.21s-.09-.15-.15-.13ZM11,64.39a1.2,1.2,0,0,0,.29.74,1.38,1.38,0,0,0,1.49.42c.95-.33.37-.69-.23-.82a1.88,1.88,0,0,1-1.22-.81c-.05-.06-.09-.09-.13-.09S11,64.24,11,64.39Zm3.24-3.87a.52.52,0,0,0-.09.36c0,.13.13.13.25.14s.29,0,.24-.15-.09-.08-.12-.11a.35.35,0,0,1-.08-.16c0-.06,0-.11-.1-.12S14.16,60.48,14.21,60.52Z"/></g></g></g></svg>