<svg xmlns="http://www.w3.org/2000/svg" viewBox="0 0 116.43 71.21"><defs><style>.cls-1{fill:#455a64;}</style></defs><g id="Capa_2" data-name="Capa 2"><g id="Objects"><g id="PR"><path class="cls-1" d="M84.57,62.7c-1.12-.1-2.11.39-3.26.35-.18-.85.83-.61,1.23-.88s.48-.74.86-.91c1.08-.5,3.15.3,4.18.54C87.63,63.6,85.1,62.75,84.57,62.7Zm-4.38.18c.21-1-1.12-1.46-1.82-1.35a5.15,5.15,0,0,1-2.05.27c-.72-.15-1.31-.72-2.09-.79s-1,.25-1.58-.49c-.4-.5-.57-1.33-1.49-1.16-.76.15-.63.64-.11,1.13.24.23.65.25.86.49s.17.77.36,1c.4.4,1.55.23,2.2.4C76.45,62.86,78.31,63.73,80.19,62.88Zm36.24-39.32a6.25,6.25,0,0,1-.63-.92,10,10,0,0,1-1.38-2.55,8.57,8.57,0,0,0-.61-1.34,25.48,25.48,0,0,0-1.12-2.45,3.37,3.37,0,0,0-1.57-1.17c-1.58-.8-2.09-2.26-3.14-3.64,1.12-.39,2.5,0,3.69-.24.66-1.85-.34-3.19-.94-4.77a8.4,8.4,0,0,1-.13-3.93c-.39-.37-.77.12-1.5-.32-.22-.12.17-.46-.32-.56s-1,.76-1.48.32c.32-.44,1.39-.73,1.19-1.41-.14-.53-1.48,0-2.11-.15-.83-.21-1.17-.7-2-.24a5.82,5.82,0,0,1-2.33.88c-.63.09-1.29.19-1.92.34-1,.24-1.12.51-.92,1.5.12.66.73,1.63-.08,2s-1.41-.56-1.33-1.26.6-1.09,0-1.92A1.75,1.75,0,0,0,95.91,1a11.75,11.75,0,0,0-3.77,1.27c-.63.34-1,1-1.6,1.45s-1.07.51-1.56.83c-.77.49-.53,1-.94,1.6-.1.17-.59.27-.73.46s-.2.81-.34.88c-.51.24-.42-.29-.54-.39s-.58-.32-.87-.49c-.78-.41-1-.77-1.85-.43a4.67,4.67,0,0,0-.8.46c-.36.39-.17.58-.36.92a1.6,1.6,0,0,1-1.34.93c-.07-1.07-1.92-.59-2.58-.32s-.77.53-1.14,1.21-.07.71-1,.76-2.17-.51-3.14.05c-.51.31-.41.75-.7,1a3.93,3.93,0,0,1-1.12.61c-.29.12-.53.44-.87.36-.1,0-.18-.41-.3-.46A1.21,1.21,0,0,0,69,11.71c-.41.22-.6.68-1,.92a11.42,11.42,0,0,1-2,.44c-.9.24-1.41,1-2.38,1.07s-2.09-.49-3-.12c-.73.26-.78.92-1.17,1.38-.58.7-.48.41-1.26.36a1.26,1.26,0,0,0-1.29.51c-.34.34-.39,1.05-1.07.93a.75.75,0,0,0-.92.53,2.38,2.38,0,0,1-1.51-.19c-.63-.44-.41-.9-1.33-1.07a3.86,3.86,0,0,0-1.92.1c-.85.7.39,1,.9,1.09,1.14.32,1.28.53.92,1.55s-.41,1.24-1.48.88c-.51-.17-1-.75-1.68-.44-1.17.51-.39,1.07-.31,1.68.17,1.72-2.39.14-2.14,1.89.05.37.58.76.12,1.1s-1.21-.25-1.51-.34-2.62-.15-2.94.31.3.41.3.63.09.25-.08.61-.58.92-.8,1.51c-.32.94-1,1.31-1.87,1.92a2.25,2.25,0,0,1-1.53.48c-.71,0-1.31,0-1.38.9,1.18.32-.27,1.34-.69,1.61a2.9,2.9,0,0,0-1.5,1.84c-.15.54.07,1-.49,1.34s-.78,0-1.29.73A8.37,8.37,0,0,0,31,38.92,39.26,39.26,0,0,1,30,42.73a7.72,7.72,0,0,1-1,1.56,3.74,3.74,0,0,0-.24,1.82c.75.31.73.9.87,1.48.22.8.39.85,1.1,1.24l1.92,1c1.12.61.8.8.82,1.75s.42.95,1,1.6A1.62,1.62,0,0,1,35,54.34c.08.37-.12.81.2,1.07,1.41,1.27,1.16-2.55,2.18-1.53-.39.54-.24,1.17-.39,1.78-.29,1.11-.5.7-1.24,1s-1,.93-1.84.71-1.07-.93-1.63-1.56c-1.67-2-3,0-4.86.49-.73.19-.73.19-1.19-.44s-.53-1-1.55-.78c-1.29.27-2.48,1.29-3.72,1.8a55.56,55.56,0,0,1-6.73,2.07A21.73,21.73,0,0,0,7.38,62c-.51-.51-.22-1.45-1-1.6a4.09,4.09,0,0,0-1,.29c-.34.39,0,.46,0,.9,0,.83-.05.95-.75,1.34-.9.48-1.48.63-2-.22s-1-1.56-1.9-.78-.9,3.09.07,3.94a5,5,0,0,0,2.51.92,12.23,12.23,0,0,0,3.08.63A5.85,5.85,0,0,0,10.61,66,7.65,7.65,0,0,1,12,64.47a16.71,16.71,0,0,1,2.28-.92c.88-.36,1.6-.85,2.48-1.14a10,10,0,0,1,2.45-.34c1.63-.15,3.92-1.24,5.54-.63a2.6,2.6,0,0,1,1.29,3.5c-.29.68-.65.75-1.09,1.33s-.15,1.07-.37,1.7c-.09.27-.39.29-.48.54s-.05.63-.17.85c-.37.7-1.63.9-.56,1.62s3.06-.24,3.91-.7c2.6-1.38,4.66-3.52,7.26-5a23.1,23.1,0,0,1,2.77-1.09,15.12,15.12,0,0,1,1.73-.82c.61-.13,1.31.12,1.89,0a8.52,8.52,0,0,0,1.49-.85c1.23-.73,2.67-.54,4.1-.54a3.46,3.46,0,0,1,1.92.29c.7.42.85,1,1.77.76a2.63,2.63,0,0,0,2-2.41c0-1.24.09-2.69,1.77-2.69.49-.56.51-1.51-.41-1.17-.34.12-.27.63-.73.63s-.58-.44-.73-.8c-.61-1.48.17-2.75,1.8-2.63.31-2.5-.63-5.31,2.82-5.46a13.94,13.94,0,0,1,2.33,0c1,.07,2.5.63,3.55.24.6-.22.46-.85.77-1.05.56-.36.73.27.63.88a20.45,20.45,0,0,0,2.82,0c1.31-.12,2.48-1,3.82-.9a2.68,2.68,0,0,0,.22,1.15c1,0,2.25-1.34,2.89-1.88a12,12,0,0,0,1.55-1.65c.44.49.9.68,1.22,1.24s.17.75.8,1.29c1.41,1.21,1.8,1.68,3.5.9,1-.49,1.84-.22,2.91-.46,1.29-.3.78-.85,1.43-1.8.54.48,0,1.87,1.32,1.43,0-.31-.13-1,0-1.24.36-.8.29-.14,1-.58s.61-.68.8-1.77c.13-.83.27-1.32,1-1.7s1.07-.3,1.77-1.17a7.58,7.58,0,0,1,.8-.85c.2-.19.59-.24.83-.51.68-.73,0-1.26,1.29-.63.9.46,1.19,1,2.38.8a4.45,4.45,0,0,0,2.18-1c2.46-2.11,1.83-5.49,4.26-7.62.46-.39,1.19-.73,1.75-1.12.82-.58,1.21-.39,2.09-.68,1.38-.41,2.57-2.07,4-2.41.61-.17,1.16.12,1.72-.19s.76-1.07,1.12-1.46c.51-.56,3.28-1.43,2.92-2.09ZM66.62,12.5c.55.13.16-.82.06-1a1.81,1.81,0,0,0-.92-.87,1.18,1.18,0,0,1-.45-.22,1.29,1.29,0,0,0-.45-.27,1,1,0,0,0-1,.34,3,3,0,0,0-.37.58,5.56,5.56,0,0,1-.39.44c-.23.29-.44.86.1.83s.64-.6.82-1,.55-.31.86-.45a1,1,0,0,1,1.25.51c0,.08,0,.25.09.31s.08,0,.15.11c.24.23.28.18.24.55A.18.18,0,0,0,66.62,12.5ZM35.83,28c0-1.22-1.53.59-1.91.58a4.53,4.53,0,0,0,0,.64c.52.11.53-.5.9-.65s1.06.14,1-.42Zm.57.51c0,.15.07.09.14.18s0,.24.18.26a.21.21,0,0,0,.26-.2c0-.27-.14-.6-.47-.47A.22.22,0,0,0,36.4,28.49Z"/></g></g></g></svg>