<svg xmlns="http://www.w3.org/2000/svg" viewBox="0 0 64.02 66.52"><defs><style>.cls-1{fill:#455a64;}</style></defs><g id="Capa_2" data-name="Capa 2"><g id="Objects"><g id="SS"><path class="cls-1" d="M64,17.09a3.37,3.37,0,0,1-.21.83,1.91,1.91,0,0,1-.65,1.17c-.4.31-.95.47-1.1,1s0,1.09-.32,1.47c.27.5-.59,1.55-.81,2a3.39,3.39,0,0,1-.6,1c-.36.37-.79.54-1.08,1a7.39,7.39,0,0,0-1,2.45,11.21,11.21,0,0,0-.51,2.38,3.88,3.88,0,0,1-.14,1.28,2.73,2.73,0,0,0-.26,1.43c.12.39.55.56.85.87a11.42,11.42,0,0,0,.8.9c.65.55,1.41,1,2.1,1.46a2.72,2.72,0,0,1,.89,2.5,4.15,4.15,0,0,1-1.2,2.59c-.25.32-.5.85-.91,1s-.91-.06-1.35-.23c-.61-.23-.78.42-.82.89a4.55,4.55,0,0,1-.45,1.67c-.47,1.06-1.35,1.85-1.88,2.88s0,2.29-.1,3.36-1.07,1.75-1.53,2.68c-.32.63,0,.76.54,1.15a1.37,1.37,0,0,1,.55,1.69c-.21.63-.93,1.42-.83,2.12s.85.73,1.36.65,1.12,0,1.66-.14.79-.54,1-1.14.1-1.16.28-1.62c.25-.65,1.11-.27,1.59-.08.71.28,2.12.57,2.28,1.42.11.56-.3,1.09-.38,1.65-.11.71.31,1.3.42,2a9.43,9.43,0,0,1,0,1.41c-.38.2-.76.37-1.13.53a26.08,26.08,0,0,1-5.51,1.07,10.41,10.41,0,0,0-3.07,1.13,11.39,11.39,0,0,1-5,1,8,8,0,0,1-3.82-.89c-1-.53-1.73-1.31-2.68-1.86-1.92-1.12-4.07.68-6.1-.56a15.22,15.22,0,0,1-1.85-1.83c-1.27-1.12-.92.25-2,.36-.83.09-1.83-1-2.69-1.17s-1.07.14-1.61-.45-.61-1.37-1.29-1.83A3.37,3.37,0,0,0,23,58.05a6.17,6.17,0,0,1-3.13.12c-1.6-.45-3-1.19-4.74-1.1-.54.75-.13,2.24-1.47,1.46-.45-.27-.64-.82-1.17-1s-.88,0-1.28-.26A1,1,0,0,1,12.09,56c-1.16-.52.11-1.4-1-1.61-.48-.1-1.47.46-1.92.59a6.94,6.94,0,0,1-2,.5c-.84,0-1.43-1.26-2.14-.94,0,.67,1.08.84,1.31,1.54a3,3,0,0,1-3.56-2.95c0-.67.15-1.52-.32-2.07s-1.54-.6-2-1.13a.87.87,0,0,1-.2-.31c-.81-2.08,1-2.92,2.26-3.93.66-.52,1-1.67,1.61-2a3,3,0,0,1,1.31-.17,1.59,1.59,0,0,0,.93-.25c.6-.42.63-1.13,1.24-1.49s1.38-.24,1.68-.94c.16-.41-.07-1.08,0-1.51a3.81,3.81,0,0,1,.47.07l.18,0,.33.07.47.1.49.08a3.72,3.72,0,0,0,.89,0,3.5,3.5,0,0,1,2.1.25c.85.34,1.61.6,1.94-.28s-.31-1.77-.15-2.58a2.32,2.32,0,0,0,2.4-2.58,4.35,4.35,0,0,0-.18-2c-.33-.59-.94-.56-.63-1.43.1-.29.45-.34.55-.65s-.08-.89,0-1.27a1.24,1.24,0,0,1,1.08-1.21c.88-.11.76.26,1.07.82s.11.63,1,.63a3.89,3.89,0,0,0,3.2-1.28c.58.37.64.77,1.08,1.24.87.94,2.11.09,2.91,1.28.29.44.28,1.75.83,1.73.33,0,.68-.73.86-1s.14-.44.41-.61.58,0,.78-.14c.61-.39.39-1,.82-1.7a11.6,11.6,0,0,1,2.94-3.51,5.88,5.88,0,0,1,2.71-.92c1.11.07,2.14,2.18,3.33.76.36-.44.18-1,.33-1.46s.89-1.06.84-1.54c-.07-.72-1.51-1.17-2.14-1.43A3.65,3.65,0,0,1,39,20.29c-.46-.41-.44-.77-.77-1.31s-.62-.56-.68-1.44a3.49,3.49,0,0,1,.34-1.73c.31-.78.08-2.36,1-2.34a.71.71,0,0,1,.24,0c1,.24,2.08,1.52,2.94,2s2.06.52,2.73,1.16.57.91,1.5.82c.48-.05.83-.38,1.3-.48,1.1-.23,2,.52,3.17.48a2.38,2.38,0,0,0,1.51-.35c.35-.31.41-1.11.79-1.27.53-.22.78.26,1.07.53.59.58.66.89,1.56.75s1.58-.9,2.47-1.24a5.71,5.71,0,0,1,2.73-.32,10.56,10.56,0,0,1,1.8.72c.33.11.88.11,1.21.24A3.16,3.16,0,0,1,64,17.09ZM61.5,9.39c0-.4.38-.54.11-.94s-.74-.42-1.18-.58a1.14,1.14,0,0,1-.71-1,3,3,0,0,1-.07-1.45c.32,0,.66,0,.83-.29s0-.56-.06-.86a5.89,5.89,0,0,1,.18-1.26c.13-.79-.7-.08-.84.31s-.13.83-.27,1.23-.39.74-.53,1.12a2.88,2.88,0,0,0,.32,2.73c.2.2.35.14.59.23s.27.19.42.37C60.58,9.38,60.85,9.36,61.5,9.39Zm.55-7.6a.8.8,0,0,0,.43-1c-.35-.72-2-.72-2.69-.54a4.38,4.38,0,0,1-2.43.44c-.42-.13-.73-.52-1.13-.63A1.28,1.28,0,0,0,55,.3c-.21.22-.14.33-.14.58,0,.41-.33.45-.6.71a1.27,1.27,0,0,0-.39.44c-.07.18,0,.33,0,.51-.18,0-.36,0-.54,0-.2-.3.24-.89-.38-.85-.32,0-.67.35-1,.51a.63.63,0,0,0-.35.46c0,.13.05.36-.06.44S51.29,3,51.16,3a2.21,2.21,0,0,0-.58,0c-.39,0-.37,0-.31-.41,0-.26.1-.72-.25-.79s-.85.34-1.18.4-.79,0-1.07.13a.46.46,0,0,0,0,.7c.24.2.6,0,.88,0a2.06,2.06,0,0,0,1-.18c.16-.08.25-.28.42-.14s.1.37.05.46c-.14.25-.59.22-.34.6.09.13.7.46.31.65S49.47,4,49.2,4s-.56.33-.91.32-.56-.41-.89-.42-.38.31-.55.47a1.69,1.69,0,0,1-1,.4c-.42,0-1-.19-1,.44a4.61,4.61,0,0,0,1.75.37A2.94,2.94,0,0,0,48,5.28a.92.92,0,0,1,.67-.13c.18,0,.31.16.56.1s.29-.21.45-.26a2.86,2.86,0,0,1,.59,0c.25,0,.5-.08.55-.32s-.16-.38-.32-.55c.22-.06.48,0,.71-.09a1.48,1.48,0,0,0,.41-.17c.11-.1,0-.22.24-.28s.57.21.83.25a1.2,1.2,0,0,0,.8-.24c.4-.25,1-.08.93-.7s-.52-.76,0-1.19c.17-.13.37-.21.54-.35s.27-.39.43-.47a2.12,2.12,0,0,1,1,.09c.43.18.44.59,1,.4a1.6,1.6,0,0,1,1.38.14c.55.24.74,0,1.28-.12a2.11,2.11,0,0,1,.61.06c.29.08.28.17.27.48C61.2,2.16,61.76,1.94,62.05,1.79ZM44.86,13.65a.6.6,0,0,0,.52-.41c0-.14-.08-.4,0-.49s.34,0,.39-.21-.18-.17-.31-.18c-.4,0-.83,0-1.24,0s-.79,0-.47.51a2.69,2.69,0,0,0,.57.5C44.43,13.51,44.79,13.83,44.86,13.65Zm-2.58-1.86c-.31.1-.64.13-1,.22,0,.43.41.54.76.5s.87-.35.77-.66C42.93,11.7,42.51,11.72,42.28,11.79Zm2.16-4.17c.33.31,1.2.1,1.08-.45,0-.18-.06-.2-.24-.24s-.29.1-.48.21S44,7.52,44.44,7.62ZM55.58,3.74a1.16,1.16,0,0,0,.49,0c.4-.06.39-.28.49-.61s.25-.65-.19-.62-.67.56-.69.9A.18.18,0,0,0,55.58,3.74Zm2.1-1.54c.08,0,.3,0,.35-.09S57.88,2,57.81,2s-.45,0-.43.23S57.6,2.22,57.68,2.2Zm-2.31-.1c.05.07.11.28.2.31s.09-.2.07-.27-.16-.42-.37-.32S55.32,2,55.37,2.1Zm-10.18,13c0,.39.34.77.47,1.13.08.2.08.24.3.24s.38,0,.42-.24-.16-.26-.3-.37a.81.81,0,0,1-.28-1,.59.59,0,0,0,.09-.51c-.07-.15-.36-.23-.47-.09s0,.32,0,.43-.18.08-.22.16A.28.28,0,0,0,45.19,15.08Z"/></g></g></g></svg>