<svg xmlns="http://www.w3.org/2000/svg" viewBox="0 0 92.01 42.72"><defs><style>.cls-1{fill:#455a64;}</style></defs><g id="Capa_2" data-name="Capa 2"><g id="Objects"><g id="ST"><path class="cls-1" d="M92,40.38s-.1,0-.14,0a4,4,0,0,1-.91,0c-.37,0-.93.05-1.23-.23-.14-.12-.14-.26-.3-.35a1.09,1.09,0,0,0-.49-.16,1.14,1.14,0,0,0-1,.46c-.28.35-.33.54-.79.54H86c-.79,0-1.6,0-2.42-.07a11.26,11.26,0,0,1-1.76-.4,6.76,6.76,0,0,0-.9,0A2.1,2.1,0,0,1,80,40.1c-.72-.26-1.37-.63-2.06-.88a9.14,9.14,0,0,1-1.79-.91,8.16,8.16,0,0,0-3.76-1.62c-.51,0-.79.41-1.26.51s-.74-.21-1.06-.35a7.55,7.55,0,0,0-2.6-.19,2.47,2.47,0,0,1-1.07-.25c-.46-.23-.86,0-1.32,0a6.94,6.94,0,0,1-1.4-.25,2.75,2.75,0,0,0-1,0c-.23.07-.37.32-.58.41-.42.19-.89,0-1.3.26a2.7,2.7,0,0,1-1.23.42,1.64,1.64,0,0,1-1.07-.1,1.13,1.13,0,0,0-.95,0c-.81.21-1.51-.37-2.28-.44a10.66,10.66,0,0,1-1.71-.23,5.09,5.09,0,0,0-1-.33,1.43,1.43,0,0,1-.72-.14c-.33-.14-.49,0-.84-.09s-.81-.58-1.32-.47-1,.51-1.72.31A12.34,12.34,0,0,0,46.17,35a4.11,4.11,0,0,0-.93,0,2.78,2.78,0,0,1-1,.09c-.58-.12-1.09.42-1.63.6s-1.27.16-1.71.54c0,.37-.3.25-.56.27-.42,0-.53.19-.88.42a1.82,1.82,0,0,1-1.88.14,3.58,3.58,0,0,0-1.72-.18,2.12,2.12,0,0,1-.67,0A1.6,1.6,0,0,0,34.1,37c-.56.21-1.18.14-1.74.35a7.61,7.61,0,0,1-1.72.65A13,13,0,0,1,29,38a4.46,4.46,0,0,0-1.6.46,3.17,3.17,0,0,1-1.85.1,10.91,10.91,0,0,0-1.28-.33c-.42,0-.88.07-1.3,0s-.93-.35-1.44-.37a2.54,2.54,0,0,0-1.2.16c-.49.23-1,.46-1.47.67a2,2,0,0,1-1.48.14,5.71,5.71,0,0,0-1.09,0,6.55,6.55,0,0,0-1.33,0c-.41.14-.58.58-1,.62a7.82,7.82,0,0,1-1.28,0l-1.13-.11-.42-.07-1.95.44a7,7,0,0,1-1.05.83c-.6.35-1.16,1-1.85,1.14-.47.09-1-.07-1.44,0a5.63,5.63,0,0,0-1,.46c-.51.23-1,.67-1.65.44-.3-.14-.42-.42-.65-.63s-.67-.27-1-.44a4.93,4.93,0,0,0,.05-1.43c-.14-.4-.93-1.1-.3-1.44a1.59,1.59,0,0,1,.7-.12c.23,0,.46,0,.67,0a9,9,0,0,0,1.88-.18c.28-.08.6-.14.74-.35a3.55,3.55,0,0,0,.39-.84,9.21,9.21,0,0,1,1-1.32,3,3,0,0,1,1.09-1c.49-.21,1,0,1.51,0,.65,0,1.2-.09,1.85-.09a10.64,10.64,0,0,0,1.7-.09c.23-.26.11-.61.23-.93a2,2,0,0,1,.63-.77c.11-.09.3-.41.41-.39s.31.32.35.39c.28.33.44.63.91.77.32.12.34.18.53.51s.3.49.63.3.32-.69.65-.86.48.07.74,0c.53-.11,1-.88,1.46-.23a5,5,0,0,0,.6.79c.28.25.49.12.86.19s.49.39.84.51a1.34,1.34,0,0,0,.74-.1,2.35,2.35,0,0,1,.95-.21c.37,0,.84.24,1.14-.07s.09-.78.58-.83.72.3,1,.46a2.64,2.64,0,0,0,1.14.44c.19,0,.79.07.72-.23a2.39,2.39,0,0,1-.42-2.16c1.26-.16,2.49.54,3.81.35,1.11-.16,2.27-1.25,3.11-2A3.81,3.81,0,0,0,35.17,28c0-1.23-.37-2.48-.47-3.71,0-.49,0-1,0-1.49a6.6,6.6,0,0,1-.3-1.62c1.18-.58,1.06-1.16,1.06-2.46a8.78,8.78,0,0,1,0-1.7,19.64,19.64,0,0,1,1-2.32c.39-1.11.23-2.64,1.83-2.37.74.14,1.51,1,2.37.63a1.4,1.4,0,0,0,.67-1,4.19,4.19,0,0,1,.46-1.16c.47-.88.14-1.76.19-2.67.05-.62.28-1,1-.83s.56.28.67.86.17,1.09.24,1.67c0,.21.11,1.16.3,1.3.69.51,1.81-.93,2.11-1.37a8.08,8.08,0,0,1,1-1.21,2.78,2.78,0,0,0,.84.07,6.3,6.3,0,0,1,1.74,0c.81.28,2.13,1.58,2.22-.3a17.21,17.21,0,0,0,.07-1.74c0-.52-.76-1.24-.34-1.68.23-.23.72,0,1-.34.12-.12.07-.56.14-.72a.71.71,0,0,1,.44-.4,1.62,1.62,0,0,0,.81-.16c1.14-.58-.3-1.83-.32-2.65-.1-1.83,2.39.4,2.81.84s1.09.74,1.55,1.21c.28.25.28.07.19.48-.07.26-.3.44-.35.75-.37,1.78,3.53-.24,3.15,1.6-.11.58-.71.72,0,1.13.32.24.7.19,1,.47s.3.39.49.53.53.12.74.35a5.78,5.78,0,0,1,.51.81A2.68,2.68,0,0,0,65.57,10c1.32.26,2.37-.76,3.55-1.2.54-.19,1-.49,1.51-.72a5.05,5.05,0,0,1,1.56-.26,18.28,18.28,0,0,0,3.22.07c.67-.14,1.21-.67,1.93-.65s1.21-1.53,1.16-2.16-.84-1.78.3-1.64c.88.14,1.56,1.6,2.44.51.65-.79.55-1.63,1.53-2.14A8.94,8.94,0,0,1,84.09,1c.68-.14.7.42,1.21.63,1,.41,2-.14,3-.31.81-.11,1.69-.3,1.76.72a2.9,2.9,0,0,1-.77,2.14c-.25.32-.74.67-.58,1.16s.86.62,1.12,1.11a4.77,4.77,0,0,0,.65,1c.21.23.44,1,.79,1.18-.21,0-.28.19-.4.44a2.73,2.73,0,0,0-.28.88c-.41.19-1.11-.39-1.53-.13S89,10.9,88.87,11.2A3.26,3.26,0,0,1,87.2,13c-.46.17-1.11.1-1,.77.09.44.51.72.74,1.09.49.79-.28,1.76-.07,2.6a1.2,1.2,0,0,1-.28,1.3,1.57,1.57,0,0,0-.44,1.32c0,.21.24.33.31.54a3.73,3.73,0,0,1,.09.46,5.83,5.83,0,0,1,.11.67c.07.31.21.26.4.45s.21.6.32.88a2.87,2.87,0,0,0,.47.72,1.47,1.47,0,0,1,.25.78c0,.21-.11.82,0,1s.69,0,.9.07a1,1,0,0,1,.49.63c.07.53-.19,1.78-.65,1.9-.21,0-.37.12-.58.16s-.33,0-.49.05-.37.44-.44.69-.09.56-.35.68-.51-.07-.74-.14c-.07,0-.28,0-.35,0s-.07.4-.07.51.07.51,0,.56c-.21,2.16,1.63,3.29,2.93,4.59A14.53,14.53,0,0,1,92,40.38Z"/></g></g></g></svg>