<svg xmlns="http://www.w3.org/2000/svg" viewBox="0 0 76.82 72.08"><defs><style>.cls-1{fill:#455a64;}</style></defs><g id="Capa_2" data-name="Capa 2"><g id="Objects"><g id="VC"><path class="cls-1" d="M76.78,50.88c0,.48-.69,1.07-.84,1.54s0,1-.34,1.47c-1.19,1.42-2.21-.7-3.33-.77a5.85,5.85,0,0,0-2.7.92,11.46,11.46,0,0,0-2.94,3.51c-.44.68-.21,1.32-.82,1.71-.2.12-.58,0-.78.13s-.24.41-.41.61-.53,1-.87,1c-.55,0-.53-1.29-.82-1.73-.8-1.18-2-.34-2.91-1.28-.44-.47-.5-.87-1.08-1.24A3.91,3.91,0,0,1,55.73,58c-.92,0-.67,0-1-.63s-.2-.93-1.08-.82a1.27,1.27,0,0,0-1.08,1.22c-.07.37.14.9,0,1.26s-.46.36-.56.65c-.31.87.31.85.64,1.43a4.35,4.35,0,0,1,.18,2,2.32,2.32,0,0,1-2.4,2.58c-.17.81.44,1.79.15,2.58s-1.1.62-1.94.28a3.52,3.52,0,0,0-2.1-.25,3.36,3.36,0,0,1-.9,0c-.65-.09-1.26-.28-1.93-.34-.12.43.11,1.1-.06,1.51-.29.7-1.14.61-1.68.94s-.64,1.07-1.24,1.49a1.58,1.58,0,0,1-.93.25,1.4,1.4,0,0,1-.55-.33,2.71,2.71,0,0,1-.41-1c-.34-1-1.26-.48-1.84-1.19s-.17-1.89,0-2.59c.23-1.15-.52-1.21-1.21-1.88s-.32-1.16-.46-1.88c-.17-.88-1.06-1.61-1.08-2.49,0-.56.38-.74.52-1.23a3.07,3.07,0,0,0,0-1.09c-.08-.74-.82-1.81-.4-2.5.2-.33.66-.34.8-.77a1.55,1.55,0,0,0-.21-1.23,3.38,3.38,0,0,0-1-.74,1.66,1.66,0,0,1-.71-1.24c.28-.68-.22-2.21-.53-2.89s-.86-.55-1.57-.48a1.89,1.89,0,0,1-1.83-.66c-.22-.28-.24-.56-.53-.79s-.7-.29-1-.52-1-.87-.8-1.45.9-.46,1-1.24a1,1,0,0,0-.36-1c-.19-.18-.48-.15-.66-.35-.6-.68.19-1.33.24-2,.07-.89-1.05-.9-1.19-1.8s.77-1.51-.51-2c.23-.32,1.08-.49,1.13-1s-.61-.95-1-1.09a3.62,3.62,0,0,0-2.14.09c-.39.34-.2,1.43-.39,1.91-.36.93-1.16.44-2,.51s-1.12.68-1.89.74a5.36,5.36,0,0,1,.13-2.39c.11-1.06-1.1-.4-1.78-.65s-1-.92-1.53-1.22a1.23,1.23,0,0,0-.47-.14c-1.17-.06-.87,1.52-1.33,2.14a1.58,1.58,0,0,1-2.41-.1l-.14-.05c-1.67-.75-.68-3-1.59-4.16-.34-.44-.43-.29-.49-.87a4,4,0,0,1,0-1c.12-.95.54-2,.09-3-.23-.51-.81-1-.24-1.33.31-.19.81-.06,1.16-.15.17-.87-.74-1.38-1.15-2a15,15,0,0,1-1-2c-.78-1.89-1.78-1.46-3.17-.52a4.06,4.06,0,0,1-2.09.8,3.42,3.42,0,0,0-1.78-2.33C.84,18.43-.16,17.29,0,16.5c.3-.18.39-.54.63-.8s.58-.31.7-.52c.4-.72-.59-1-.81-1.39a4.69,4.69,0,0,1-.17-1.6c0-.68-.14-1,.42-1.35,1.29-.69,5.8.82,6-1.28a19.18,19.18,0,0,1-.12-2.27A3.26,3.26,0,0,1,7.82,5.64l.06,0c.18.28.22.7.41,1,.36.47,1.05.65,1.48,1.09.67.7.8,2.1,1.8,2.39s2,0,3,.3,1.35,1.08,2.06,1.65A8,8,0,0,0,19,13.24a1.3,1.3,0,0,0,1.32,0c.21-.13.27-.46.56-.48s.78.55,1,.72a7.44,7.44,0,0,0,5.37,1.21c1.09-.27,1.93-1.27,3-1.54.38-.09,1.07.17,1.21-.27,0-.1-.21-.41-.18-.57,0-.34.18-.47.52-.6,1.38-.53,2.33.64,3.3,1.31s2.12.87,2.54-.22c.2-.54.44-.88,1-.42.08.07.05.24.13.31s.28.14.4.23.21.16.31.26c.37.38.27.84.47,1.29s.46,1,.71,1.54c.57,1.11,1.6,1.23,2.69,1.52.43.13.87.23,1.26.39a3.16,3.16,0,0,0,.73.33c.56,0,.74-.81,1.15-1.18a4.6,4.6,0,0,1,2.53-1c.26-.06,3.12-.71,2.56.16a8.3,8.3,0,0,1-1.29.49,5,5,0,0,1-1.59.15c-1.64.1-1.12,1.68-.67,2.79a3.41,3.41,0,0,1,.28,1.47c.3-.32,1.31-.23,1.74-.3.67-.1,1.81-.18,2.23.26s.54,1,1.23,1.29,1.31.27,1.86.77c.35.31.69,1,1.17,1.05s1-.52,1.5-.55c.73,0,.76.59.92,1.22s.34,1.38.58,2c.35,1,.62,2,1,2.94.29.77.68.36,1.31.75A9.05,9.05,0,0,1,63.23,32a8.78,8.78,0,0,1,.93,1.09c.35.53.48,1.13.79,1.68A5,5,0,0,0,67.47,37c.81.24,1.6-.16,2.32.48s.68,1.32,1.22,1.85.92.94,1.39,1.44a3.64,3.64,0,0,1,.87,1.27c-1,0-.71,1.56-1,2.34a3.38,3.38,0,0,0-.34,1.73c.06.88.25.78.67,1.45s.32.9.77,1.3a3.7,3.7,0,0,0,1.29.56C75.26,49.71,76.7,50.16,76.78,50.88ZM73.22,33.4h.17c.18-.81-.45-.67-.72-1.31-.11-.27-.19-1.28-.78-1.07-.23.08-.19,1.12-.14,1.37A1.73,1.73,0,0,0,73.22,33.4Zm-13.92-14a2.85,2.85,0,0,0,.25-.33c-.32-.46-.54-1-1-1.19-.31-.15-1-.2-1.37-.32s-.53-.49-1-.23c.63.53-.07,1.35.45,1.7s1.71-.13,2.37.21ZM75.45,30.16a6.09,6.09,0,0,0-2.63-2.26,11.08,11.08,0,0,1-2-.92c-.76-.44-1.67-.81-2.39-1.24-.35-.2-.6-.53-1-.78s-.72-.27-.91-.48-.14-.54-.32-.8c-.47-.64-1.4-.89-2-1.55a4.46,4.46,0,0,0-2.17-1.71,8.53,8.53,0,0,1-1.9-.65h0l-.22.08c.3.23.56.48.59.7.08.65-1.08.88-.73,1.61s1.62-.27,2.17-.41c.75-.18,1-.17,1.59.56s.44,1.34.86,1.9c.23.32.76.43,1,.75s.12.78.35,1.1,1.21.47,1.68.76,1,.67,1.53,1c.34,0,.68,0,1,0a2.77,2.77,0,0,1,.88.34,3.49,3.49,0,0,1,.79.41c.24.17.24.34.24.61s.19.49.52.57a2.4,2.4,0,0,1,1.15.54c.2.18.27.45.51.57A2.26,2.26,0,0,0,75,31c.32,0,.35.21.47.45a1.68,1.68,0,0,0,.3.52,1.15,1.15,0,0,0,.74.31C77.37,31,76.1,30.93,75.45,30.16Zm-9.57-1.77c-.12.07-.13.13-.11.26a2.24,2.24,0,0,1,0,.58,1.22,1.22,0,0,0,.12.93c.15.25.25.23.53.23s.37,0,.4-.19a1.06,1.06,0,0,0-.08-.5c-.07-.17-.33-.3-.36-.48s.16-.25.19-.39-.17-.49-.33-.49A.49.49,0,0,0,65.88,28.39Zm5.51,1.9s.08-.05.1-.1a.29.29,0,0,0,0-.16c0-.13,0-.28-.19-.27a.34.34,0,0,0-.3.4.22.22,0,0,0,.13.19.35.35,0,0,0,.14,0,.11.11,0,0,0,.1-.06S71.39,30.3,71.39,30.29Zm1.52.5c0,.09,0,.14.1.17s.14,0,.18,0-.08-.32-.24-.32S72.91,30.75,72.91,30.79Zm-6-2.73c.07-.09,0-.21.06-.3s.12-.06.1-.14-.06-.06-.12-.05a.36.36,0,0,0-.28.4C66.59,28.14,66.82,28.16,66.88,28.06Zm2.71.31c.12,0,.22-.05.32-.08s.26,0,.18-.18-.48,0-.56.05S69.51,28.35,69.59,28.37ZM45.2,11.3c-.26,0-.48.11-.73.13-.5.06-.94-.22-1.28.26a1.29,1.29,0,0,1-.43.5c-.17.09-.37,0-.43.26s.18.44.3.61.17.47.31.71.77.48.79-.06-.21-1.05.39-1.15c.27-.05.29.11.43.27a2.53,2.53,0,0,1,.42.51,1.38,1.38,0,0,0,.51.63c.37.14.44-.15.56-.4s.22-.65.34-1,.3-.28.43-.49c.28-.43-.41-.66-.74-.65S45.51,11.29,45.2,11.3ZM39.83,7.59c-.36-.07-.86-.32-1.19,0-.15.12-.11.37-.17.54s-.33.4-.39.63a1.07,1.07,0,0,0,.11.66.57.57,0,0,0,.68.22c.53-.12.6-.62,1-.88a.84.84,0,0,0,.4-.34c.08-.19,0-.19-.06-.33a2.23,2.23,0,0,0-.13-.3A.36.36,0,0,0,39.83,7.59ZM37.15,6a.65.65,0,0,0-.29-.66c-.21-.13-.36-.32-.61-.33a.74.74,0,0,0-.7.42c-.11.33.1.53.21.81a4.85,4.85,0,0,1,.08.55c.15.63.79.12,1.18.38.22.15.14.53.22.75s.27.19.52.18a1.28,1.28,0,0,0-.18-.71c-.1-.19-.33-.44-.29-.66C37.08,6.53,37.15,6.2,37.15,6ZM31,6.53c0-.14.13-.3.23-.36a6.46,6.46,0,0,1,.92-.44c.45-.16,1.44-.29,1.24-1s-1.13-.29-1.59-.35a2.41,2.41,0,0,1-1.3-.65,3.14,3.14,0,0,1-.85-1.39c-.5,0-.42.6-.78.85S28,3.27,28,3.7s.3.45.59.72.36.39.79.39.71.37.93.8a2.65,2.65,0,0,0,.24.4,1.22,1.22,0,0,0,.15.17c.08.07.14,0,.19.15.14.32-.5.47-.66.64s-.19.57-.14.91c0,.16.1.29.12.46a2.81,2.81,0,0,0,0,.41c0,.24.22.9.55.81A5.83,5.83,0,0,0,31,8.71,2.73,2.73,0,0,1,31,8.07a1.32,1.32,0,0,1,.31-.64c.2-.22.33-.46,0-.66S31,6.69,31,6.53Zm-3.42,3c0-.17-.29-.21-.34-.41s.06-.36-.14-.43-.28,0-.38.09-.4.18-.6.25a3.66,3.66,0,0,1-1,.09c-.7,0-.25.37-.45.77s-.58.2-.82.18c-.41,0-.79-.11-1.2-.11a7.35,7.35,0,0,0-.82.11c-.29,0-.59.14-.57.48s.19.39.31.58.21.47.52.39a3.63,3.63,0,0,1,1-.21h1a9.87,9.87,0,0,1,1.77.41,11.36,11.36,0,0,1,1.19.18c.18.06.35.23.58.18s.2-.38.16-.64a.92.92,0,0,0-.29-.67.6.6,0,0,0-.34-.18c-.12,0-.26,0-.3-.12s.39-.54.52-.6S27.63,9.72,27.58,9.56Zm-6.69,2.77c.19,0,.34,0,.42-.17a.55.55,0,0,0,0-.38c-.11-.14-.28-.12-.36-.3s0-.39-.24-.43-.36.39-.32.61A1,1,0,0,0,20.89,12.33ZM33.61,5.74c.13.18.17.29.42.24.07,0,.22,0,.22-.14s-.14-.12-.18-.18-.06-.25-.24-.29a1,1,0,0,0-.38,0C33.23,5.32,33.58,5.7,33.61,5.74Zm1.3.07c.15,0,.11-.1.11-.2s.09-.29-.08-.32-.19.19-.19.33S34.78,5.81,34.91,5.81ZM21.72,1.63c.28.21.25.65.58.77s.86-.08.77-.46-.7-.31-1-.54S21.42.77,21.12,1C21,1.39,21.48,1.44,21.72,1.63ZM19.65.42a1.13,1.13,0,0,1-.31-.06c-.12,0-.11-.13-.18-.22S18.76,0,18.6,0a1.68,1.68,0,0,0-1,.09,1,1,0,0,1-.55.18,4,4,0,0,1-.49,0c-.15,0-.44-.17-.6-.06s0,.32,0,.44a.93.93,0,0,0,.9.53,3.73,3.73,0,0,0,.56-.2c.16,0,.33,0,.49,0a1.66,1.66,0,0,1,.55-.15,1.27,1.27,0,0,1,.6.15c.2.13,0,.13,0,.31a.37.37,0,0,0,.18.35c.41.26.86-.37.76-.73S20,.45,19.65.42Zm.83,1.72c-.1.16-.36.4-.28.65a.24.24,0,0,0,.2.15c.13,0,.13,0,.15-.13s0-.15.09-.21.17,0,.22-.07,0-.26,0-.32S20.67,2.1,20.48,2.14ZM27.17,4c-.19.09-.47,0-.64.11a.29.29,0,0,0-.12.26c0,.14.11.14.24.14a3.49,3.49,0,0,1,.56,0c.22,0,.37,0,.38-.2S27.37,3.81,27.17,4Zm5.06.21c0-.11-.13-.15-.19-.23s-.06-.11-.16-.09-.13.05-.09.12S32.14,4.47,32.23,4.2Z"/></g></g></g></svg>