<svg width="27" height="52" viewBox="0 0 27 52" fill="none" xmlns="http://www.w3.org/2000/svg">
<path d="M17.4936 19.9412C17.4936 19.4837 17.6771 19.045 18.0037 18.7215C18.3304 18.398 18.7734 18.2163 19.2353 18.2163H25.9066C26.1376 18.2163 26.3591 18.1254 26.5224 17.9637C26.6857 17.8019 26.7775 17.5826 26.7775 17.3538V1.75375C26.7775 1.52501 26.6857 1.30564 26.5224 1.1439C26.3591 0.982161 26.1376 0.891296 25.9066 0.891296H8.69693C6.39036 0.891296 4.17826 1.79875 2.54727 3.41402C0.916281 5.02928 0 7.22006 0 9.5044L0 43.3869C0 45.6712 0.916281 47.862 2.54727 49.4773C4.17826 51.0926 6.39036 52 8.69693 52H25.9066C26.1376 52 26.3591 51.9091 26.5224 51.7474C26.6857 51.5857 26.7775 51.3663 26.7775 51.1375V35.5375C26.7775 35.3087 26.6857 35.0894 26.5224 34.9276C26.3591 34.7659 26.1376 34.675 25.9066 34.675H19.2353C18.774 34.675 18.3316 34.4938 18.0051 34.1711C17.6786 33.8485 17.4946 33.4107 17.4936 32.9539V19.9412ZM23.6586 49.4392H10.4156C8.34093 49.4372 6.35169 48.6207 4.88396 47.1685C3.41622 45.7163 2.58974 43.7471 2.58568 41.6924V11.2065C2.58771 9.15051 3.4133 7.1793 4.88125 5.7255C6.34921 4.27169 8.3396 3.45406 10.4156 3.45205H23.6586C23.7775 3.44422 23.8969 3.46066 24.0091 3.50036C24.1214 3.54006 24.2243 3.60218 24.3113 3.68285C24.3984 3.76353 24.4678 3.86105 24.5152 3.96938C24.5627 4.0777 24.5872 4.19452 24.5872 4.3126C24.5872 4.43068 24.5627 4.5475 24.5152 4.65582C24.4678 4.76415 24.3984 4.86167 24.3113 4.94235C24.2243 5.02302 24.1214 5.08514 24.0091 5.12484C23.8969 5.16454 23.7775 5.18098 23.6586 5.17315H10.4156C8.80019 5.17416 7.25124 5.81014 6.10898 6.94139C4.96671 8.07264 4.32455 9.60666 4.32353 11.2065V41.6924C4.32455 43.2922 4.96671 44.8263 6.10898 45.9575C7.25124 47.0888 8.80019 47.7247 10.4156 47.7257H23.6586C23.7775 47.7179 23.8969 47.7344 24.0091 47.7741C24.1214 47.8138 24.2243 47.8759 24.3113 47.9565C24.3984 48.0372 24.4678 48.1347 24.5152 48.2431C24.5627 48.3514 24.5872 48.4682 24.5872 48.5863C24.5872 48.7044 24.5627 48.8212 24.5152 48.9295C24.4678 49.0378 24.3984 49.1354 24.3113 49.216C24.2243 49.2967 24.1214 49.3588 24.0091 49.3985C23.8969 49.4382 23.7775 49.4547 23.6586 49.4468V49.4392ZM23.6586 44.2455H13.9182C12.3041 44.2435 10.7567 43.6076 9.61537 42.4773C8.47404 41.347 7.83195 39.8145 7.82992 38.216V14.6601C7.83398 13.0629 8.47697 11.5324 9.61807 10.4037C10.7592 9.27501 12.3054 8.64015 13.9182 8.63815H23.6586C23.7775 8.63031 23.8969 8.64676 24.0091 8.68646C24.1214 8.72616 24.2243 8.78827 24.3113 8.86895C24.3984 8.94963 24.4678 9.04715 24.5152 9.15547C24.5627 9.2638 24.5872 9.38062 24.5872 9.4987C24.5872 9.61678 24.5627 9.7336 24.5152 9.84192C24.4678 9.95025 24.3984 10.0478 24.3113 10.1284C24.2243 10.2091 24.1214 10.2712 24.0091 10.3109C23.8969 10.3506 23.7775 10.3671 23.6586 10.3592H13.9182C12.7637 10.3613 11.6571 10.8169 10.8415 11.6261C10.0259 12.4353 9.56777 13.5319 9.56777 14.6753V38.2312C9.5698 39.3733 10.0288 40.468 10.8442 41.2755C11.6596 42.0831 12.765 42.5376 13.9182 42.5396H23.6586C23.7775 42.5318 23.8969 42.5483 24.0091 42.588C24.1214 42.6277 24.2243 42.6898 24.3113 42.7705C24.3984 42.8511 24.4678 42.9486 24.5152 43.057C24.5627 43.1653 24.5872 43.2821 24.5872 43.4002C24.5872 43.5183 24.5627 43.6351 24.5152 43.7434C24.4678 43.8517 24.3984 43.9493 24.3113 44.0299C24.2243 44.1106 24.1214 44.1727 24.0091 44.2124C23.8969 44.2521 23.7775 44.2686 23.6586 44.2607V44.2455ZM17.5205 37.2358H23.6586C23.7775 37.2279 23.8969 37.2444 24.0091 37.2841C24.1214 37.3238 24.2243 37.3859 24.3113 37.4666C24.3984 37.5473 24.4678 37.6448 24.5152 37.7531C24.5627 37.8614 24.5872 37.9782 24.5872 38.0963C24.5872 38.2144 24.5627 38.3312 24.5152 38.4395C24.4678 38.5479 24.3984 38.6454 24.3113 38.7261C24.2243 38.8067 24.1214 38.8689 24.0091 38.9086C23.8969 38.9483 23.7775 38.9647 23.6586 38.9569H17.5205C16.3673 38.9569 15.2614 38.5035 14.4456 37.6963C13.6299 36.8891 13.1711 35.7942 13.1701 34.6522V18.2391C13.1711 17.0977 13.6294 16.0034 14.4443 15.1963C15.2592 14.3893 16.3642 13.9354 17.5166 13.9344H23.6547C23.7737 13.9266 23.893 13.943 24.0053 13.9827C24.1176 14.0224 24.2204 14.0846 24.3075 14.1652C24.3946 14.2459 24.464 14.3434 24.5114 14.4518C24.5589 14.5601 24.5833 14.6769 24.5833 14.795C24.5833 14.9131 24.5589 15.0299 24.5114 15.1382C24.464 15.2465 24.3946 15.344 24.3075 15.4247C24.2204 15.5054 24.1176 15.5675 24.0053 15.6072C23.893 15.6469 23.7737 15.6634 23.6547 15.6555H17.5166C16.8251 15.6565 16.1621 15.929 15.6731 16.4133C15.1841 16.8976 14.9089 17.5542 14.9079 18.2391V34.6522C14.9089 35.3371 15.1841 35.9937 15.6731 36.478C16.1621 36.9622 16.8251 37.2348 17.5166 37.2358H17.5205Z" fill="#01579B"/>
</svg>
